STARTFONT 2.1
COMMENT
COMMENT Converted from OpenType font "TerminessNerdFontMono-Italic.ttf" by "otf2bdf 3.0".
COMMENT
FONT -FreeType-Terminess Nerd Font Mono-Normal-I-Normal--19-140-100-100-P-96-ISO10646-1
SIZE 14 100 100
FONTBOUNDINGBOX 16 22 -3 -4
STARTPROPERTIES 19
FOUNDRY "FreeType"
FAMILY_NAME "Terminess Nerd Font Mono"
WEIGHT_NAME "Normal"
SLANT "I"
SETWIDTH_NAME "Normal"
ADD_STYLE_NAME ""
PIXEL_SIZE 19
POINT_SIZE 140
RESOLUTION_X 100
RESOLUTION_Y 100
SPACING "P"
AVERAGE_WIDTH 96
CHARSET_REGISTRY "ISO10646"
CHARSET_ENCODING "1"
FONT_ASCENT 16
FONT_DESCENT 4
COPYRIGHT "Copyright (C) 2020 Dimitar Toshkov Zhekov; Copyright (C) 2022 Tilman Blumenbach; Licensed under the SIL Open Font License, Version 1.1"
_OTF_FONTFILE "TerminessNerdFontMono-Italic.ttf"
_OTF_PSNAME "TerminessNFM-Italic"
ENDPROPERTIES
CHARS 3620
STARTCHAR 0000
ENCODING 0
SWIDTH 462 0
DWIDTH 9 0
BBX 11 13 -1 0
BITMAP
0C60
0C60
0820
0060
0000
1040
30C0
2080
0000
0000
4100
6700
E700
ENDCHAR
STARTCHAR 0020
ENCODING 32
SWIDTH 462 0
DWIDTH 9 0
BBX 0 0 0 0
BITMAP
ENDCHAR
STARTCHAR 0021
ENCODING 33
SWIDTH 462 0
DWIDTH 9 0
BBX 4 12 3 0
BITMAP
10
10
10
30
20
20
60
40
00
00
80
80
ENDCHAR
STARTCHAR 0022
ENCODING 34
SWIDTH 462 0
DWIDTH 9 0
BBX 6 4 4 10
BITMAP
44
48
88
98
ENDCHAR
STARTCHAR 0023
ENCODING 35
SWIDTH 462 0
DWIDTH 9 0
BBX 8 13 1 0
BITMAP
19
11
11
3F
7F
22
24
44
FE
FE
88
88
90
ENDCHAR
STARTCHAR 0024
ENCODING 36
SWIDTH 462 0
DWIDTH 9 0
BBX 10 15 0 -1
BITMAP
0100
0300
0FC0
32C0
3440
2400
3400
3F00
0900
0900
9900
D600
7C00
3000
2000
ENDCHAR
STARTCHAR 0025
ENCODING 37
SWIDTH 462 0
DWIDTH 9 0
BBX 10 13 0 0
BITMAP
0C40
1EC0
1480
1D00
0200
0400
0800
1000
3000
2E00
5600
9C00
0800
ENDCHAR
STARTCHAR 0026
ENCODING 38
SWIDTH 462 0
DWIDTH 9 0
BBX 8 13 0 0
BITMAP
0E
0F
11
31
32
1C
38
6D
C6
84
8C
FE
26
ENDCHAR
STARTCHAR 0027
ENCODING 39
SWIDTH 462 0
DWIDTH 9 0
BBX 2 4 6 10
BITMAP
40
C0
80
80
ENDCHAR
STARTCHAR 0028
ENCODING 40
SWIDTH 462 0
DWIDTH 9 0
BBX 7 13 2 0
BITMAP
06
0C
18
30
20
60
40
40
40
C0
40
60
20
ENDCHAR
STARTCHAR 0029
ENCODING 41
SWIDTH 462 0
DWIDTH 9 0
BBX 7 12 1 1
BITMAP
0C
04
06
04
04
04
08
08
18
30
40
80
ENDCHAR
STARTCHAR 002A
ENCODING 42
SWIDTH 462 0
DWIDTH 9 0
BBX 9 7 0 3
BITMAP
1980
1E00
0C00
7F80
1800
3C00
E600
ENDCHAR
STARTCHAR 002B
ENCODING 43
SWIDTH 462 0
DWIDTH 9 0
BBX 8 7 1 3
BITMAP
0C
08
08
FF
10
10
30
ENDCHAR
STARTCHAR 002C
ENCODING 44
SWIDTH 462 0
DWIDTH 9 0
BBX 3 4 1 -1
BITMAP
20
20
40
80
ENDCHAR
STARTCHAR 002D
ENCODING 45
SWIDTH 462 0
DWIDTH 9 0
BBX 8 1 1 6
BITMAP
FF
ENDCHAR
STARTCHAR 002E
ENCODING 46
SWIDTH 462 0
DWIDTH 9 0
BBX 1 2 3 0
BITMAP
80
80
ENDCHAR
STARTCHAR 002F
ENCODING 47
SWIDTH 462 0
DWIDTH 9 0
BBX 10 12 0 0
BITMAP
0040
00C0
0080
0100
0200
0400
0800
1000
3000
2000
4000
8000
ENDCHAR
STARTCHAR 0030
ENCODING 48
SWIDTH 462 0
DWIDTH 9 0
BBX 10 13 0 0
BITMAP
0F80
0FC0
1040
30C0
2180
2680
6D80
5900
6100
C300
8200
FE00
7800
ENDCHAR
STARTCHAR 0031
ENCODING 49
SWIDTH 462 0
DWIDTH 9 0
BBX 6 12 1 1
BITMAP
0C
1C
0C
08
08
18
10
10
30
20
F0
F0
ENDCHAR
STARTCHAR 0032
ENCODING 50
SWIDTH 462 0
DWIDTH 9 0
BBX 11 13 -1 0
BITMAP
07C0
07E0
0820
1820
1040
00C0
0180
0200
0C00
1800
2000
FF00
FF00
ENDCHAR
STARTCHAR 0033
ENCODING 51
SWIDTH 462 0
DWIDTH 9 0
BBX 10 13 0 0
BITMAP
0F80
1FC0
1040
0040
0080
0180
1F00
0100
0100
0300
8200
FE00
3800
ENDCHAR
STARTCHAR 0034
ENCODING 52
SWIDTH 462 0
DWIDTH 9 0
BBX 9 12 1 1
BITMAP
0180
0380
0580
1900
3100
6300
8200
FE00
FE00
0400
0400
0C00
ENDCHAR
STARTCHAR 0035
ENCODING 53
SWIDTH 462 0
DWIDTH 9 0
BBX 10 13 0 0
BITMAP
1FC0
1FC0
1000
3000
2000
3F00
7F00
0100
0100
0300
8200
FC00
7800
ENDCHAR
STARTCHAR 0036
ENCODING 54
SWIDTH 462 0
DWIDTH 9 0
BBX 10 13 0 0
BITMAP
0FC0
0FC0
1000
3000
2000
3F00
7F00
4100
4100
8300
8200
FC00
7800
ENDCHAR
STARTCHAR 0037
ENCODING 55
SWIDTH 462 0
DWIDTH 9 0
BBX 8 13 2 0
BITMAP
7F
7F
41
C2
04
0C
08
10
20
60
40
40
C0
ENDCHAR
STARTCHAR 0038
ENCODING 56
SWIDTH 462 0
DWIDTH 9 0
BBX 10 13 0 0
BITMAP
0F80
1FC0
1040
3040
2080
2180
3F00
6100
4100
C100
C200
FE00
3800
ENDCHAR
STARTCHAR 0039
ENCODING 57
SWIDTH 462 0
DWIDTH 9 0
BBX 10 13 0 0
BITMAP
0F80
0FC0
1040
20C0
2080
2080
6180
3F00
0100
0300
0200
FE00
F800
ENDCHAR
STARTCHAR 003A
ENCODING 58
SWIDTH 462 0
DWIDTH 9 0
BBX 3 8 3 0
BITMAP
20
20
40
00
00
00
80
80
ENDCHAR
STARTCHAR 003B
ENCODING 59
SWIDTH 462 0
DWIDTH 9 0
BBX 5 10 1 -1
BITMAP
08
08
10
00
00
00
20
20
40
80
ENDCHAR
STARTCHAR 003C
ENCODING 60
SWIDTH 462 0
DWIDTH 9 0
BBX 9 13 1 0
BITMAP
0080
0180
0600
0C00
1800
6000
C000
6000
6000
3000
1000
1800
0C00
ENDCHAR
STARTCHAR 003D
ENCODING 61
SWIDTH 462 0
DWIDTH 9 0
BBX 8 5 1 4
BITMAP
7F
00
00
00
FE
ENDCHAR
STARTCHAR 003E
ENCODING 62
SWIDTH 462 0
DWIDTH 9 0
BBX 9 13 0 0
BITMAP
1800
0C00
0C00
0600
0300
0300
0180
0300
0400
1800
3000
C000
8000
ENDCHAR
STARTCHAR 003F
ENCODING 63
SWIDTH 462 0
DWIDTH 9 0
BBX 8 12 2 0
BITMAP
3E
3F
41
C1
82
06
18
30
20
00
40
40
ENDCHAR
STARTCHAR 0040
ENCODING 64
SWIDTH 462 0
DWIDTH 9 0
BBX 11 13 -1 0
BITMAP
07C0
0FE0
1020
13E0
3440
2440
28C0
6880
4980
4F80
C000
7F00
7F00
ENDCHAR
STARTCHAR 0041
ENCODING 65
SWIDTH 462 0
DWIDTH 9 0
BBX 11 13 -1 0
BITMAP
07C0
07E0
0820
1860
1040
1040
20C0
3F80
2080
4180
4100
4100
C300
ENDCHAR
STARTCHAR 0042
ENCODING 66
SWIDTH 462 0
DWIDTH 9 0
BBX 11 13 -1 0
BITMAP
0FC0
0FE0
0820
1820
1040
1F80
3F00
2080
2080
6180
4100
7E00
FC00
ENDCHAR
STARTCHAR 0043
ENCODING 67
SWIDTH 462 0
DWIDTH 9 0
BBX 10 13 0 0
BITMAP
0F80
0FC0
1040
3040
2000
2000
6000
4000
4000
8000
8200
FE00
7800
ENDCHAR
STARTCHAR 0044
ENCODING 68
SWIDTH 462 0
DWIDTH 9 0
BBX 11 13 -1 0
BITMAP
0F80
0FC0
0840
1860
1040
1040
30C0
2080
2080
4100
4300
7E00
F800
ENDCHAR
STARTCHAR 0045
ENCODING 69
SWIDTH 462 0
DWIDTH 9 0
BBX 11 13 -1 0
BITMAP
0FE0
0FE0
0800
1800
1000
1000
3F00
2000
2000
4000
4000
7F00
FF00
ENDCHAR
STARTCHAR 0046
ENCODING 70
SWIDTH 462 0
DWIDTH 9 0
BBX 11 13 -1 0
BITMAP
0FE0
0FE0
0800
1800
1000
1000
3F00
2000
2000
6000
4000
4000
C000
ENDCHAR
STARTCHAR 0047
ENCODING 71
SWIDTH 462 0
DWIDTH 9 0
BBX 10 13 0 0
BITMAP
0F80
0FC0
1040
3040
2000
2000
6780
4100
4100
8300
8200
FC00
7800
ENDCHAR
STARTCHAR 0048
ENCODING 72
SWIDTH 462 0
DWIDTH 9 0
BBX 11 13 -1 0
BITMAP
0820
0820
0820
1860
1040
1040
3FC0
2080
2080
6180
4100
4100
C300
ENDCHAR
STARTCHAR 0049
ENCODING 73
SWIDTH 462 0
DWIDTH 9 0
BBX 8 13 1 0
BITMAP
0F
0E
04
08
08
08
18
10
10
30
20
F0
F0
ENDCHAR
STARTCHAR 004A
ENCODING 74
SWIDTH 462 0
DWIDTH 9 0
BBX 11 13 0 0
BITMAP
01E0
01E0
0080
0080
0180
0100
0100
0300
0200
C200
C600
FC00
3000
ENDCHAR
STARTCHAR 004B
ENCODING 75
SWIDTH 462 0
DWIDTH 9 0
BBX 11 13 -1 0
BITMAP
0820
0860
08C0
1980
1600
1C00
3000
3800
2C00
6400
4600
4300
C100
ENDCHAR
STARTCHAR 004C
ENCODING 76
SWIDTH 462 0
DWIDTH 9 0
BBX 8 13 -1 0
BITMAP
08
08
08
18
10
10
30
20
20
60
40
7F
FF
ENDCHAR
STARTCHAR 004D
ENCODING 77
SWIDTH 462 0
DWIDTH 9 0
BBX 11 13 -1 0
BITMAP
0800
1820
1860
14E0
3740
2640
20C0
6080
4080
4180
C100
8100
8300
ENDCHAR
STARTCHAR 004E
ENCODING 78
SWIDTH 462 0
DWIDTH 9 0
BBX 11 13 -1 0
BITMAP
0800
0820
0820
1860
1C40
1C40
36C0
2380
2380
6180
4100
4100
C300
ENDCHAR
STARTCHAR 004F
ENCODING 79
SWIDTH 462 0
DWIDTH 9 0
BBX 10 13 0 0
BITMAP
0F80
0FC0
10C0
30C0
2080
2080
6180
4100
4100
C300
8200
FE00
7800
ENDCHAR
STARTCHAR 0050
ENCODING 80
SWIDTH 462 0
DWIDTH 9 0
BBX 11 13 -1 0
BITMAP
0FC0
0FE0
0820
1860
1040
1040
2180
3F00
2000
4000
4000
4000
C000
ENDCHAR
STARTCHAR 0051
ENCODING 81
SWIDTH 462 0
DWIDTH 9 0
BBX 10 14 0 -1
BITMAP
0F80
0FC0
1040
30C0
2080
2080
6180
4100
4100
8300
9A00
FC00
7C00
0600
ENDCHAR
STARTCHAR 0052
ENCODING 82
SWIDTH 462 0
DWIDTH 9 0
BBX 11 13 -1 0
BITMAP
0FC0
0FE0
0820
1860
1040
1040
2180
3F00
2C00
6400
4600
4300
C100
ENDCHAR
STARTCHAR 0053
ENCODING 83
SWIDTH 462 0
DWIDTH 9 0
BBX 10 13 0 0
BITMAP
0F80
1FC0
1040
3040
2000
2000
3F00
0100
0100
0300
8200
FE00
3800
ENDCHAR
STARTCHAR 0054
ENCODING 84
SWIDTH 462 0
DWIDTH 9 0
BBX 7 12 3 0
BITMAP
FE
FE
10
30
20
20
60
40
40
C0
80
80
ENDCHAR
STARTCHAR 0055
ENCODING 85
SWIDTH 462 0
DWIDTH 9 0
BBX 10 13 0 0
BITMAP
1000
1040
1040
30C0
2080
2080
6180
4100
4100
C300
8200
FE00
7800
ENDCHAR
STARTCHAR 0056
ENCODING 86
SWIDTH 462 0
DWIDTH 9 0
BBX 8 13 2 0
BITMAP
40
41
43
42
C2
C4
84
88
98
90
A0
E0
C0
ENDCHAR
STARTCHAR 0057
ENCODING 87
SWIDTH 462 0
DWIDTH 9 0
BBX 11 13 -1 0
BITMAP
0820
1820
1020
1060
3040
2040
20C0
6480
4C80
5380
E300
C300
8100
ENDCHAR
STARTCHAR 0058
ENCODING 88
SWIDTH 462 0
DWIDTH 9 0
BBX 10 13 0 0
BITMAP
1040
1040
1880
0900
0B00
0E00
0C00
1C00
3400
2400
4600
8600
0600
ENDCHAR
STARTCHAR 0059
ENCODING 89
SWIDTH 462 0
DWIDTH 9 0
BBX 8 13 2 0
BITMAP
41
41
43
46
64
28
30
20
20
60
40
40
C0
ENDCHAR
STARTCHAR 005A
ENCODING 90
SWIDTH 462 0
DWIDTH 9 0
BBX 11 13 -1 0
BITMAP
0FE0
0FE0
0020
0060
00C0
0300
0600
0800
3000
6000
4000
7F00
FF00
ENDCHAR
STARTCHAR 005B
ENCODING 91
SWIDTH 462 0
DWIDTH 9 0
BBX 8 13 1 0
BITMAP
1F
1F
10
30
20
20
20
40
40
40
80
F0
F0
ENDCHAR
STARTCHAR 005C
ENCODING 92
SWIDTH 462 0
DWIDTH 9 0
BBX 3 13 3 0
BITMAP
80
80
C0
40
40
40
40
40
60
20
20
20
20
ENDCHAR
STARTCHAR 005D
ENCODING 93
SWIDTH 462 0
DWIDTH 9 0
BBX 8 13 1 0
BITMAP
1F
1E
02
02
04
04
04
08
08
08
10
F0
F0
ENDCHAR
STARTCHAR 005E
ENCODING 94
SWIDTH 462 0
DWIDTH 9 0
BBX 7 4 3 10
BITMAP
08
3C
6C
86
ENDCHAR
STARTCHAR 005F
ENCODING 95
SWIDTH 462 0
DWIDTH 9 0
BBX 7 1 -1 -1
BITMAP
FE
ENDCHAR
STARTCHAR 0060
ENCODING 96
SWIDTH 462 0
DWIDTH 9 0
BBX 3 2 5 13
BITMAP
C0
60
ENDCHAR
STARTCHAR 0061
ENCODING 97
SWIDTH 462 0
DWIDTH 9 0
BBX 9 9 0 0
BITMAP
3F00
0180
0180
3F00
4100
C300
8200
FE00
0E00
ENDCHAR
STARTCHAR 0062
ENCODING 98
SWIDTH 462 0
DWIDTH 9 0
BBX 10 13 -1 0
BITMAP
0800
0800
0800
1800
1F80
10C0
30C0
2080
2080
6180
4100
7F00
FC00
ENDCHAR
STARTCHAR 0063
ENCODING 99
SWIDTH 462 0
DWIDTH 9 0
BBX 9 9 0 0
BITMAP
1F00
3180
6000
4000
4000
8000
8200
FE00
7800
ENDCHAR
STARTCHAR 0064
ENCODING 100
SWIDTH 462 0
DWIDTH 9 0
BBX 10 13 0 0
BITMAP
0040
0040
0040
0040
1F80
3080
6180
4100
4100
8300
8200
FE00
7E00
ENDCHAR
STARTCHAR 0065
ENCODING 101
SWIDTH 462 0
DWIDTH 9 0
BBX 9 9 0 0
BITMAP
1F00
3180
4180
4100
7F00
C000
C000
FE00
7C00
ENDCHAR
STARTCHAR 0066
ENCODING 102
SWIDTH 462 0
DWIDTH 9 0
BBX 9 13 2 0
BITMAP
0780
0780
0800
1800
FE00
1800
3000
2000
2000
6000
4000
4000
C000
ENDCHAR
STARTCHAR 0067
ENCODING 103
SWIDTH 462 0
DWIDTH 9 0
BBX 10 12 -1 -3
BITMAP
0FC0
1840
30C0
2080
2080
4180
4100
7F00
3F00
0200
FE00
F800
ENDCHAR
STARTCHAR 0068
ENCODING 104
SWIDTH 462 0
DWIDTH 9 0
BBX 10 13 -1 0
BITMAP
0800
0800
0800
1800
1F80
18C0
30C0
2080
2080
6180
4100
4100
C300
ENDCHAR
STARTCHAR 0069
ENCODING 105
SWIDTH 462 0
DWIDTH 9 0
BBX 6 13 1 0
BITMAP
04
04
04
00
18
08
18
10
10
30
20
F0
F0
ENDCHAR
STARTCHAR 006A
ENCODING 106
SWIDTH 462 0
DWIDTH 9 0
BBX 10 16 0 -3
BITMAP
0040
00C0
0080
0000
0380
0100
0100
0300
0200
0200
0600
0400
0400
8C00
F800
F000
ENDCHAR
STARTCHAR 006B
ENCODING 107
SWIDTH 462 0
DWIDTH 9 0
BBX 9 13 0 0
BITMAP
0800
0800
1800
1000
1180
2300
2600
2800
7000
5800
4800
8C00
8600
ENDCHAR
STARTCHAR 006C
ENCODING 108
SWIDTH 462 0
DWIDTH 9 0
BBX 6 13 1 0
BITMAP
0C
0C
04
0C
08
08
18
10
10
30
20
F0
F0
ENDCHAR
STARTCHAR 006D
ENCODING 109
SWIDTH 462 0
DWIDTH 9 0
BBX 10 9 -1 0
BITMAP
1F80
12C0
36C0
2480
2480
6D80
4900
4900
DB00
ENDCHAR
STARTCHAR 006E
ENCODING 110
SWIDTH 462 0
DWIDTH 9 0
BBX 10 9 -1 0
BITMAP
1F80
18C0
30C0
2080
2080
6180
4100
4100
C300
ENDCHAR
STARTCHAR 006F
ENCODING 111
SWIDTH 462 0
DWIDTH 9 0
BBX 9 9 0 0
BITMAP
1F00
3180
6180
4100
4100
8300
8200
FE00
7800
ENDCHAR
STARTCHAR 0070
ENCODING 112
SWIDTH 462 0
DWIDTH 9 0
BBX 11 12 -2 -3
BITMAP
0FC0
0860
1860
1040
1040
30C0
2080
3F80
7E00
4000
4000
8000
ENDCHAR
STARTCHAR 0071
ENCODING 113
SWIDTH 462 0
DWIDTH 9 0
BBX 9 12 0 -3
BITMAP
1F80
3080
6180
4100
4100
8300
8200
FE00
7E00
0400
0400
0800
ENDCHAR
STARTCHAR 0072
ENCODING 114
SWIDTH 462 0
DWIDTH 9 0
BBX 10 9 -1 0
BITMAP
17C0
1C00
3800
2000
2000
6000
4000
4000
C000
ENDCHAR
STARTCHAR 0073
ENCODING 115
SWIDTH 462 0
DWIDTH 9 0
BBX 9 9 0 0
BITMAP
1F00
3380
4000
6000
7E00
0300
0200
FE00
3800
ENDCHAR
STARTCHAR 0074
ENCODING 116
SWIDTH 462 0
DWIDTH 9 0
BBX 6 13 2 0
BITMAP
08
18
10
10
FC
30
20
60
40
40
C0
78
78
ENDCHAR
STARTCHAR 0075
ENCODING 117
SWIDTH 462 0
DWIDTH 9 0
BBX 9 9 0 0
BITMAP
2080
2080
6180
4100
4100
8300
8200
FE00
7E00
ENDCHAR
STARTCHAR 0076
ENCODING 118
SWIDTH 462 0
DWIDTH 9 0
BBX 7 9 2 0
BITMAP
82
82
84
84
98
98
A0
E0
C0
ENDCHAR
STARTCHAR 0077
ENCODING 119
SWIDTH 462 0
DWIDTH 9 0
BBX 9 9 0 0
BITMAP
2080
2080
6180
4900
4900
9B00
9200
FE00
7800
ENDCHAR
STARTCHAR 0078
ENCODING 120
SWIDTH 462 0
DWIDTH 9 0
BBX 9 8 0 0
BITMAP
2080
3180
3300
1C00
1800
3C00
4600
8600
ENDCHAR
STARTCHAR 0079
ENCODING 121
SWIDTH 462 0
DWIDTH 9 0
BBX 10 12 -1 -3
BITMAP
1040
1040
30C0
2080
2080
4180
4100
7F00
3F00
0200
FE00
F800
ENDCHAR
STARTCHAR 007A
ENCODING 122
SWIDTH 462 0
DWIDTH 9 0
BBX 10 9 -1 0
BITMAP
1FC0
00C0
0180
0200
0C00
1800
2000
FF00
FF00
ENDCHAR
STARTCHAR 007B
ENCODING 123
SWIDTH 462 0
DWIDTH 9 0
BBX 7 13 2 0
BITMAP
06
0E
10
10
30
20
C0
40
40
40
C0
60
60
ENDCHAR
STARTCHAR 007C
ENCODING 124
SWIDTH 462 0
DWIDTH 9 0
BBX 5 13 2 0
BITMAP
08
08
08
18
10
10
30
20
20
60
40
40
C0
ENDCHAR
STARTCHAR 007D
ENCODING 125
SWIDTH 462 0
DWIDTH 9 0
BBX 7 13 0 0
BITMAP
0C
0E
06
06
04
04
06
08
08
18
10
F0
C0
ENDCHAR
STARTCHAR 007E
ENCODING 126
SWIDTH 462 0
DWIDTH 9 0
BBX 8 4 3 10
BITMAP
31
73
9E
8C
ENDCHAR
STARTCHAR 00A0
ENCODING 160
SWIDTH 462 0
DWIDTH 9 0
BBX 0 0 0 0
BITMAP
ENDCHAR
STARTCHAR 00A1
ENCODING 161
SWIDTH 462 0
DWIDTH 9 0
BBX 5 13 2 0
BITMAP
08
08
08
00
10
10
30
20
20
60
40
40
C0
ENDCHAR
STARTCHAR 00A2
ENCODING 162
SWIDTH 462 0
DWIDTH 9 0
BBX 9 12 0 -1
BITMAP
0600
0600
1F00
3580
6C00
4800
4800
9800
9200
FE00
7800
2000
ENDCHAR
STARTCHAR 00A3
ENCODING 163
SWIDTH 462 0
DWIDTH 9 0
BBX 10 13 -1 0
BITMAP
0180
03C0
0440
0400
0800
0800
3F00
1800
1000
1000
2100
FF00
FF00
ENDCHAR
STARTCHAR 00A4
ENCODING 164
SWIDTH 462 0
DWIDTH 9 0
BBX 10 9 0 2
BITMAP
30C0
1D80
1F00
3100
2100
6300
3E00
6E00
C200
ENDCHAR
STARTCHAR 00A5
ENCODING 165
SWIDTH 462 0
DWIDTH 9 0
BBX 9 12 1 0
BITMAP
2080
2080
3100
1200
1600
1C00
1800
1000
FC00
3000
FC00
6000
ENDCHAR
STARTCHAR 00A6
ENCODING 166
SWIDTH 462 0
DWIDTH 9 0
BBX 5 13 2 0
BITMAP
08
08
08
18
10
00
00
00
20
60
40
40
C0
ENDCHAR
STARTCHAR 00A7
ENCODING 167
SWIDTH 462 0
DWIDTH 9 0
BBX 9 14 0 0
BITMAP
0780
0D80
0880
0800
0E00
3200
2300
2200
2200
3C00
0C00
0400
CC00
7800
ENDCHAR
STARTCHAR 00A8
ENCODING 168
SWIDTH 462 0
DWIDTH 9 0
BBX 5 3 5 13
BITMAP
48
C8
88
ENDCHAR
STARTCHAR 00A9
ENCODING 169
SWIDTH 462 0
DWIDTH 9 0
BBX 10 9 0 2
BITMAP
1FC0
2740
7F40
50C0
5080
E080
BF80
9100
FE00
ENDCHAR
STARTCHAR 00AA
ENCODING 170
SWIDTH 462 0
DWIDTH 9 0
BBX 8 9 2 6
BITMAP
1F
01
1F
3F
42
7E
38
00
FC
ENDCHAR
STARTCHAR 00AB
ENCODING 171
SWIDTH 462 0
DWIDTH 9 0
BBX 10 9 0 0
BITMAP
06C0
0900
3600
6C00
D800
4800
6C00
3600
3200
ENDCHAR
STARTCHAR 00AC
ENCODING 172
SWIDTH 462 0
DWIDTH 9 0
BBX 7 5 2 4
BITMAP
FE
02
06
04
04
ENDCHAR
STARTCHAR 00AD
ENCODING 173
SWIDTH 462 0
DWIDTH 9 0
BBX 6 1 2 6
BITMAP
FC
ENDCHAR
STARTCHAR 00AE
ENCODING 174
SWIDTH 462 0
DWIDTH 9 0
BBX 10 9 0 2
BITMAP
1FC0
3140
5F40
51C0
5E80
FC80
AD80
E700
FE00
ENDCHAR
STARTCHAR 00AF
ENCODING 175
SWIDTH 462 0
DWIDTH 9 0
BBX 5 1 5 14
BITMAP
F8
ENDCHAR
STARTCHAR 00B0
ENCODING 176
SWIDTH 462 0
DWIDTH 9 0
BBX 5 5 4 9
BITMAP
78
48
88
88
F0
ENDCHAR
STARTCHAR 00B1
ENCODING 177
SWIDTH 462 0
DWIDTH 9 0
BBX 10 10 -1 0
BITMAP
0300
0200
0200
3FC0
0400
0400
0C00
0000
FF00
FF00
ENDCHAR
STARTCHAR 00B2
ENCODING 178
SWIDTH 462 0
DWIDTH 9 0
BBX 7 6 3 8
BITMAP
3C
26
0C
18
60
F8
ENDCHAR
STARTCHAR 00B3
ENCODING 179
SWIDTH 462 0
DWIDTH 9 0
BBX 6 6 4 8
BITMAP
7C
08
38
18
18
F0
ENDCHAR
STARTCHAR 00B4
ENCODING 180
SWIDTH 462 0
DWIDTH 9 0
BBX 5 3 6 13
BITMAP
18
60
C0
ENDCHAR
STARTCHAR 00B5
ENCODING 181
SWIDTH 462 0
DWIDTH 9 0
BBX 11 12 -2 -3
BITMAP
0820
0820
1860
1040
1040
30C0
2180
3F80
7D80
4000
4000
8000
ENDCHAR
STARTCHAR 00B6
ENCODING 182
SWIDTH 462 0
DWIDTH 9 0
BBX 8 13 2 0
BITMAP
3F
7F
89
9B
92
92
F6
24
24
6C
48
48
18
ENDCHAR
STARTCHAR 00B7
ENCODING 183
SWIDTH 462 0
DWIDTH 9 0
BBX 2 3 4 5
BITMAP
40
C0
80
ENDCHAR
STARTCHAR 00B8
ENCODING 184
SWIDTH 462 0
DWIDTH 9 0
BBX 3 3 0 -3
BITMAP
20
60
80
ENDCHAR
STARTCHAR 00B9
ENCODING 185
SWIDTH 462 0
DWIDTH 9 0
BBX 4 6 4 8
BITMAP
30
60
20
20
60
E0
ENDCHAR
STARTCHAR 00BA
ENCODING 186
SWIDTH 462 0
DWIDTH 9 0
BBX 8 9 2 6
BITMAP
0F
31
21
23
62
7E
38
00
FC
ENDCHAR
STARTCHAR 00BB
ENCODING 187
SWIDTH 462 0
DWIDTH 9 0
BBX 10 9 -1 0
BITMAP
3600
1B00
0D80
0480
04C0
0980
3600
6C00
9000
ENDCHAR
STARTCHAR 00BC
ENCODING 188
SWIDTH 462 0
DWIDTH 9 0
BBX 10 13 0 0
BITMAP
0800
0800
1800
1840
1180
1300
0600
1980
3380
6500
9F00
0300
0200
ENDCHAR
STARTCHAR 00BD
ENCODING 189
SWIDTH 462 0
DWIDTH 9 0
BBX 11 13 0 0
BITMAP
0800
1800
1060
1180
1300
1600
0800
3780
6980
8900
0600
0E00
1600
ENDCHAR
STARTCHAR 00BE
ENCODING 190
SWIDTH 462 0
DWIDTH 9 0
BBX 11 13 -1 0
BITMAP
0800
1F00
0600
0620
3260
1E80
0300
06C0
09C0
3280
6F80
8180
0100
ENDCHAR
STARTCHAR 00BF
ENCODING 191
SWIDTH 462 0
DWIDTH 9 0
BBX 8 13 0 0
BITMAP
02
02
02
00
04
04
08
30
41
C3
82
FE
78
ENDCHAR
STARTCHAR 00C0
ENCODING 192
SWIDTH 462 0
DWIDTH 9 0
BBX 11 16 -1 0
BITMAP
0300
0180
0080
07C0
07E0
0820
1860
1040
1040
20C0
3F80
2080
4180
4100
4100
C300
ENDCHAR
STARTCHAR 00C1
ENCODING 193
SWIDTH 462 0
DWIDTH 9 0
BBX 12 16 -1 0
BITMAP
0030
00C0
0180
07C0
07E0
0820
1860
1040
1040
20C0
3F80
2080
4180
4100
4100
C300
ENDCHAR
STARTCHAR 00C2
ENCODING 194
SWIDTH 462 0
DWIDTH 9 0
BBX 11 16 -1 0
BITMAP
0080
01C0
03E0
07C0
07E0
0820
1860
1040
1040
20C0
3F80
2080
4180
4100
4100
C300
ENDCHAR
STARTCHAR 00C3
ENCODING 195
SWIDTH 462 0
DWIDTH 9 0
BBX 12 16 -1 0
BITMAP
0190
02B0
04E0
07C0
07E0
0820
1860
1040
1040
20C0
3F80
2080
4180
4100
4100
C300
ENDCHAR
STARTCHAR 00C4
ENCODING 196
SWIDTH 462 0
DWIDTH 9 0
BBX 11 16 -1 0
BITMAP
0120
0320
0220
07C0
07E0
0820
1860
1040
1040
20C0
3F80
2080
4180
4100
4100
C300
ENDCHAR
STARTCHAR 00C5
ENCODING 197
SWIDTH 462 0
DWIDTH 9 0
BBX 11 16 -1 0
BITMAP
00C0
0140
0140
07C0
07E0
0820
1860
1040
1040
20C0
3F80
2080
4180
4100
4100
C300
ENDCHAR
STARTCHAR 00C6
ENCODING 198
SWIDTH 462 0
DWIDTH 9 0
BBX 13 13 -1 0
BITMAP
07F8
0FF8
1180
1100
3100
2300
3FC0
6200
4600
4400
C400
8F80
8F80
ENDCHAR
STARTCHAR 00C7
ENCODING 199
SWIDTH 462 0
DWIDTH 9 0
BBX 10 16 0 -3
BITMAP
0F80
0FC0
1040
3040
2000
2000
6000
4000
4000
8000
8200
FE00
7800
2000
4000
8000
ENDCHAR
STARTCHAR 00C8
ENCODING 200
SWIDTH 462 0
DWIDTH 9 0
BBX 11 16 -1 0
BITMAP
0300
0180
0080
0FE0
0FE0
0800
1800
1000
1000
3F00
2000
2000
4000
4000
7F00
FF00
ENDCHAR
STARTCHAR 00C9
ENCODING 201
SWIDTH 462 0
DWIDTH 9 0
BBX 12 16 -1 0
BITMAP
0030
00C0
0180
0FE0
0FE0
0800
1800
1000
1000
3F00
2000
2000
4000
4000
7F00
FF00
ENDCHAR
STARTCHAR 00CA
ENCODING 202
SWIDTH 462 0
DWIDTH 9 0
BBX 11 16 -1 0
BITMAP
0080
01C0
03E0
0FE0
0FE0
0800
1800
1000
1000
3F00
2000
2000
4000
4000
7F00
FF00
ENDCHAR
STARTCHAR 00CB
ENCODING 203
SWIDTH 462 0
DWIDTH 9 0
BBX 11 16 -1 0
BITMAP
0120
0320
0220
0FE0
0FE0
0800
1800
1000
1000
3F00
2000
2000
4000
4000
7F00
FF00
ENDCHAR
STARTCHAR 00CC
ENCODING 204
SWIDTH 462 0
DWIDTH 9 0
BBX 8 16 1 0
BITMAP
0C
06
02
0F
0E
04
08
08
08
18
10
10
30
20
F0
F0
ENDCHAR
STARTCHAR 00CD
ENCODING 205
SWIDTH 462 0
DWIDTH 9 0
BBX 10 16 1 0
BITMAP
00C0
0300
0600
0F00
0E00
0400
0800
0800
0800
1800
1000
1000
3000
2000
F000
F000
ENDCHAR
STARTCHAR 00CE
ENCODING 206
SWIDTH 462 0
DWIDTH 9 0
BBX 9 16 1 0
BITMAP
0200
0700
0F80
0F00
0E00
0400
0800
0800
0800
1800
1000
1000
3000
2000
F000
F000
ENDCHAR
STARTCHAR 00CF
ENCODING 207
SWIDTH 462 0
DWIDTH 9 0
BBX 9 16 1 0
BITMAP
0480
0C80
0880
0F00
0E00
0400
0800
0800
0800
1800
1000
1000
3000
2000
F000
F000
ENDCHAR
STARTCHAR 00D0
ENCODING 208
SWIDTH 462 0
DWIDTH 9 0
BBX 11 13 -1 0
BITMAP
0F80
0FC0
0840
1860
1040
1040
3CC0
2080
2080
4100
4300
7E00
F800
ENDCHAR
STARTCHAR 00D1
ENCODING 209
SWIDTH 462 0
DWIDTH 9 0
BBX 12 16 -1 0
BITMAP
0190
02B0
04E0
0800
0820
0820
1860
1C40
1C40
36C0
2380
2380
6180
4100
4100
C300
ENDCHAR
STARTCHAR 00D2
ENCODING 210
SWIDTH 462 0
DWIDTH 9 0
BBX 10 16 0 0
BITMAP
0600
0300
0100
0F80
0FC0
10C0
30C0
2080
2080
6180
4100
4100
C300
8200
FE00
7800
ENDCHAR
STARTCHAR 00D3
ENCODING 211
SWIDTH 462 0
DWIDTH 9 0
BBX 11 16 0 0
BITMAP
0060
0180
0300
0F80
0FC0
10C0
30C0
2080
2080
6180
4100
4100
C300
8200
FE00
7800
ENDCHAR
STARTCHAR 00D4
ENCODING 212
SWIDTH 462 0
DWIDTH 9 0
BBX 10 16 0 0
BITMAP
0100
0380
07C0
0F80
0FC0
10C0
30C0
2080
2080
6180
4100
4100
C300
8200
FE00
7800
ENDCHAR
STARTCHAR 00D5
ENCODING 213
SWIDTH 462 0
DWIDTH 9 0
BBX 11 16 0 0
BITMAP
0320
0560
09C0
0F80
0FC0
10C0
30C0
2080
2080
6180
4100
4100
C300
8200
FE00
7800
ENDCHAR
STARTCHAR 00D6
ENCODING 214
SWIDTH 462 0
DWIDTH 9 0
BBX 10 16 0 0
BITMAP
0240
0640
0440
0F80
0FC0
10C0
30C0
2080
2080
6180
4100
4100
C300
8200
FE00
7800
ENDCHAR
STARTCHAR 00D7
ENCODING 215
SWIDTH 462 0
DWIDTH 9 0
BBX 10 7 0 3
BITMAP
20C0
3180
1A00
1C00
1C00
6600
C600
ENDCHAR
STARTCHAR 00D8
ENCODING 216
SWIDTH 462 0
DWIDTH 9 0
BBX 10 13 0 0
BITMAP
0F80
0FC0
1040
30C0
2180
2680
6D80
5900
6100
C300
8200
FE00
7800
ENDCHAR
STARTCHAR 00D9
ENCODING 217
SWIDTH 462 0
DWIDTH 9 0
BBX 10 16 0 0
BITMAP
0600
0300
0100
1000
1040
1040
30C0
2080
2080
6180
4100
4100
C300
8200
FE00
7800
ENDCHAR
STARTCHAR 00DA
ENCODING 218
SWIDTH 462 0
DWIDTH 9 0
BBX 11 16 0 0
BITMAP
0060
0180
0300
1000
1040
1040
30C0
2080
2080
6180
4100
4100
C300
8200
FE00
7800
ENDCHAR
STARTCHAR 00DB
ENCODING 219
SWIDTH 462 0
DWIDTH 9 0
BBX 10 16 0 0
BITMAP
0100
0380
07C0
1000
1040
1040
30C0
2080
2080
6180
4100
4100
C300
8200
FE00
7800
ENDCHAR
STARTCHAR 00DC
ENCODING 220
SWIDTH 462 0
DWIDTH 9 0
BBX 10 16 0 0
BITMAP
0240
0640
0440
1000
1040
1040
30C0
2080
2080
6180
4100
4100
C300
8200
FE00
7800
ENDCHAR
STARTCHAR 00DD
ENCODING 221
SWIDTH 462 0
DWIDTH 9 0
BBX 9 16 2 0
BITMAP
0180
0600
0C00
4100
4100
4300
4600
6400
2800
3000
2000
2000
6000
4000
4000
C000
ENDCHAR
STARTCHAR 00DE
ENCODING 222
SWIDTH 462 0
DWIDTH 9 0
BBX 10 13 -1 0
BITMAP
0800
0800
0800
1FC0
1040
10C0
30C0
2080
2180
7F00
4000
4000
C000
ENDCHAR
STARTCHAR 00DF
ENCODING 223
SWIDTH 462 0
DWIDTH 9 0
BBX 9 13 0 0
BITMAP
0F00
1F80
1080
3080
2100
3F00
7E00
4100
4100
C300
C200
FC00
3800
ENDCHAR
STARTCHAR 00E0
ENCODING 224
SWIDTH 462 0
DWIDTH 9 0
BBX 9 13 0 0
BITMAP
0C00
0600
0200
0000
3F00
0180
0180
3F00
4100
C300
8200
FE00
0E00
ENDCHAR
STARTCHAR 00E1
ENCODING 225
SWIDTH 462 0
DWIDTH 9 0
BBX 9 13 0 0
BITMAP
0080
0300
0400
0000
3F00
0180
0180
3F00
4100
C300
8200
FE00
0E00
ENDCHAR
STARTCHAR 00E2
ENCODING 226
SWIDTH 462 0
DWIDTH 9 0
BBX 9 13 0 0
BITMAP
0200
0700
0F80
0000
3F00
0180
0180
3F00
4100
C300
8200
FE00
0E00
ENDCHAR
STARTCHAR 00E3
ENCODING 227
SWIDTH 462 0
DWIDTH 9 0
BBX 10 13 0 0
BITMAP
0C40
0E40
1380
0000
3F00
0180
0180
3F00
4100
C300
8200
FE00
0E00
ENDCHAR
STARTCHAR 00E4
ENCODING 228
SWIDTH 462 0
DWIDTH 9 0
BBX 9 13 0 0
BITMAP
0C80
0880
0880
0000
3F00
0180
0180
3F00
4100
C300
8200
FE00
0E00
ENDCHAR
STARTCHAR 00E5
ENCODING 229
SWIDTH 462 0
DWIDTH 9 0
BBX 9 13 0 0
BITMAP
0400
0700
0D00
0200
3F00
0180
0180
3F00
4100
C300
8200
FE00
0E00
ENDCHAR
STARTCHAR 00E6
ENCODING 230
SWIDTH 462 0
DWIDTH 9 0
BBX 11 9 -1 0
BITMAP
1FC0
0660
0440
1E40
67C0
4C00
CC00
7F80
7F00
ENDCHAR
STARTCHAR 00E7
ENCODING 231
SWIDTH 462 0
DWIDTH 9 0
BBX 9 12 0 -3
BITMAP
1F00
3180
6000
4000
4000
8000
8200
FE00
7800
2000
4000
8000
ENDCHAR
STARTCHAR 00E8
ENCODING 232
SWIDTH 462 0
DWIDTH 9 0
BBX 9 13 0 0
BITMAP
0C00
0600
0200
0000
1F00
3180
4180
4100
7F00
C000
C000
FE00
7C00
ENDCHAR
STARTCHAR 00E9
ENCODING 233
SWIDTH 462 0
DWIDTH 9 0
BBX 9 13 0 0
BITMAP
0080
0300
0400
0000
1F00
3180
4180
4100
7F00
C000
C000
FE00
7C00
ENDCHAR
STARTCHAR 00EA
ENCODING 234
SWIDTH 462 0
DWIDTH 9 0
BBX 9 13 0 0
BITMAP
0200
0700
0F80
0000
1F00
3180
4180
4100
7F00
C000
C000
FE00
7C00
ENDCHAR
STARTCHAR 00EB
ENCODING 235
SWIDTH 462 0
DWIDTH 9 0
BBX 9 13 0 0
BITMAP
0C80
0880
0880
0000
1F00
3180
4180
4100
7F00
C000
C000
FE00
7C00
ENDCHAR
STARTCHAR 00EC
ENCODING 236
SWIDTH 462 0
DWIDTH 9 0
BBX 6 13 1 0
BITMAP
10
18
0C
00
18
08
18
10
10
30
20
F0
F0
ENDCHAR
STARTCHAR 00ED
ENCODING 237
SWIDTH 462 0
DWIDTH 9 0
BBX 8 13 1 0
BITMAP
01
06
08
00
18
08
18
10
10
30
20
F0
F0
ENDCHAR
STARTCHAR 00EE
ENCODING 238
SWIDTH 462 0
DWIDTH 9 0
BBX 8 13 1 0
BITMAP
04
0E
1F
00
18
08
18
10
10
30
20
F0
F0
ENDCHAR
STARTCHAR 00EF
ENCODING 239
SWIDTH 462 0
DWIDTH 9 0
BBX 8 13 1 0
BITMAP
19
11
11
00
18
08
18
10
10
30
20
F0
F0
ENDCHAR
STARTCHAR 00F0
ENCODING 240
SWIDTH 462 0
DWIDTH 9 0
BBX 9 12 0 0
BITMAP
0E00
1600
0200
1F00
3180
6180
4100
4100
8300
8200
FE00
7800
ENDCHAR
STARTCHAR 00F1
ENCODING 241
SWIDTH 462 0
DWIDTH 9 0
BBX 11 13 -1 0
BITMAP
0620
0720
09C0
0000
1F80
18C0
30C0
2080
2080
6180
4100
4100
C300
ENDCHAR
STARTCHAR 00F2
ENCODING 242
SWIDTH 462 0
DWIDTH 9 0
BBX 9 13 0 0
BITMAP
0C00
0600
0200
0000
1F00
3180
6180
4100
4100
8300
8200
FE00
7800
ENDCHAR
STARTCHAR 00F3
ENCODING 243
SWIDTH 462 0
DWIDTH 9 0
BBX 9 13 0 0
BITMAP
0080
0300
0400
0000
1F00
3180
6180
4100
4100
8300
8200
FE00
7800
ENDCHAR
STARTCHAR 00F4
ENCODING 244
SWIDTH 462 0
DWIDTH 9 0
BBX 9 13 0 0
BITMAP
0200
0700
0F80
0000
1F00
3180
6180
4100
4100
8300
8200
FE00
7800
ENDCHAR
STARTCHAR 00F5
ENCODING 245
SWIDTH 462 0
DWIDTH 9 0
BBX 10 13 0 0
BITMAP
0C40
0E40
1380
0000
1F00
3180
6180
4100
4100
8300
8200
FE00
7800
ENDCHAR
STARTCHAR 00F6
ENCODING 246
SWIDTH 462 0
DWIDTH 9 0
BBX 9 13 0 0
BITMAP
0C80
0880
0880
0000
1F00
3180
6180
4100
4100
8300
8200
FE00
7800
ENDCHAR
STARTCHAR 00F7
ENCODING 247
SWIDTH 462 0
DWIDTH 9 0
BBX 8 9 1 2
BITMAP
04
0C
08
00
FF
00
10
30
20
ENDCHAR
STARTCHAR 00F8
ENCODING 248
SWIDTH 462 0
DWIDTH 9 0
BBX 11 9 -1 0
BITMAP
0FE0
18C0
21C0
2280
2C80
7980
6100
FF00
3C00
ENDCHAR
STARTCHAR 00F9
ENCODING 249
SWIDTH 462 0
DWIDTH 9 0
BBX 9 13 0 0
BITMAP
0C00
0600
0200
0000
2080
2080
6180
4100
4100
8300
8200
FE00
7E00
ENDCHAR
STARTCHAR 00FA
ENCODING 250
SWIDTH 462 0
DWIDTH 9 0
BBX 9 13 0 0
BITMAP
0080
0300
0400
0000
2080
2080
6180
4100
4100
8300
8200
FE00
7E00
ENDCHAR
STARTCHAR 00FB
ENCODING 251
SWIDTH 462 0
DWIDTH 9 0
BBX 9 13 0 0
BITMAP
0200
0700
0F80
0000
2080
2080
6180
4100
4100
8300
8200
FE00
7E00
ENDCHAR
STARTCHAR 00FC
ENCODING 252
SWIDTH 462 0
DWIDTH 9 0
BBX 9 13 0 0
BITMAP
0C80
0880
0880
0000
2080
2080
6180
4100
4100
8300
8200
FE00
7E00
ENDCHAR
STARTCHAR 00FD
ENCODING 253
SWIDTH 462 0
DWIDTH 9 0
BBX 10 16 -1 -3
BITMAP
0040
0180
0200
0000
1040
1040
30C0
2080
2080
4180
4100
7F00
3F00
0200
FE00
F800
ENDCHAR
STARTCHAR 00FE
ENCODING 254
SWIDTH 462 0
DWIDTH 9 0
BBX 11 16 -2 -3
BITMAP
0400
0400
0400
0C00
0FC0
0860
1860
1040
1040
30C0
2080
3F80
7E00
4000
4000
8000
ENDCHAR
STARTCHAR 00FF
ENCODING 255
SWIDTH 462 0
DWIDTH 9 0
BBX 10 16 -1 -3
BITMAP
0640
0440
0440
0000
1040
1040
30C0
2080
2080
4180
4100
7F00
3F00
0200
FE00
F800
ENDCHAR
STARTCHAR 0100
ENCODING 256
SWIDTH 462 0
DWIDTH 9 0
BBX 11 15 -1 0
BITMAP
03E0
0000
07C0
07E0
0820
1860
1040
1040
20C0
3F80
2080
4180
4100
4100
C300
ENDCHAR
STARTCHAR 0101
ENCODING 257
SWIDTH 462 0
DWIDTH 9 0
BBX 9 11 0 0
BITMAP
0F80
0000
3F00
0180
0180
3F00
4100
C300
8200
FE00
0E00
ENDCHAR
STARTCHAR 0102
ENCODING 258
SWIDTH 462 0
DWIDTH 9 0
BBX 11 16 -1 0
BITMAP
0320
0120
01C0
07C0
07E0
0820
1860
1040
1040
20C0
3F80
2080
4180
4100
4100
C300
ENDCHAR
STARTCHAR 0103
ENCODING 259
SWIDTH 462 0
DWIDTH 9 0
BBX 9 13 0 0
BITMAP
0880
0880
0700
0000
3F00
0180
0180
3F00
4100
C300
8200
FE00
0E00
ENDCHAR
STARTCHAR 0104
ENCODING 260
SWIDTH 462 0
DWIDTH 9 0
BBX 11 16 -1 -3
BITMAP
07C0
07E0
0820
1860
1040
1040
20C0
3F80
2080
4180
4100
4100
C300
0C00
0E00
0C00
ENDCHAR
STARTCHAR 0105
ENCODING 261
SWIDTH 462 0
DWIDTH 9 0
BBX 9 12 0 -3
BITMAP
3F00
0180
0180
3F00
4100
C300
8200
FE00
3E00
1800
1C00
1800
ENDCHAR
STARTCHAR 0106
ENCODING 262
SWIDTH 462 0
DWIDTH 9 0
BBX 11 16 0 0
BITMAP
0060
0180
0300
0F80
0FC0
1040
3040
2000
2000
6000
4000
4000
8000
8200
FE00
7800
ENDCHAR
STARTCHAR 0107
ENCODING 263
SWIDTH 462 0
DWIDTH 9 0
BBX 9 13 0 0
BITMAP
0080
0300
0400
0000
1F00
3180
6000
4000
4000
8000
8200
FE00
7800
ENDCHAR
STARTCHAR 0108
ENCODING 264
SWIDTH 462 0
DWIDTH 9 0
BBX 10 16 0 0
BITMAP
0100
0380
07C0
0F80
0FC0
1040
3040
2000
2000
6000
4000
4000
8000
8200
FE00
7800
ENDCHAR
STARTCHAR 0109
ENCODING 265
SWIDTH 462 0
DWIDTH 9 0
BBX 9 13 0 0
BITMAP
0200
0700
0F80
0000
1F00
3180
6000
4000
4000
8000
8200
FE00
7800
ENDCHAR
STARTCHAR 010A
ENCODING 266
SWIDTH 462 0
DWIDTH 9 0
BBX 10 16 0 0
BITMAP
0180
0100
0100
0F80
0FC0
1040
3040
2000
2000
6000
4000
4000
8000
8200
FE00
7800
ENDCHAR
STARTCHAR 010B
ENCODING 267
SWIDTH 462 0
DWIDTH 9 0
BBX 9 13 0 0
BITMAP
0200
0200
0200
0000
1F00
3180
6000
4000
4000
8000
8200
FE00
7800
ENDCHAR
STARTCHAR 010C
ENCODING 268
SWIDTH 462 0
DWIDTH 9 0
BBX 10 15 0 0
BITMAP
03C0
0100
0F80
0FC0
1040
3040
2000
2000
6000
4000
4000
8000
8200
FE00
7800
ENDCHAR
STARTCHAR 010D
ENCODING 269
SWIDTH 462 0
DWIDTH 9 0
BBX 9 12 0 0
BITMAP
0780
0200
0000
1F00
3180
6000
4000
4000
8000
8200
FE00
7800
ENDCHAR
STARTCHAR 010E
ENCODING 270
SWIDTH 462 0
DWIDTH 9 0
BBX 11 15 -1 0
BITMAP
01E0
0080
0F80
0FC0
0840
1860
1040
1040
30C0
2080
2080
4100
4300
7E00
F800
ENDCHAR
STARTCHAR 010F
ENCODING 271
SWIDTH 462 0
DWIDTH 9 0
BBX 10 15 0 0
BITMAP
03C0
0100
0040
0040
0040
0040
1F80
3080
6180
4100
4100
8300
8200
FE00
7E00
ENDCHAR
STARTCHAR 0110
ENCODING 272
SWIDTH 462 0
DWIDTH 9 0
BBX 11 13 -1 0
BITMAP
0F80
0FC0
0840
1860
1040
1040
3CC0
2080
2080
4100
4300
7E00
F800
ENDCHAR
STARTCHAR 0111
ENCODING 273
SWIDTH 462 0
DWIDTH 9 0
BBX 11 13 0 0
BITMAP
0040
0060
03E0
0040
1F80
3080
6180
4100
4100
8300
8200
FE00
7E00
ENDCHAR
STARTCHAR 0112
ENCODING 274
SWIDTH 462 0
DWIDTH 9 0
BBX 11 15 -1 0
BITMAP
03E0
0000
0FE0
0FE0
0800
1800
1000
1000
3F00
2000
2000
4000
4000
7F00
FF00
ENDCHAR
STARTCHAR 0113
ENCODING 275
SWIDTH 462 0
DWIDTH 9 0
BBX 9 11 0 0
BITMAP
0F80
0000
1F00
3180
4180
4100
7F00
C000
C000
FE00
7C00
ENDCHAR
STARTCHAR 0114
ENCODING 276
SWIDTH 462 0
DWIDTH 9 0
BBX 11 16 -1 0
BITMAP
0320
0120
01C0
0FE0
0FE0
0800
1800
1000
1000
3F00
2000
2000
4000
4000
7F00
FF00
ENDCHAR
STARTCHAR 0115
ENCODING 277
SWIDTH 462 0
DWIDTH 9 0
BBX 9 13 0 0
BITMAP
0880
0880
0700
0000
1F00
3180
4180
4100
7F00
C000
C000
FE00
7C00
ENDCHAR
STARTCHAR 0116
ENCODING 278
SWIDTH 462 0
DWIDTH 9 0
BBX 11 16 -1 0
BITMAP
00C0
0080
0080
0FE0
0FE0
0800
1800
1000
1000
3F00
2000
2000
4000
4000
7F00
FF00
ENDCHAR
STARTCHAR 0117
ENCODING 279
SWIDTH 462 0
DWIDTH 9 0
BBX 9 13 0 0
BITMAP
0200
0200
0200
0000
1F00
3180
4180
4100
7F00
C000
C000
FE00
7C00
ENDCHAR
STARTCHAR 0118
ENCODING 280
SWIDTH 462 0
DWIDTH 9 0
BBX 11 16 -1 -3
BITMAP
0FE0
0FE0
0800
1800
1000
1000
3F00
2000
2000
4000
4000
7F00
FF00
0C00
0E00
0C00
ENDCHAR
STARTCHAR 0119
ENCODING 281
SWIDTH 462 0
DWIDTH 9 0
BBX 9 12 0 -3
BITMAP
1F00
3180
4180
4100
7F00
C000
C000
FE00
7800
6000
7000
7000
ENDCHAR
STARTCHAR 011A
ENCODING 282
SWIDTH 462 0
DWIDTH 9 0
BBX 11 15 -1 0
BITMAP
01E0
0080
0FE0
0FE0
0800
1800
1000
1000
3F00
2000
2000
4000
4000
7F00
FF00
ENDCHAR
STARTCHAR 011B
ENCODING 283
SWIDTH 462 0
DWIDTH 9 0
BBX 9 12 0 0
BITMAP
0780
0200
0000
1F00
3180
4180
4100
7F00
C000
C000
FE00
7C00
ENDCHAR
STARTCHAR 011C
ENCODING 284
SWIDTH 462 0
DWIDTH 9 0
BBX 10 16 0 0
BITMAP
0100
0380
07C0
0F80
0FC0
1040
3040
2000
2000
6780
4100
4100
8300
8200
FC00
7800
ENDCHAR
STARTCHAR 011D
ENCODING 285
SWIDTH 462 0
DWIDTH 9 0
BBX 10 16 -1 -3
BITMAP
0100
0380
07C0
0000
0FC0
1840
30C0
2080
2080
4180
4100
7F00
3F00
0200
FE00
F800
ENDCHAR
STARTCHAR 011E
ENCODING 286
SWIDTH 462 0
DWIDTH 9 0
BBX 10 16 0 0
BITMAP
0640
0240
0380
0F80
0FC0
1040
3040
2000
2000
6780
4100
4100
8300
8200
FC00
7800
ENDCHAR
STARTCHAR 011F
ENCODING 287
SWIDTH 462 0
DWIDTH 9 0
BBX 10 16 -1 -3
BITMAP
0440
0440
0380
0000
0FC0
1840
30C0
2080
2080
4180
4100
7F00
3F00
0200
FE00
F800
ENDCHAR
STARTCHAR 0120
ENCODING 288
SWIDTH 462 0
DWIDTH 9 0
BBX 10 16 0 0
BITMAP
0180
0100
0100
0F80
0FC0
1040
3040
2000
2000
6780
4100
4100
8300
8200
FC00
7800
ENDCHAR
STARTCHAR 0121
ENCODING 289
SWIDTH 462 0
DWIDTH 9 0
BBX 10 16 -1 -3
BITMAP
0080
0080
0180
0000
0FC0
1840
30C0
2080
2080
4180
4100
7F00
3F00
0200
FE00
F800
ENDCHAR
STARTCHAR 0122
ENCODING 290
SWIDTH 462 0
DWIDTH 9 0
BBX 10 16 0 -3
BITMAP
0F80
0FC0
1040
3040
2000
2000
6780
4100
4100
8300
8200
FC00
7800
2000
6000
C000
ENDCHAR
STARTCHAR 0123
ENCODING 291
SWIDTH 462 0
DWIDTH 9 0
BBX 10 16 -1 -3
BITMAP
0040
00C0
0180
0000
0FC0
1840
30C0
2080
2080
4180
4100
7F00
3F00
0200
FE00
F800
ENDCHAR
STARTCHAR 0124
ENCODING 292
SWIDTH 462 0
DWIDTH 9 0
BBX 11 16 -1 0
BITMAP
0080
01C0
03E0
0820
0820
0820
1860
1040
1040
3FC0
2080
2080
6180
4100
4100
C300
ENDCHAR
STARTCHAR 0125
ENCODING 293
SWIDTH 462 0
DWIDTH 9 0
BBX 11 16 -1 0
BITMAP
0080
01C0
03E0
0800
0800
0800
1800
1F80
18C0
30C0
2080
2080
6180
4100
4100
C300
ENDCHAR
STARTCHAR 0126
ENCODING 294
SWIDTH 462 0
DWIDTH 9 0
BBX 11 13 -1 0
BITMAP
0820
0820
1FE0
1FE0
1040
1040
3FC0
2080
2080
6180
4100
4100
C300
ENDCHAR
STARTCHAR 0127
ENCODING 295
SWIDTH 462 0
DWIDTH 9 0
BBX 10 12 -1 1
BITMAP
1800
3F00
1800
1F80
18C0
30C0
2080
2080
6180
4100
4100
C300
ENDCHAR
STARTCHAR 0128
ENCODING 296
SWIDTH 462 0
DWIDTH 9 0
BBX 10 16 1 0
BITMAP
0640
0AC0
1380
0F00
0E00
0400
0800
0800
0800
1800
1000
1000
3000
2000
F000
F000
ENDCHAR
STARTCHAR 0129
ENCODING 297
SWIDTH 462 0
DWIDTH 9 0
BBX 9 13 1 0
BITMAP
1880
1C80
2700
0000
1800
0800
1800
1000
1000
3000
2000
F000
F000
ENDCHAR
STARTCHAR 012A
ENCODING 298
SWIDTH 462 0
DWIDTH 9 0
BBX 9 15 1 0
BITMAP
0F80
0000
0F00
0E00
0400
0800
0800
0800
1800
1000
1000
3000
2000
F000
F000
ENDCHAR
STARTCHAR 012B
ENCODING 299
SWIDTH 462 0
DWIDTH 9 0
BBX 8 11 1 0
BITMAP
1F
00
18
08
18
10
10
30
20
F0
F0
ENDCHAR
STARTCHAR 012C
ENCODING 300
SWIDTH 462 0
DWIDTH 9 0
BBX 9 16 1 0
BITMAP
0C80
0480
0700
0F00
0E00
0400
0800
0800
0800
1800
1000
1000
3000
2000
F000
F000
ENDCHAR
STARTCHAR 012D
ENCODING 301
SWIDTH 462 0
DWIDTH 9 0
BBX 8 13 1 0
BITMAP
11
11
0E
00
18
08
18
10
10
30
20
F0
F0
ENDCHAR
STARTCHAR 012E
ENCODING 302
SWIDTH 462 0
DWIDTH 9 0
BBX 8 16 1 -3
BITMAP
0F
0E
04
0C
08
08
18
10
10
30
20
F0
E0
C0
E0
E0
ENDCHAR
STARTCHAR 012F
ENCODING 303
SWIDTH 462 0
DWIDTH 9 0
BBX 6 16 1 -3
BITMAP
04
04
04
00
18
08
18
10
10
30
20
F0
E0
C0
E0
E0
ENDCHAR
STARTCHAR 0130
ENCODING 304
SWIDTH 462 0
DWIDTH 9 0
BBX 8 16 1 0
BITMAP
03
02
02
0F
0E
04
08
08
08
18
10
10
30
20
F0
F0
ENDCHAR
STARTCHAR 0131
ENCODING 305
SWIDTH 462 0
DWIDTH 9 0
BBX 5 9 1 0
BITMAP
18
08
18
10
10
30
20
F0
F0
ENDCHAR
STARTCHAR 0132
ENCODING 306
SWIDTH 462 0
DWIDTH 9 0
BBX 13 13 -2 0
BITMAP
0C38
0C18
0810
0830
1820
1020
1060
3040
2040
24C0
6480
EF80
E200
ENDCHAR
STARTCHAR 0133
ENCODING 307
SWIDTH 462 0
DWIDTH 9 0
BBX 12 16 -1 -3
BITMAP
0810
0810
0830
0000
30E0
3060
2040
2040
20C0
6080
4080
C180
C100
1300
1E00
0800
ENDCHAR
STARTCHAR 0134
ENCODING 308
SWIDTH 462 0
DWIDTH 9 0
BBX 12 16 0 0
BITMAP
0020
0060
01F0
01E0
01E0
0080
0080
0180
0100
0100
0300
0200
C200
C600
FC00
3000
ENDCHAR
STARTCHAR 0135
ENCODING 309
SWIDTH 462 0
DWIDTH 9 0
BBX 11 16 0 -3
BITMAP
0040
01E0
03E0
0000
0380
0100
0100
0300
0200
0200
0600
0400
0400
8C00
F800
F000
ENDCHAR
STARTCHAR 0136
ENCODING 310
SWIDTH 462 0
DWIDTH 9 0
BBX 11 16 -1 -3
BITMAP
0820
0860
08C0
1980
1600
1C00
3000
3800
2C00
6400
4600
4300
C100
1000
3000
6000
ENDCHAR
STARTCHAR 0137
ENCODING 311
SWIDTH 462 0
DWIDTH 9 0
BBX 9 16 0 -3
BITMAP
0800
0800
1800
1000
1180
2300
2600
2800
7000
5800
4800
8C00
8600
2000
6000
C000
ENDCHAR
STARTCHAR 0138
ENCODING 312
SWIDTH 462 0
DWIDTH 9 0
BBX 9 9 0 0
BITMAP
1180
2300
2600
2800
7000
5800
4800
8C00
8600
ENDCHAR
STARTCHAR 0139
ENCODING 313
SWIDTH 462 0
DWIDTH 9 0
BBX 9 16 -1 0
BITMAP
0180
0300
0600
0800
0800
0800
1800
1000
1000
3000
2000
2000
6000
4000
7F00
FF00
ENDCHAR
STARTCHAR 013A
ENCODING 314
SWIDTH 462 0
DWIDTH 9 0
BBX 10 16 1 0
BITMAP
00C0
0300
0600
0C00
0C00
0400
0C00
0800
0800
1800
1000
1000
3000
2000
F000
F000
ENDCHAR
STARTCHAR 013B
ENCODING 315
SWIDTH 462 0
DWIDTH 9 0
BBX 8 16 -1 -3
BITMAP
08
08
08
18
10
10
30
20
20
60
40
7F
FF
10
30
60
ENDCHAR
STARTCHAR 013C
ENCODING 316
SWIDTH 462 0
DWIDTH 9 0
BBX 7 16 0 -3
BITMAP
06
06
02
06
04
04
0C
08
08
18
10
78
78
20
60
C0
ENDCHAR
STARTCHAR 013D
ENCODING 317
SWIDTH 462 0
DWIDTH 9 0
BBX 11 15 -1 0
BITMAP
01E0
0080
0800
0800
0800
1800
1000
1000
3000
2000
2000
6000
4000
7F00
FF00
ENDCHAR
STARTCHAR 013E
ENCODING 318
SWIDTH 462 0
DWIDTH 9 0
BBX 9 15 1 0
BITMAP
0780
0200
0C00
0C00
0400
0C00
0800
0800
1800
1000
1000
3000
2000
F000
F000
ENDCHAR
STARTCHAR 013F
ENCODING 319
SWIDTH 462 0
DWIDTH 9 0
BBX 9 13 -1 0
BITMAP
0800
0800
0800
1800
1000
1080
3100
2100
2000
6000
4000
7F00
FF00
ENDCHAR
STARTCHAR 0140
ENCODING 320
SWIDTH 462 0
DWIDTH 9 0
BBX 9 13 1 0
BITMAP
0C00
0C00
0400
0C00
0800
0880
1880
1080
1000
3000
2000
F000
F000
ENDCHAR
STARTCHAR 0141
ENCODING 321
SWIDTH 462 0
DWIDTH 9 0
BBX 8 13 -1 0
BITMAP
08
08
08
18
10
14
38
70
20
60
40
7F
FF
ENDCHAR
STARTCHAR 0142
ENCODING 322
SWIDTH 462 0
DWIDTH 9 0
BBX 6 13 1 0
BITMAP
0C
0C
04
0C
08
0C
18
30
50
30
20
F0
F0
ENDCHAR
STARTCHAR 0143
ENCODING 323
SWIDTH 462 0
DWIDTH 9 0
BBX 12 16 -1 0
BITMAP
0030
00C0
0180
0800
0820
0820
1860
1C40
1C40
36C0
2380
2380
6180
4100
4100
C300
ENDCHAR
STARTCHAR 0144
ENCODING 324
SWIDTH 462 0
DWIDTH 9 0
BBX 10 13 -1 0
BITMAP
0040
0180
0200
0000
1F80
18C0
30C0
2080
2080
6180
4100
4100
C300
ENDCHAR
STARTCHAR 0145
ENCODING 325
SWIDTH 462 0
DWIDTH 9 0
BBX 11 16 -1 -3
BITMAP
0800
0820
0820
1860
1C40
1C40
36C0
2380
2380
6180
4100
4100
C300
1000
3000
6000
ENDCHAR
STARTCHAR 0146
ENCODING 326
SWIDTH 462 0
DWIDTH 9 0
BBX 10 12 -1 -3
BITMAP
1F80
18C0
30C0
2080
2080
6180
4100
4100
C300
1000
3000
6000
ENDCHAR
STARTCHAR 0147
ENCODING 327
SWIDTH 462 0
DWIDTH 9 0
BBX 11 15 -1 0
BITMAP
01E0
0080
0800
0820
0820
1860
1C40
1C40
36C0
2380
2380
6180
4100
4100
C300
ENDCHAR
STARTCHAR 0148
ENCODING 328
SWIDTH 462 0
DWIDTH 9 0
BBX 10 12 -1 0
BITMAP
03C0
0100
0000
1F80
18C0
30C0
2080
2080
6180
4100
4100
C300
ENDCHAR
STARTCHAR 0149
ENCODING 329
SWIDTH 462 0
DWIDTH 9 0
BBX 10 14 -1 0
BITMAP
0400
0C00
0800
1000
0000
1F80
18C0
30C0
2080
2080
6180
4100
4100
C300
ENDCHAR
STARTCHAR 014A
ENCODING 330
SWIDTH 462 0
DWIDTH 9 0
BBX 11 16 -1 -3
BITMAP
0800
0820
0820
1860
1C40
1C40
36C0
2380
2380
6180
4100
4100
C300
0200
0E00
1800
ENDCHAR
STARTCHAR 014B
ENCODING 331
SWIDTH 462 0
DWIDTH 9 0
BBX 10 12 -1 -3
BITMAP
1F80
18C0
30C0
2080
2080
6180
4100
4100
C300
0200
0E00
1800
ENDCHAR
STARTCHAR 014C
ENCODING 332
SWIDTH 462 0
DWIDTH 9 0
BBX 10 15 0 0
BITMAP
07C0
0000
0F80
0FC0
10C0
30C0
2080
2080
6180
4100
4100
C300
8200
FE00
7800
ENDCHAR
STARTCHAR 014D
ENCODING 333
SWIDTH 462 0
DWIDTH 9 0
BBX 9 11 0 0
BITMAP
0F80
0000
1F00
3180
6180
4100
4100
8300
8200
FE00
7800
ENDCHAR
STARTCHAR 014E
ENCODING 334
SWIDTH 462 0
DWIDTH 9 0
BBX 10 16 0 0
BITMAP
0640
0240
0380
0F80
0FC0
10C0
30C0
2080
2080
6180
4100
4100
C300
8200
FE00
7800
ENDCHAR
STARTCHAR 014F
ENCODING 335
SWIDTH 462 0
DWIDTH 9 0
BBX 9 13 0 0
BITMAP
0880
0880
0700
0000
1F00
3180
6180
4100
4100
8300
8200
FE00
7800
ENDCHAR
STARTCHAR 0150
ENCODING 336
SWIDTH 462 0
DWIDTH 9 0
BBX 12 16 0 0
BITMAP
0190
0360
06C0
0F80
0FC0
10C0
30C0
2080
2080
6180
4100
4100
C300
8200
FE00
7800
ENDCHAR
STARTCHAR 0151
ENCODING 337
SWIDTH 462 0
DWIDTH 9 0
BBX 11 13 0 0
BITMAP
0360
06C0
0F80
0000
1F00
3180
6180
4100
4100
8300
8200
FE00
7800
ENDCHAR
STARTCHAR 0152
ENCODING 338
SWIDTH 462 0
DWIDTH 9 0
BBX 13 13 -1 0
BITMAP
07F8
0FF8
1180
1100
3100
2300
23C0
6200
4600
4400
C400
7F80
7F80
ENDCHAR
STARTCHAR 0153
ENCODING 339
SWIDTH 462 0
DWIDTH 9 0
BBX 11 9 -1 0
BITMAP
1FC0
3260
2440
6440
47C0
4C00
C800
7F80
7F00
ENDCHAR
STARTCHAR 0154
ENCODING 340
SWIDTH 462 0
DWIDTH 9 0
BBX 12 16 -1 0
BITMAP
0030
00C0
0180
0FC0
0FE0
0820
1860
1040
1040
2180
3F00
2C00
6400
4600
4300
C100
ENDCHAR
STARTCHAR 0155
ENCODING 341
SWIDTH 462 0
DWIDTH 9 0
BBX 10 13 -1 0
BITMAP
0040
0180
0200
0000
17C0
1C00
3800
2000
2000
6000
4000
4000
C000
ENDCHAR
STARTCHAR 0156
ENCODING 342
SWIDTH 462 0
DWIDTH 9 0
BBX 11 16 -1 -3
BITMAP
0FC0
0FE0
0820
1860
1040
1040
2180
3F00
2C00
6400
4600
4300
C100
1000
3000
6000
ENDCHAR
STARTCHAR 0157
ENCODING 343
SWIDTH 462 0
DWIDTH 9 0
BBX 12 12 -3 -3
BITMAP
04F0
0500
0E00
0800
0800
1800
1000
1000
3000
2000
6000
C000
ENDCHAR
STARTCHAR 0158
ENCODING 344
SWIDTH 462 0
DWIDTH 9 0
BBX 11 15 -1 0
BITMAP
01E0
0080
0FC0
0FE0
0820
1860
1040
1040
2180
3F00
2C00
6400
4600
4300
C100
ENDCHAR
STARTCHAR 0159
ENCODING 345
SWIDTH 462 0
DWIDTH 9 0
BBX 10 12 -1 0
BITMAP
03C0
0100
0000
17C0
1C00
3800
2000
2000
6000
4000
4000
C000
ENDCHAR
STARTCHAR 015A
ENCODING 346
SWIDTH 462 0
DWIDTH 9 0
BBX 11 16 0 0
BITMAP
0060
0180
0300
0F80
1FC0
1040
3040
2000
2000
3F00
0100
0100
0300
8200
FE00
3800
ENDCHAR
STARTCHAR 015B
ENCODING 347
SWIDTH 462 0
DWIDTH 9 0
BBX 9 13 0 0
BITMAP
0080
0300
0400
0000
1F00
3380
4000
6000
7E00
0300
0200
FE00
3800
ENDCHAR
STARTCHAR 015C
ENCODING 348
SWIDTH 462 0
DWIDTH 9 0
BBX 10 16 0 0
BITMAP
0100
0380
07C0
0F80
1FC0
1040
3040
2000
2000
3F00
0100
0100
0300
8200
FE00
3800
ENDCHAR
STARTCHAR 015D
ENCODING 349
SWIDTH 462 0
DWIDTH 9 0
BBX 9 13 0 0
BITMAP
0200
0700
0F80
0000
1F00
3380
4000
6000
7E00
0300
0200
FE00
3800
ENDCHAR
STARTCHAR 015E
ENCODING 350
SWIDTH 462 0
DWIDTH 9 0
BBX 10 16 0 -3
BITMAP
0F80
1FC0
1040
3040
2000
2000
3F00
0100
0100
0300
8200
FE00
7800
2000
4000
8000
ENDCHAR
STARTCHAR 015F
ENCODING 351
SWIDTH 462 0
DWIDTH 9 0
BBX 9 12 0 -3
BITMAP
1F00
3380
4000
6000
7E00
0300
0200
FE00
7800
2000
4000
8000
ENDCHAR
STARTCHAR 0160
ENCODING 352
SWIDTH 462 0
DWIDTH 9 0
BBX 10 15 0 0
BITMAP
03C0
0100
0F80
1FC0
1040
3040
2000
2000
3F00
0100
0100
0300
8200
FE00
3800
ENDCHAR
STARTCHAR 0161
ENCODING 353
SWIDTH 462 0
DWIDTH 9 0
BBX 9 12 0 0
BITMAP
0780
0200
0000
1F00
3380
4000
6000
7E00
0300
0200
FE00
3800
ENDCHAR
STARTCHAR 0162
ENCODING 354
SWIDTH 462 0
DWIDTH 9 0
BBX 9 16 1 -3
BITMAP
3F80
3F80
0400
0C00
0800
0800
1800
1000
1000
3000
2000
2000
2000
2000
4000
8000
ENDCHAR
STARTCHAR 0163
ENCODING 355
SWIDTH 462 0
DWIDTH 9 0
BBX 6 16 2 -3
BITMAP
08
18
10
10
FC
30
20
60
40
40
C0
F8
30
20
40
80
ENDCHAR
STARTCHAR 0164
ENCODING 356
SWIDTH 462 0
DWIDTH 9 0
BBX 7 14 3 0
BITMAP
1E
08
FE
FE
10
30
20
20
60
40
40
C0
80
80
ENDCHAR
STARTCHAR 0165
ENCODING 357
SWIDTH 462 0
DWIDTH 9 0
BBX 7 15 2 0
BITMAP
1E
08
08
18
10
10
FC
30
20
60
40
40
C0
78
78
ENDCHAR
STARTCHAR 0166
ENCODING 358
SWIDTH 462 0
DWIDTH 9 0
BBX 8 13 2 0
BITMAP
7F
7F
08
18
10
10
F8
20
20
60
40
40
C0
ENDCHAR
STARTCHAR 0167
ENCODING 359
SWIDTH 462 0
DWIDTH 9 0
BBX 6 13 2 0
BITMAP
08
18
10
10
FC
20
60
70
40
40
40
78
18
ENDCHAR
STARTCHAR 0168
ENCODING 360
SWIDTH 462 0
DWIDTH 9 0
BBX 11 16 0 0
BITMAP
0320
0560
09C0
1000
1040
1040
30C0
2080
2080
6180
4100
4100
C300
8200
FE00
7800
ENDCHAR
STARTCHAR 0169
ENCODING 361
SWIDTH 462 0
DWIDTH 9 0
BBX 10 13 0 0
BITMAP
0C40
0E40
1380
0000
2080
2080
6180
4100
4100
8300
8200
FE00
7E00
ENDCHAR
STARTCHAR 016A
ENCODING 362
SWIDTH 462 0
DWIDTH 9 0
BBX 10 15 0 0
BITMAP
07C0
0000
1000
1040
1040
30C0
2080
2080
6180
4100
4100
C300
8200
FE00
7800
ENDCHAR
STARTCHAR 016B
ENCODING 363
SWIDTH 462 0
DWIDTH 9 0
BBX 9 11 0 0
BITMAP
0F80
0000
2080
2080
6180
4100
4100
8300
8200
FE00
7E00
ENDCHAR
STARTCHAR 016C
ENCODING 364
SWIDTH 462 0
DWIDTH 9 0
BBX 10 16 0 0
BITMAP
0640
0240
0380
1000
1040
1040
30C0
2080
2080
6180
4100
4100
C300
8200
FE00
7800
ENDCHAR
STARTCHAR 016D
ENCODING 365
SWIDTH 462 0
DWIDTH 9 0
BBX 9 13 0 0
BITMAP
0880
0880
0700
0000
2080
2080
6180
4100
4100
8300
8200
FE00
7E00
ENDCHAR
STARTCHAR 016E
ENCODING 366
SWIDTH 462 0
DWIDTH 9 0
BBX 10 16 0 0
BITMAP
0180
0280
0280
1100
1040
1040
30C0
2080
2080
6180
4100
4100
C300
8200
FE00
7800
ENDCHAR
STARTCHAR 016F
ENCODING 367
SWIDTH 462 0
DWIDTH 9 0
BBX 9 13 0 0
BITMAP
0400
0700
0D00
0200
2080
2080
6180
4100
4100
8300
8200
FE00
7E00
ENDCHAR
STARTCHAR 0170
ENCODING 368
SWIDTH 462 0
DWIDTH 9 0
BBX 12 16 0 0
BITMAP
0190
0360
06C0
1000
1040
1040
30C0
2080
2080
6180
4100
4100
C300
8200
FE00
7800
ENDCHAR
STARTCHAR 0171
ENCODING 369
SWIDTH 462 0
DWIDTH 9 0
BBX 11 13 0 0
BITMAP
0360
06C0
0F80
0000
2080
2080
6180
4100
4100
8300
8200
FE00
7E00
ENDCHAR
STARTCHAR 0172
ENCODING 370
SWIDTH 462 0
DWIDTH 9 0
BBX 10 16 0 -3
BITMAP
1000
1040
1040
30C0
2080
2080
6180
4100
4100
C300
8200
FE00
7800
6000
7000
7000
ENDCHAR
STARTCHAR 0173
ENCODING 371
SWIDTH 462 0
DWIDTH 9 0
BBX 9 12 0 -3
BITMAP
2080
2080
6180
4100
4100
8300
8200
FE00
7E00
1800
1C00
1800
ENDCHAR
STARTCHAR 0174
ENCODING 372
SWIDTH 462 0
DWIDTH 9 0
BBX 11 16 -1 0
BITMAP
0080
01C0
03E0
0820
1820
1020
1060
3040
2040
20C0
6480
4C80
5380
E300
C300
8100
ENDCHAR
STARTCHAR 0175
ENCODING 373
SWIDTH 462 0
DWIDTH 9 0
BBX 9 13 0 0
BITMAP
0200
0700
0F80
0000
2080
2080
6180
4900
4900
9B00
9200
FE00
7800
ENDCHAR
STARTCHAR 0176
ENCODING 374
SWIDTH 462 0
DWIDTH 9 0
BBX 8 16 2 0
BITMAP
04
0E
1F
41
41
43
46
64
28
30
20
20
60
40
40
C0
ENDCHAR
STARTCHAR 0177
ENCODING 375
SWIDTH 462 0
DWIDTH 9 0
BBX 10 16 -1 -3
BITMAP
0100
0380
07C0
0000
1040
1040
30C0
2080
2080
4180
4100
7F00
3F00
0200
FE00
F800
ENDCHAR
STARTCHAR 0178
ENCODING 376
SWIDTH 462 0
DWIDTH 9 0
BBX 8 16 2 0
BITMAP
09
19
11
41
41
43
46
64
28
30
20
20
60
40
40
C0
ENDCHAR
STARTCHAR 0179
ENCODING 377
SWIDTH 462 0
DWIDTH 9 0
BBX 12 16 -1 0
BITMAP
0030
00C0
0180
0FE0
0FE0
0020
0060
00C0
0300
0600
0800
3000
6000
4000
7F00
FF00
ENDCHAR
STARTCHAR 017A
ENCODING 378
SWIDTH 462 0
DWIDTH 9 0
BBX 10 13 -1 0
BITMAP
0040
0180
0200
0000
1FC0
00C0
0180
0200
0C00
1800
2000
FF00
FF00
ENDCHAR
STARTCHAR 017B
ENCODING 379
SWIDTH 462 0
DWIDTH 9 0
BBX 11 16 -1 0
BITMAP
00C0
0080
0080
0FE0
0FE0
0020
0060
00C0
0300
0600
0800
3000
6000
4000
7F00
FF00
ENDCHAR
STARTCHAR 017C
ENCODING 380
SWIDTH 462 0
DWIDTH 9 0
BBX 10 13 -1 0
BITMAP
0100
0100
0100
0000
1FC0
00C0
0180
0200
0C00
1800
2000
FF00
FF00
ENDCHAR
STARTCHAR 017D
ENCODING 381
SWIDTH 462 0
DWIDTH 9 0
BBX 11 15 -1 0
BITMAP
01E0
0080
0FE0
0FE0
0020
0060
00C0
0300
0600
0800
3000
6000
4000
7F00
FF00
ENDCHAR
STARTCHAR 017E
ENCODING 382
SWIDTH 462 0
DWIDTH 9 0
BBX 10 12 -1 0
BITMAP
03C0
0100
0000
1FC0
00C0
0180
0200
0C00
1800
2000
FF00
FF00
ENDCHAR
STARTCHAR 017F
ENCODING 383
SWIDTH 462 0
DWIDTH 9 0
BBX 8 13 2 0
BITMAP
07
0F
10
10
30
20
20
60
40
40
C0
80
80
ENDCHAR
STARTCHAR 0186
ENCODING 390
SWIDTH 462 0
DWIDTH 9 0
BBX 10 13 0 0
BITMAP
0F80
1FC0
10C0
00C0
0080
0080
0180
0100
0100
0300
8200
FE00
1800
ENDCHAR
STARTCHAR 018E
ENCODING 398
SWIDTH 462 0
DWIDTH 9 0
BBX 11 13 -1 0
BITMAP
0FE0
0FE0
0020
0060
0040
0040
0FC0
0080
0080
0180
0100
FF00
FF00
ENDCHAR
STARTCHAR 018F
ENCODING 399
SWIDTH 462 0
DWIDTH 9 0
BBX 10 13 0 0
BITMAP
0F80
1FC0
1040
00C0
0080
0080
7F80
4100
4100
8300
8200
FE00
7800
ENDCHAR
STARTCHAR 0190
ENCODING 400
SWIDTH 462 0
DWIDTH 9 0
BBX 10 13 0 0
BITMAP
0F80
1FC0
1040
3040
2000
2000
3E00
6000
4000
C000
C200
FE00
3800
ENDCHAR
STARTCHAR 0192
ENCODING 402
SWIDTH 462 0
DWIDTH 9 0
BBX 11 15 -1 -2
BITMAP
0080
01E0
0120
0300
0200
0700
0E00
0400
0400
0C00
0800
0800
1800
9000
F000
ENDCHAR
STARTCHAR 019D
ENCODING 413
SWIDTH 462 0
DWIDTH 9 0
BBX 12 15 -2 -3
BITMAP
0400
0410
0410
0C30
0E20
0E20
1B60
11C0
11C0
20C0
2080
2080
6180
4000
C000
ENDCHAR
STARTCHAR 019E
ENCODING 414
SWIDTH 462 0
DWIDTH 9 0
BBX 10 12 -1 -3
BITMAP
1F80
18C0
30C0
2080
2080
6180
4100
4100
C300
0200
0200
0400
ENDCHAR
STARTCHAR 01B5
ENCODING 437
SWIDTH 462 0
DWIDTH 9 0
BBX 11 13 -1 0
BITMAP
0FE0
0FE0
0020
0060
00C0
0100
3FC0
0C00
1800
2000
4000
7F00
FF00
ENDCHAR
STARTCHAR 01B6
ENCODING 438
SWIDTH 462 0
DWIDTH 9 0
BBX 10 9 -1 0
BITMAP
1FC0
00C0
0300
0600
3F00
1800
3000
FF00
FF00
ENDCHAR
STARTCHAR 01B7
ENCODING 439
SWIDTH 462 0
DWIDTH 9 0
BBX 10 13 0 0
BITMAP
1FC0
1FC0
00C0
0300
0600
0F00
1700
0100
0100
0300
8200
FE00
3800
ENDCHAR
STARTCHAR 01CD
ENCODING 461
SWIDTH 462 0
DWIDTH 9 0
BBX 11 15 -1 0
BITMAP
01E0
0080
07C0
07E0
0820
1860
1040
1040
20C0
3F80
2080
4180
4100
4100
C300
ENDCHAR
STARTCHAR 01CE
ENCODING 462
SWIDTH 462 0
DWIDTH 9 0
BBX 9 12 0 0
BITMAP
0780
0200
0000
3F00
0180
0180
3F00
4100
C300
8200
FE00
0E00
ENDCHAR
STARTCHAR 01CF
ENCODING 463
SWIDTH 462 0
DWIDTH 9 0
BBX 9 15 1 0
BITMAP
0780
0200
0F00
0E00
0400
0800
0800
0800
1800
1000
1000
3000
2000
F000
F000
ENDCHAR
STARTCHAR 01D0
ENCODING 464
SWIDTH 462 0
DWIDTH 9 0
BBX 8 12 1 0
BITMAP
0F
04
00
18
08
18
10
10
30
20
F0
F0
ENDCHAR
STARTCHAR 01D1
ENCODING 465
SWIDTH 462 0
DWIDTH 9 0
BBX 10 15 0 0
BITMAP
03C0
0100
0F80
0FC0
10C0
30C0
2080
2080
6180
4100
4100
C300
8200
FE00
7800
ENDCHAR
STARTCHAR 01D2
ENCODING 466
SWIDTH 462 0
DWIDTH 9 0
BBX 9 12 0 0
BITMAP
0780
0200
0000
1F00
3180
6180
4100
4100
8300
8200
FE00
7800
ENDCHAR
STARTCHAR 01D3
ENCODING 467
SWIDTH 462 0
DWIDTH 9 0
BBX 10 15 0 0
BITMAP
03C0
0100
1000
1040
1040
30C0
2080
2080
6180
4100
4100
C300
8200
FE00
7800
ENDCHAR
STARTCHAR 01D4
ENCODING 468
SWIDTH 462 0
DWIDTH 9 0
BBX 9 12 0 0
BITMAP
0780
0200
0000
2080
2080
6180
4100
4100
8300
8200
FE00
7E00
ENDCHAR
STARTCHAR 01E2
ENCODING 482
SWIDTH 462 0
DWIDTH 9 0
BBX 13 15 -1 0
BITMAP
03F0
0000
07F8
0FF8
1180
1100
3100
2300
3FC0
6200
4600
4400
C400
8F80
8F80
ENDCHAR
STARTCHAR 01E3
ENCODING 483
SWIDTH 462 0
DWIDTH 9 0
BBX 11 11 -1 0
BITMAP
0FC0
0000
1FC0
0660
0440
1E40
67C0
4C00
CC00
7F80
7F00
ENDCHAR
STARTCHAR 01E4
ENCODING 484
SWIDTH 462 0
DWIDTH 9 0
BBX 10 13 0 0
BITMAP
0F80
0FC0
1040
3040
2000
2000
6700
4100
4F80
CF80
8200
FE00
7800
ENDCHAR
STARTCHAR 01E5
ENCODING 485
SWIDTH 462 0
DWIDTH 9 0
BBX 10 12 -1 -3
BITMAP
0FC0
1840
30C0
20C0
27C0
4180
4100
7F00
3F00
0200
FE00
F800
ENDCHAR
STARTCHAR 01E6
ENCODING 486
SWIDTH 462 0
DWIDTH 9 0
BBX 10 15 0 0
BITMAP
03C0
0100
0F80
0FC0
1040
3040
2000
2000
6780
4100
4100
8300
8200
FC00
7800
ENDCHAR
STARTCHAR 01E7
ENCODING 487
SWIDTH 462 0
DWIDTH 9 0
BBX 10 15 -1 -3
BITMAP
03C0
0100
0000
0FC0
1840
30C0
2080
2080
4180
4100
7F00
3F00
0200
FE00
F800
ENDCHAR
STARTCHAR 01E8
ENCODING 488
SWIDTH 462 0
DWIDTH 9 0
BBX 11 15 -1 0
BITMAP
01E0
0080
0820
0860
08C0
1980
1600
1C00
3000
3800
2C00
6400
4600
4300
C100
ENDCHAR
STARTCHAR 01E9
ENCODING 489
SWIDTH 462 0
DWIDTH 9 0
BBX 10 15 0 0
BITMAP
03C0
0100
0800
0800
1800
1000
1180
2300
2600
2800
7000
5800
4800
8C00
8600
ENDCHAR
STARTCHAR 01EA
ENCODING 490
SWIDTH 462 0
DWIDTH 9 0
BBX 10 16 0 -3
BITMAP
0F80
0FC0
10C0
30C0
2080
2080
6180
4100
4100
C300
8200
FE00
7800
6000
7000
7000
ENDCHAR
STARTCHAR 01EB
ENCODING 491
SWIDTH 462 0
DWIDTH 9 0
BBX 9 12 0 -3
BITMAP
1F00
3180
6180
4100
4100
8300
8200
FE00
7800
6000
7000
7000
ENDCHAR
STARTCHAR 01EC
ENCODING 492
SWIDTH 462 0
DWIDTH 9 0
BBX 10 18 0 -3
BITMAP
07C0
0000
0F80
0FC0
10C0
30C0
2080
2080
6180
4100
4100
C300
8200
FE00
7800
6000
7000
7000
ENDCHAR
STARTCHAR 01ED
ENCODING 493
SWIDTH 462 0
DWIDTH 9 0
BBX 9 14 0 -3
BITMAP
0F80
0000
1F00
3180
6180
4100
4100
8300
8200
FE00
7800
6000
7000
7000
ENDCHAR
STARTCHAR 01EE
ENCODING 494
SWIDTH 462 0
DWIDTH 9 0
BBX 10 15 0 0
BITMAP
03C0
0100
1FC0
1FC0
00C0
0300
0600
0F00
1700
0100
0100
0300
8200
FE00
3800
ENDCHAR
STARTCHAR 01EF
ENCODING 495
SWIDTH 462 0
DWIDTH 9 0
BBX 10 15 -1 -3
BITMAP
03C0
0100
0000
1FC0
00C0
0180
0200
0C00
1F00
0100
0100
0300
8200
FE00
F800
ENDCHAR
STARTCHAR 01F0
ENCODING 496
SWIDTH 462 0
DWIDTH 9 0
BBX 11 15 0 -3
BITMAP
01E0
0080
0000
0380
0100
0100
0300
0200
0200
0600
0400
0400
8C00
F800
F000
ENDCHAR
STARTCHAR 01F4
ENCODING 500
SWIDTH 462 0
DWIDTH 9 0
BBX 11 16 0 0
BITMAP
0060
0180
0300
0F80
0FC0
1040
3040
2000
2000
6780
4100
4100
8300
8200
FC00
7800
ENDCHAR
STARTCHAR 01F5
ENCODING 501
SWIDTH 462 0
DWIDTH 9 0
BBX 11 16 -1 -3
BITMAP
0060
00C0
0100
0000
0FC0
1840
30C0
2080
2080
4180
4100
7F00
3F00
0200
FE00
F800
ENDCHAR
STARTCHAR 01FC
ENCODING 508
SWIDTH 462 0
DWIDTH 9 0
BBX 13 16 -1 0
BITMAP
0030
0060
00C0
07F8
0FF8
1180
1100
3100
2300
3FC0
6200
4600
4400
C400
8F80
8F80
ENDCHAR
STARTCHAR 01FD
ENCODING 509
SWIDTH 462 0
DWIDTH 9 0
BBX 11 13 -1 0
BITMAP
0040
0180
0200
0000
1FC0
0660
0440
1E40
67C0
4C00
CC00
7F80
7F00
ENDCHAR
STARTCHAR 01FE
ENCODING 510
SWIDTH 462 0
DWIDTH 9 0
BBX 11 16 0 0
BITMAP
0060
0180
0300
0F80
0FC0
1040
30C0
2180
2680
6D80
5900
6100
C300
8200
FE00
7800
ENDCHAR
STARTCHAR 01FF
ENCODING 511
SWIDTH 462 0
DWIDTH 9 0
BBX 11 13 -1 0
BITMAP
0040
0180
0200
0000
0FE0
18C0
21C0
2280
2C80
7980
6100
FF00
3C00
ENDCHAR
STARTCHAR 0218
ENCODING 536
SWIDTH 462 0
DWIDTH 9 0
BBX 10 16 0 -3
BITMAP
0F80
1FC0
1040
3040
2000
2000
3F00
0100
0100
0300
8200
FE00
3800
2000
6000
C000
ENDCHAR
STARTCHAR 0219
ENCODING 537
SWIDTH 462 0
DWIDTH 9 0
BBX 9 12 0 -3
BITMAP
1F00
3380
4000
6000
7E00
0300
0200
FE00
3800
2000
6000
C000
ENDCHAR
STARTCHAR 021A
ENCODING 538
SWIDTH 462 0
DWIDTH 9 0
BBX 10 16 0 -3
BITMAP
1FC0
1FC0
0200
0600
0400
0400
0C00
0800
0800
1800
1000
1000
0000
2000
6000
C000
ENDCHAR
STARTCHAR 021B
ENCODING 539
SWIDTH 462 0
DWIDTH 9 0
BBX 6 16 2 -3
BITMAP
08
18
10
10
FC
30
20
60
40
40
C0
78
78
20
60
C0
ENDCHAR
STARTCHAR 0232
ENCODING 562
SWIDTH 462 0
DWIDTH 9 0
BBX 8 15 2 0
BITMAP
1F
00
41
41
43
46
64
28
30
20
20
60
40
40
C0
ENDCHAR
STARTCHAR 0233
ENCODING 563
SWIDTH 462 0
DWIDTH 9 0
BBX 10 14 -1 -3
BITMAP
07C0
0000
1040
1040
30C0
2080
2080
4180
4100
7F00
3F00
0200
FE00
F800
ENDCHAR
STARTCHAR 0237
ENCODING 567
SWIDTH 462 0
DWIDTH 9 0
BBX 9 12 0 -3
BITMAP
0380
0100
0100
0300
0200
0200
0600
0400
0400
8C00
F800
F000
ENDCHAR
STARTCHAR 0254
ENCODING 596
SWIDTH 462 0
DWIDTH 9 0
BBX 9 9 0 0
BITMAP
1F00
3980
0180
0100
0100
0300
8200
FE00
7800
ENDCHAR
STARTCHAR 0258
ENCODING 600
SWIDTH 462 0
DWIDTH 9 0
BBX 9 9 0 0
BITMAP
1F00
3180
4180
4100
7F00
0300
0200
FE00
1800
ENDCHAR
STARTCHAR 0259
ENCODING 601
SWIDTH 462 0
DWIDTH 9 0
BBX 9 9 0 0
BITMAP
3F00
3180
0180
0100
7F00
C300
8200
FE00
7800
ENDCHAR
STARTCHAR 025B
ENCODING 603
SWIDTH 462 0
DWIDTH 9 0
BBX 9 9 0 0
BITMAP
1F00
3180
4000
6000
7800
4000
8200
FE00
7800
ENDCHAR
STARTCHAR 0272
ENCODING 626
SWIDTH 462 0
DWIDTH 9 0
BBX 12 12 -3 -3
BITMAP
07E0
0630
0C30
0820
0820
1860
1040
1040
30C0
2000
6000
8000
ENDCHAR
STARTCHAR 0292
ENCODING 658
SWIDTH 462 0
DWIDTH 9 0
BBX 10 12 -1 -3
BITMAP
1FC0
00C0
0180
0200
0C00
1F00
0100
0100
0300
8200
FE00
F800
ENDCHAR
STARTCHAR 02BB
ENCODING 699
SWIDTH 462 0
DWIDTH 9 0
BBX 3 3 7 13
BITMAP
20
C0
80
ENDCHAR
STARTCHAR 02BC
ENCODING 700
SWIDTH 462 0
DWIDTH 9 0
BBX 3 3 6 12
BITMAP
20
40
80
ENDCHAR
STARTCHAR 02BD
ENCODING 701
SWIDTH 462 0
DWIDTH 9 0
BBX 2 3 7 13
BITMAP
80
C0
C0
ENDCHAR
STARTCHAR 02C6
ENCODING 710
SWIDTH 462 0
DWIDTH 9 0
BBX 5 3 5 13
BITMAP
20
70
F8
ENDCHAR
STARTCHAR 02C7
ENCODING 711
SWIDTH 462 0
DWIDTH 9 0
BBX 4 2 6 13
BITMAP
F0
40
ENDCHAR
STARTCHAR 02D8
ENCODING 728
SWIDTH 462 0
DWIDTH 9 0
BBX 5 3 5 13
BITMAP
C8
48
70
ENDCHAR
STARTCHAR 02D9
ENCODING 729
SWIDTH 462 0
DWIDTH 9 0
BBX 2 3 7 13
BITMAP
C0
80
80
ENDCHAR
STARTCHAR 02DB
ENCODING 731
SWIDTH 462 0
DWIDTH 9 0
BBX 3 3 1 -3
BITMAP
E0
E0
E0
ENDCHAR
STARTCHAR 02DC
ENCODING 732
SWIDTH 462 0
DWIDTH 9 0
BBX 7 3 4 13
BITMAP
32
56
9C
ENDCHAR
STARTCHAR 02DD
ENCODING 733
SWIDTH 462 0
DWIDTH 9 0
BBX 7 3 5 13
BITMAP
32
6C
D8
ENDCHAR
STARTCHAR 0300
ENCODING 768
SWIDTH 462 0
DWIDTH 9 0
BBX 3 3 5 13
BITMAP
C0
60
20
ENDCHAR
STARTCHAR 0301
ENCODING 769
SWIDTH 462 0
DWIDTH 9 0
BBX 5 3 6 13
BITMAP
18
60
C0
ENDCHAR
STARTCHAR 0302
ENCODING 770
SWIDTH 462 0
DWIDTH 9 0
BBX 5 3 5 13
BITMAP
20
70
F8
ENDCHAR
STARTCHAR 0303
ENCODING 771
SWIDTH 462 0
DWIDTH 9 0
BBX 7 3 4 13
BITMAP
32
56
9C
ENDCHAR
STARTCHAR 0304
ENCODING 772
SWIDTH 462 0
DWIDTH 9 0
BBX 5 1 5 14
BITMAP
F8
ENDCHAR
STARTCHAR 0305
ENCODING 773
SWIDTH 462 0
DWIDTH 9 0
BBX 7 1 4 14
BITMAP
FE
ENDCHAR
STARTCHAR 0306
ENCODING 774
SWIDTH 462 0
DWIDTH 9 0
BBX 5 3 5 13
BITMAP
C8
48
70
ENDCHAR
STARTCHAR 0307
ENCODING 775
SWIDTH 462 0
DWIDTH 9 0
BBX 2 3 7 13
BITMAP
C0
80
80
ENDCHAR
STARTCHAR 0308
ENCODING 776
SWIDTH 462 0
DWIDTH 9 0
BBX 5 3 5 13
BITMAP
48
C8
88
ENDCHAR
STARTCHAR 030A
ENCODING 778
SWIDTH 462 0
DWIDTH 9 0
BBX 3 3 6 13
BITMAP
60
A0
E0
ENDCHAR
STARTCHAR 030B
ENCODING 779
SWIDTH 462 0
DWIDTH 9 0
BBX 7 3 5 13
BITMAP
32
6C
D8
ENDCHAR
STARTCHAR 030C
ENCODING 780
SWIDTH 462 0
DWIDTH 9 0
BBX 4 2 6 13
BITMAP
F0
40
ENDCHAR
STARTCHAR 0329
ENCODING 809
SWIDTH 462 0
DWIDTH 9 0
BBX 2 3 1 -3
BITMAP
40
40
80
ENDCHAR
STARTCHAR 0384
ENCODING 900
SWIDTH 462 0
DWIDTH 9 0
BBX 3 2 3 13
BITMAP
60
C0
ENDCHAR
STARTCHAR 0385
ENCODING 901
SWIDTH 462 0
DWIDTH 9 0
BBX 7 6 4 10
BITMAP
06
18
30
C8
88
88
ENDCHAR
STARTCHAR 0386
ENCODING 902
SWIDTH 462 0
DWIDTH 9 0
BBX 11 15 -1 0
BITMAP
0600
0C00
07C0
07E0
0820
1860
1040
1040
20C0
3F80
2080
4180
4100
4100
C300
ENDCHAR
STARTCHAR 0387
ENCODING 903
SWIDTH 462 0
DWIDTH 9 0
BBX 2 3 4 6
BITMAP
40
40
80
ENDCHAR
STARTCHAR 0388
ENCODING 904
SWIDTH 462 0
DWIDTH 9 0
BBX 11 15 -1 0
BITMAP
0600
0C00
0FE0
0FE0
0800
1800
1000
1000
3F00
2000
2000
4000
4000
7F00
FF00
ENDCHAR
STARTCHAR 0389
ENCODING 905
SWIDTH 462 0
DWIDTH 9 0
BBX 11 15 -1 0
BITMAP
0600
0C00
0820
0820
0820
1860
1040
1040
3FC0
2080
2080
6180
4100
4100
C300
ENDCHAR
STARTCHAR 038A
ENCODING 906
SWIDTH 462 0
DWIDTH 9 0
BBX 8 15 1 0
BITMAP
18
30
0F
0E
04
08
08
08
18
10
10
30
20
F0
F0
ENDCHAR
STARTCHAR 038C
ENCODING 908
SWIDTH 462 0
DWIDTH 9 0
BBX 10 15 0 0
BITMAP
0C00
1800
0F80
0FC0
10C0
30C0
2080
2080
6180
4100
4100
C300
8200
FE00
7800
ENDCHAR
STARTCHAR 038E
ENCODING 910
SWIDTH 462 0
DWIDTH 9 0
BBX 8 15 3 0
BITMAP
60
C0
C1
41
42
44
4C
48
70
20
40
40
40
C0
80
ENDCHAR
STARTCHAR 038F
ENCODING 911
SWIDTH 462 0
DWIDTH 9 0
BBX 11 15 -1 0
BITMAP
0600
0C00
07C0
07E0
0820
1860
1040
1040
30C0
2080
2180
3300
1600
F700
E700
ENDCHAR
STARTCHAR 0390
ENCODING 912
SWIDTH 462 0
DWIDTH 9 0
BBX 8 16 2 0
BITMAP
03
06
08
26
24
44
00
60
20
20
60
40
40
C0
60
60
ENDCHAR
STARTCHAR 0391
ENCODING 913
SWIDTH 462 0
DWIDTH 9 0
BBX 11 13 -1 0
BITMAP
07C0
07E0
0820
1860
1040
1040
20C0
3F80
2080
4180
4100
4100
C300
ENDCHAR
STARTCHAR 0392
ENCODING 914
SWIDTH 462 0
DWIDTH 9 0
BBX 11 13 -1 0
BITMAP
0FC0
0FE0
0820
1820
1040
1F80
3F00
2080
2080
6180
4100
7E00
FC00
ENDCHAR
STARTCHAR 0393
ENCODING 915
SWIDTH 462 0
DWIDTH 9 0
BBX 11 13 -1 0
BITMAP
0FE0
0FE0
0800
1800
1000
1000
3000
2000
2000
6000
4000
4000
C000
ENDCHAR
STARTCHAR 0394
ENCODING 916
SWIDTH 462 0
DWIDTH 9 0
BBX 8 13 -1 0
BITMAP
01
01
03
03
05
05
19
19
21
21
41
7F
FF
ENDCHAR
STARTCHAR 0395
ENCODING 917
SWIDTH 462 0
DWIDTH 9 0
BBX 11 13 -1 0
BITMAP
0FE0
0FE0
0800
1800
1000
1000
3F00
2000
2000
4000
4000
7F00
FF00
ENDCHAR
STARTCHAR 0396
ENCODING 918
SWIDTH 462 0
DWIDTH 9 0
BBX 11 13 -1 0
BITMAP
0FE0
0FE0
0020
0060
00C0
0300
0600
0800
3000
6000
4000
7F00
FF00
ENDCHAR
STARTCHAR 0397
ENCODING 919
SWIDTH 462 0
DWIDTH 9 0
BBX 11 13 -1 0
BITMAP
0820
0820
0820
1860
1040
1040
3FC0
2080
2080
6180
4100
4100
C300
ENDCHAR
STARTCHAR 0398
ENCODING 920
SWIDTH 462 0
DWIDTH 9 0
BBX 10 13 0 0
BITMAP
0F80
0FC0
10C0
30C0
2080
2080
7F80
4100
4100
C300
8200
FE00
7800
ENDCHAR
STARTCHAR 0399
ENCODING 921
SWIDTH 462 0
DWIDTH 9 0
BBX 8 13 1 0
BITMAP
0F
0E
04
08
08
08
18
10
10
30
20
F0
F0
ENDCHAR
STARTCHAR 039A
ENCODING 922
SWIDTH 462 0
DWIDTH 9 0
BBX 11 13 -1 0
BITMAP
0820
0860
08C0
1980
1600
1C00
3000
3800
2C00
6400
4600
4300
C100
ENDCHAR
STARTCHAR 039B
ENCODING 923
SWIDTH 462 0
DWIDTH 9 0
BBX 8 13 -1 0
BITMAP
01
01
03
03
05
05
19
19
21
21
41
41
81
ENDCHAR
STARTCHAR 039C
ENCODING 924
SWIDTH 462 0
DWIDTH 9 0
BBX 11 13 -1 0
BITMAP
0800
1820
1860
14E0
3740
2640
20C0
6080
4080
4180
C100
8100
8300
ENDCHAR
STARTCHAR 039D
ENCODING 925
SWIDTH 462 0
DWIDTH 9 0
BBX 11 13 -1 0
BITMAP
0800
0820
0820
1860
1C40
1C40
36C0
2380
2380
6180
4100
4100
C300
ENDCHAR
STARTCHAR 039E
ENCODING 926
SWIDTH 462 0
DWIDTH 9 0
BBX 11 13 -1 0
BITMAP
0FE0
0FE0
0000
0000
0000
0000
1F00
0000
0000
0000
0000
FF00
FF00
ENDCHAR
STARTCHAR 039F
ENCODING 927
SWIDTH 462 0
DWIDTH 9 0
BBX 10 13 0 0
BITMAP
0F80
0FC0
10C0
30C0
2080
2080
6180
4100
4100
C300
8200
FE00
7800
ENDCHAR
STARTCHAR 03A0
ENCODING 928
SWIDTH 462 0
DWIDTH 9 0
BBX 11 13 -1 0
BITMAP
0FE0
0FE0
0820
1860
1040
1040
30C0
2080
2080
6180
4100
4100
C300
ENDCHAR
STARTCHAR 03A1
ENCODING 929
SWIDTH 462 0
DWIDTH 9 0
BBX 11 13 -1 0
BITMAP
0FC0
0FE0
0820
1860
1040
1040
2180
3F00
2000
4000
4000
4000
C000
ENDCHAR
STARTCHAR 03A3
ENCODING 931
SWIDTH 462 0
DWIDTH 9 0
BBX 11 13 -1 0
BITMAP
0FE0
0FE0
0C00
0600
0200
0300
0300
0300
0C00
1800
2000
FF00
FF00
ENDCHAR
STARTCHAR 03A4
ENCODING 932
SWIDTH 462 0
DWIDTH 9 0
BBX 7 12 3 0
BITMAP
FE
FE
10
30
20
20
60
40
40
C0
80
80
ENDCHAR
STARTCHAR 03A5
ENCODING 933
SWIDTH 462 0
DWIDTH 9 0
BBX 8 13 2 0
BITMAP
41
41
43
46
64
28
30
20
20
60
40
40
C0
ENDCHAR
STARTCHAR 03A6
ENCODING 934
SWIDTH 462 0
DWIDTH 9 0
BBX 10 12 0 0
BITMAP
0200
0200
1F80
36C0
2480
2480
6D80
4900
4900
DB00
7E00
3000
ENDCHAR
STARTCHAR 03A7
ENCODING 935
SWIDTH 462 0
DWIDTH 9 0
BBX 10 13 0 0
BITMAP
1040
1040
1880
0900
0B00
0E00
0C00
1C00
3400
2400
4600
8600
0600
ENDCHAR
STARTCHAR 03A8
ENCODING 936
SWIDTH 462 0
DWIDTH 9 0
BBX 9 13 1 0
BITMAP
2480
2480
2480
6D80
4900
4900
DB00
9200
9600
FC00
2000
2000
6000
ENDCHAR
STARTCHAR 03A9
ENCODING 937
SWIDTH 462 0
DWIDTH 9 0
BBX 11 13 -1 0
BITMAP
07C0
07E0
0820
1860
1040
1040
30C0
2080
2180
3300
1600
F700
E700
ENDCHAR
STARTCHAR 03AA
ENCODING 938
SWIDTH 462 0
DWIDTH 9 0
BBX 9 16 1 0
BITMAP
0480
0C80
0880
0F00
0E00
0400
0800
0800
0800
1800
1000
1000
3000
2000
F000
F000
ENDCHAR
STARTCHAR 03AB
ENCODING 939
SWIDTH 462 0
DWIDTH 9 0
BBX 8 16 2 0
BITMAP
09
19
11
41
41
43
46
64
28
30
20
20
60
40
40
C0
ENDCHAR
STARTCHAR 03AC
ENCODING 940
SWIDTH 462 0
DWIDTH 9 0
BBX 10 13 -1 0
BITMAP
0040
0180
0200
0000
1FC0
31C0
2100
6100
4100
4300
C300
7F00
7000
ENDCHAR
STARTCHAR 03AD
ENCODING 941
SWIDTH 462 0
DWIDTH 9 0
BBX 9 13 0 0
BITMAP
0080
0300
0400
0000
1F00
3180
4000
6000
7800
4000
8200
FE00
7800
ENDCHAR
STARTCHAR 03AE
ENCODING 942
SWIDTH 462 0
DWIDTH 9 0
BBX 10 16 -1 -3
BITMAP
0040
0180
0200
0000
1F80
18C0
30C0
2080
2080
6180
4100
4100
C300
0200
0200
0400
ENDCHAR
STARTCHAR 03AF
ENCODING 943
SWIDTH 462 0
DWIDTH 9 0
BBX 7 13 2 0
BITMAP
06
0C
30
00
60
20
20
60
40
40
C0
60
60
ENDCHAR
STARTCHAR 03B0
ENCODING 944
SWIDTH 462 0
DWIDTH 9 0
BBX 11 16 0 0
BITMAP
0060
0180
0300
0C80
0880
0880
0000
2080
2080
6180
4100
4100
C300
8200
FE00
7800
ENDCHAR
STARTCHAR 03B1
ENCODING 945
SWIDTH 462 0
DWIDTH 9 0
BBX 10 9 -1 0
BITMAP
1FC0
31C0
2100
6100
4100
4300
C300
7F00
7000
ENDCHAR
STARTCHAR 03B2
ENCODING 946
SWIDTH 462 0
DWIDTH 9 0
BBX 11 16 -2 -3
BITMAP
03C0
07E0
0420
0C20
0840
0FC0
1F80
1040
1040
30C0
2080
3F00
7E00
4000
4000
8000
ENDCHAR
STARTCHAR 03B3
ENCODING 947
SWIDTH 462 0
DWIDTH 9 0
BBX 8 12 1 -3
BITMAP
41
41
42
46
4C
48
70
60
60
40
40
80
ENDCHAR
STARTCHAR 03B4
ENCODING 948
SWIDTH 462 0
DWIDTH 9 0
BBX 9 13 0 0
BITMAP
0F80
0F80
0C00
0600
0E00
3100
6180
4100
4100
8300
8200
FE00
7800
ENDCHAR
STARTCHAR 03B5
ENCODING 949
SWIDTH 462 0
DWIDTH 9 0
BBX 9 9 0 0
BITMAP
1F00
3180
4000
6000
7800
4000
8200
FE00
7800
ENDCHAR
STARTCHAR 03B6
ENCODING 950
SWIDTH 462 0
DWIDTH 9 0
BBX 10 16 0 -3
BITMAP
1FC0
1FC0
0180
0300
0C00
1800
3000
6000
4000
C000
C000
F800
1C00
0400
0800
3000
ENDCHAR
STARTCHAR 03B7
ENCODING 951
SWIDTH 462 0
DWIDTH 9 0
BBX 10 12 -1 -3
BITMAP
1F80
18C0
30C0
2080
2080
6180
4100
4100
C300
0200
0200
0400
ENDCHAR
STARTCHAR 03B8
ENCODING 952
SWIDTH 462 0
DWIDTH 9 0
BBX 8 13 1 0
BITMAP
0E
1F
21
21
21
62
7E
42
84
84
8C
F8
F0
ENDCHAR
STARTCHAR 03B9
ENCODING 953
SWIDTH 462 0
DWIDTH 9 0
BBX 3 9 2 0
BITMAP
60
20
20
60
40
40
C0
60
60
ENDCHAR
STARTCHAR 03BA
ENCODING 954
SWIDTH 462 0
DWIDTH 9 0
BBX 9 9 0 0
BITMAP
1180
2300
2600
2800
7000
5800
4800
8C00
8600
ENDCHAR
STARTCHAR 03BB
ENCODING 955
SWIDTH 462 0
DWIDTH 9 0
BBX 8 13 -1 0
BITMAP
02
02
02
03
07
05
09
19
11
21
61
41
81
ENDCHAR
STARTCHAR 03BC
ENCODING 956
SWIDTH 462 0
DWIDTH 9 0
BBX 11 12 -2 -3
BITMAP
0820
0820
1860
1040
1040
30C0
2180
3F80
7D80
4000
4000
8000
ENDCHAR
STARTCHAR 03BD
ENCODING 957
SWIDTH 462 0
DWIDTH 9 0
BBX 7 9 2 0
BITMAP
82
82
84
84
98
98
A0
E0
C0
ENDCHAR
STARTCHAR 03BE
ENCODING 958
SWIDTH 462 0
DWIDTH 9 0
BBX 10 16 0 -3
BITMAP
0FC0
0FC0
1000
3000
2000
1F00
3E00
6000
C000
C000
C000
F800
1C00
0400
0800
3000
ENDCHAR
STARTCHAR 03BF
ENCODING 959
SWIDTH 462 0
DWIDTH 9 0
BBX 9 9 0 0
BITMAP
1F00
3180
6180
4100
4100
8300
8200
FE00
7800
ENDCHAR
STARTCHAR 03C0
ENCODING 960
SWIDTH 462 0
DWIDTH 9 0
BBX 10 9 -1 0
BITMAP
1FC0
1840
30C0
2080
2080
6180
4100
4100
C300
ENDCHAR
STARTCHAR 03C1
ENCODING 961
SWIDTH 462 0
DWIDTH 9 0
BBX 11 12 -2 -3
BITMAP
07C0
0C60
1860
1040
1040
20C0
2080
3F80
7E00
4000
4000
8000
ENDCHAR
STARTCHAR 03C2
ENCODING 962
SWIDTH 462 0
DWIDTH 9 0
BBX 9 12 0 -3
BITMAP
1F00
3180
6000
4000
4000
8000
8000
F800
7C00
0400
0800
3000
ENDCHAR
STARTCHAR 03C3
ENCODING 963
SWIDTH 462 0
DWIDTH 9 0
BBX 10 9 0 0
BITMAP
1FC0
3300
6100
4100
4100
8300
8200
FC00
7800
ENDCHAR
STARTCHAR 03C4
ENCODING 964
SWIDTH 462 0
DWIDTH 9 0
BBX 7 9 2 0
BITMAP
FE
18
30
20
20
60
40
70
30
ENDCHAR
STARTCHAR 03C5
ENCODING 965
SWIDTH 462 0
DWIDTH 9 0
BBX 9 9 0 0
BITMAP
2080
2080
6180
4100
4100
C300
8200
FE00
7800
ENDCHAR
STARTCHAR 03C6
ENCODING 966
SWIDTH 462 0
DWIDTH 9 0
BBX 9 12 0 -3
BITMAP
1700
3580
6D80
4900
4900
DB00
9200
DE00
7800
2000
2000
6000
ENDCHAR
STARTCHAR 03C7
ENCODING 967
SWIDTH 462 0
DWIDTH 9 0
BBX 11 12 -2 -3
BITMAP
0820
0860
0840
0C80
0500
0600
0E00
1A00
1200
2200
4300
8200
ENDCHAR
STARTCHAR 03C8
ENCODING 968
SWIDTH 462 0
DWIDTH 9 0
BBX 9 12 0 -3
BITMAP
2480
2480
6D80
4900
4900
9B00
9200
FE00
7800
2000
2000
6000
ENDCHAR
STARTCHAR 03C9
ENCODING 969
SWIDTH 462 0
DWIDTH 9 0
BBX 9 8 0 1
BITMAP
1100
3180
6180
4900
4900
DB00
9200
FC00
ENDCHAR
STARTCHAR 03CA
ENCODING 970
SWIDTH 462 0
DWIDTH 9 0
BBX 7 13 2 0
BITMAP
26
24
44
00
60
20
20
60
40
40
C0
60
60
ENDCHAR
STARTCHAR 03CB
ENCODING 971
SWIDTH 462 0
DWIDTH 9 0
BBX 9 13 0 0
BITMAP
0C80
0880
0880
0000
2080
2080
6180
4100
4100
C300
8200
FE00
7800
ENDCHAR
STARTCHAR 03CC
ENCODING 972
SWIDTH 462 0
DWIDTH 9 0
BBX 9 13 0 0
BITMAP
0080
0300
0400
0000
1F00
3180
6180
4100
4100
8300
8200
FE00
7800
ENDCHAR
STARTCHAR 03CD
ENCODING 973
SWIDTH 462 0
DWIDTH 9 0
BBX 9 13 0 0
BITMAP
0080
0300
0400
0000
2080
2080
6180
4100
4100
C300
8200
FE00
7800
ENDCHAR
STARTCHAR 03CE
ENCODING 974
SWIDTH 462 0
DWIDTH 9 0
BBX 9 12 0 1
BITMAP
0080
0300
0400
0000
1100
3180
6180
4900
4900
DB00
9200
FC00
ENDCHAR
STARTCHAR 03D1
ENCODING 977
SWIDTH 462 0
DWIDTH 9 0
BBX 10 13 0 0
BITMAP
0700
0F80
1880
1080
1180
1FC0
0100
0100
C200
4200
4600
7C00
3000
ENDCHAR
STARTCHAR 03D5
ENCODING 981
SWIDTH 462 0
DWIDTH 9 0
BBX 9 12 0 -1
BITMAP
0600
0600
1F00
3580
6D80
4900
4900
9B00
9200
FE00
7800
2000
ENDCHAR
STARTCHAR 03F0
ENCODING 1008
SWIDTH 462 0
DWIDTH 9 0
BBX 10 9 -1 0
BITMAP
3840
0CC0
0B00
0E00
0C00
1C00
6400
C600
8700
ENDCHAR
STARTCHAR 03F1
ENCODING 1009
SWIDTH 462 0
DWIDTH 9 0
BBX 10 12 -1 -3
BITMAP
0F80
18C0
30C0
2080
2080
4180
4100
7E00
F800
8000
FC00
FC00
ENDCHAR
STARTCHAR 03F2
ENCODING 1010
SWIDTH 462 0
DWIDTH 9 0
BBX 9 9 0 0
BITMAP
1F00
3180
6000
4000
4000
8000
8200
FE00
7800
ENDCHAR
STARTCHAR 03F3
ENCODING 1011
SWIDTH 462 0
DWIDTH 9 0
BBX 10 16 0 -3
BITMAP
0040
00C0
0080
0000
0380
0100
0100
0300
0200
0200
0600
0400
0400
8C00
F800
F000
ENDCHAR
STARTCHAR 03F4
ENCODING 1012
SWIDTH 462 0
DWIDTH 9 0
BBX 10 13 0 0
BITMAP
0F80
0FC0
1040
30C0
2080
2080
7F80
4100
4100
8300
8200
FE00
7800
ENDCHAR
STARTCHAR 03F5
ENCODING 1013
SWIDTH 462 0
DWIDTH 9 0
BBX 9 9 0 0
BITMAP
0F80
1000
2000
4000
7E00
8000
4000
7E00
3E00
ENDCHAR
STARTCHAR 03F6
ENCODING 1014
SWIDTH 462 0
DWIDTH 9 0
BBX 9 9 -1 0
BITMAP
1F00
0080
0080
0080
1F80
0100
0300
FE00
F800
ENDCHAR
STARTCHAR 0400
ENCODING 1024
SWIDTH 462 0
DWIDTH 9 0
BBX 11 16 -1 0
BITMAP
0300
0180
0080
0FE0
0FE0
0800
1800
1000
1000
3F00
2000
2000
4000
4000
7F00
FF00
ENDCHAR
STARTCHAR 0401
ENCODING 1025
SWIDTH 462 0
DWIDTH 9 0
BBX 11 16 -1 0
BITMAP
0120
0320
0220
0FE0
0FE0
0800
1800
1000
1000
3F00
2000
2000
4000
4000
7F00
FF00
ENDCHAR
STARTCHAR 0402
ENCODING 1026
SWIDTH 462 0
DWIDTH 9 0
BBX 9 13 0 0
BITMAP
3E00
3E00
1000
1000
1000
3F00
2180
2100
4100
4300
4200
9E00
9800
ENDCHAR
STARTCHAR 0403
ENCODING 1027
SWIDTH 462 0
DWIDTH 9 0
BBX 12 16 -1 0
BITMAP
0030
00C0
0180
0FE0
0FE0
0800
1800
1000
1000
3000
2000
2000
6000
4000
4000
C000
ENDCHAR
STARTCHAR 0404
ENCODING 1028
SWIDTH 462 0
DWIDTH 9 0
BBX 10 13 0 0
BITMAP
0F80
0FC0
1040
3040
2000
2000
7E00
4000
4000
C000
8200
FE00
7800
ENDCHAR
STARTCHAR 0405
ENCODING 1029
SWIDTH 462 0
DWIDTH 9 0
BBX 10 13 0 0
BITMAP
0F80
1FC0
1040
3040
2000
2000
3F00
0100
0100
0300
8200
FE00
3800
ENDCHAR
STARTCHAR 0406
ENCODING 1030
SWIDTH 462 0
DWIDTH 9 0
BBX 8 13 1 0
BITMAP
0F
0E
04
08
08
08
18
10
10
30
20
F0
F0
ENDCHAR
STARTCHAR 0407
ENCODING 1031
SWIDTH 462 0
DWIDTH 9 0
BBX 9 16 1 0
BITMAP
0480
0C80
0880
0F00
0E00
0400
0800
0800
0800
1800
1000
1000
3000
2000
F000
F000
ENDCHAR
STARTCHAR 0408
ENCODING 1032
SWIDTH 462 0
DWIDTH 9 0
BBX 11 13 0 0
BITMAP
01E0
01E0
0080
0080
0180
0100
0100
0300
0200
C200
C600
FC00
3000
ENDCHAR
STARTCHAR 0409
ENCODING 1033
SWIDTH 462 0
DWIDTH 9 0
BBX 11 13 -2 0
BITMAP
0380
0780
0880
0980
1900
11E0
1220
3220
2260
2640
6440
4780
8F00
ENDCHAR
STARTCHAR 040A
ENCODING 1034
SWIDTH 462 0
DWIDTH 9 0
BBX 10 13 -1 0
BITMAP
0900
1100
1100
1300
3200
23C0
3C40
6440
44C0
4C80
C880
8F00
9E00
ENDCHAR
STARTCHAR 040B
ENCODING 1035
SWIDTH 462 0
DWIDTH 9 0
BBX 9 13 0 0
BITMAP
3E00
3E00
1000
1000
1000
3F00
2180
2100
4100
4300
4200
8200
8600
ENDCHAR
STARTCHAR 040C
ENCODING 1036
SWIDTH 462 0
DWIDTH 9 0
BBX 12 16 -1 0
BITMAP
0030
00C0
0180
0820
0860
08C0
1980
1600
1C00
3000
3800
2C00
6400
4600
4300
C100
ENDCHAR
STARTCHAR 040D
ENCODING 1037
SWIDTH 462 0
DWIDTH 9 0
BBX 11 16 -1 0
BITMAP
0300
0180
0080
0820
0820
0820
1860
10C0
1340
36C0
2C80
3080
6180
4100
4100
C300
ENDCHAR
STARTCHAR 040E
ENCODING 1038
SWIDTH 462 0
DWIDTH 9 0
BBX 10 16 0 0
BITMAP
0640
0240
0380
1000
1040
1040
30C0
2080
2080
6F80
3F00
0100
0300
0200
FE00
F800
ENDCHAR
STARTCHAR 040F
ENCODING 1039
SWIDTH 462 0
DWIDTH 9 0
BBX 11 16 -1 -3
BITMAP
0820
0820
0820
1860
1040
1040
30C0
2080
2080
6180
4100
7F00
FF00
1000
1000
2000
ENDCHAR
STARTCHAR 0410
ENCODING 1040
SWIDTH 462 0
DWIDTH 9 0
BBX 11 13 -1 0
BITMAP
07C0
07E0
0820
1860
1040
1040
20C0
3F80
2080
4180
4100
4100
C300
ENDCHAR
STARTCHAR 0411
ENCODING 1041
SWIDTH 462 0
DWIDTH 9 0
BBX 11 13 -1 0
BITMAP
0FE0
0FE0
0800
1800
1800
1F80
20C0
2080
2080
6180
4100
7F00
FC00
ENDCHAR
STARTCHAR 0412
ENCODING 1042
SWIDTH 462 0
DWIDTH 9 0
BBX 11 13 -1 0
BITMAP
0FC0
0FE0
0820
1820
1040
1F80
3F00
2080
2080
6180
4100
7E00
FC00
ENDCHAR
STARTCHAR 0413
ENCODING 1043
SWIDTH 462 0
DWIDTH 9 0
BBX 11 13 -1 0
BITMAP
0FE0
0FE0
0800
1800
1000
1000
3000
2000
2000
6000
4000
4000
C000
ENDCHAR
STARTCHAR 0414
ENCODING 1044
SWIDTH 462 0
DWIDTH 9 0
BBX 12 15 -2 -2
BITMAP
01F0
03F0
0620
0420
0460
0840
0840
08C0
1080
1080
1080
3F80
7F80
C080
8180
ENDCHAR
STARTCHAR 0415
ENCODING 1045
SWIDTH 462 0
DWIDTH 9 0
BBX 11 13 -1 0
BITMAP
0FE0
0FE0
0800
1800
1000
1000
3F00
2000
2000
4000
4000
7F00
FF00
ENDCHAR
STARTCHAR 0416
ENCODING 1046
SWIDTH 462 0
DWIDTH 9 0
BBX 11 13 -1 0
BITMAP
0920
0920
0920
1B20
1AC0
0F80
0F00
1D80
2580
6D80
4900
4900
DB00
ENDCHAR
STARTCHAR 0417
ENCODING 1047
SWIDTH 462 0
DWIDTH 9 0
BBX 10 13 0 0
BITMAP
0F80
1FC0
1040
0040
0080
0180
1F00
0100
0100
0300
8200
FE00
3800
ENDCHAR
STARTCHAR 0418
ENCODING 1048
SWIDTH 462 0
DWIDTH 9 0
BBX 11 13 -1 0
BITMAP
0820
0820
0820
1860
10C0
1340
36C0
2C80
3080
6180
4100
4100
C300
ENDCHAR
STARTCHAR 0419
ENCODING 1049
SWIDTH 462 0
DWIDTH 9 0
BBX 11 16 -1 0
BITMAP
0320
0120
01C0
0820
0820
0820
1860
10C0
1340
36C0
2C80
3080
6180
4100
4100
C300
ENDCHAR
STARTCHAR 041A
ENCODING 1050
SWIDTH 462 0
DWIDTH 9 0
BBX 11 13 -1 0
BITMAP
0820
0860
08C0
1980
1600
1C00
3000
3800
2C00
6400
4600
4300
C100
ENDCHAR
STARTCHAR 041B
ENCODING 1051
SWIDTH 462 0
DWIDTH 9 0
BBX 11 13 -1 0
BITMAP
01E0
03E0
0420
0460
0840
0840
08C0
1080
1080
1180
2100
6100
C300
ENDCHAR
STARTCHAR 041C
ENCODING 1052
SWIDTH 462 0
DWIDTH 9 0
BBX 11 13 -1 0
BITMAP
0800
1820
1860
14E0
3740
2640
20C0
6080
4080
4180
C100
8100
8300
ENDCHAR
STARTCHAR 041D
ENCODING 1053
SWIDTH 462 0
DWIDTH 9 0
BBX 11 13 -1 0
BITMAP
0820
0820
0820
1860
1040
1040
3FC0
2080
2080
6180
4100
4100
C300
ENDCHAR
STARTCHAR 041E
ENCODING 1054
SWIDTH 462 0
DWIDTH 9 0
BBX 10 13 0 0
BITMAP
0F80
0FC0
10C0
30C0
2080
2080
6180
4100
4100
C300
8200
FE00
7800
ENDCHAR
STARTCHAR 041F
ENCODING 1055
SWIDTH 462 0
DWIDTH 9 0
BBX 11 13 -1 0
BITMAP
0FE0
0FE0
0820
1860
1040
1040
30C0
2080
2080
6180
4100
4100
C300
ENDCHAR
STARTCHAR 0420
ENCODING 1056
SWIDTH 462 0
DWIDTH 9 0
BBX 11 13 -1 0
BITMAP
0FC0
0FE0
0820
1860
1040
1040
2180
3F00
2000
4000
4000
4000
C000
ENDCHAR
STARTCHAR 0421
ENCODING 1057
SWIDTH 462 0
DWIDTH 9 0
BBX 10 13 0 0
BITMAP
0F80
0FC0
1040
3040
2000
2000
6000
4000
4000
8000
8200
FE00
7800
ENDCHAR
STARTCHAR 0422
ENCODING 1058
SWIDTH 462 0
DWIDTH 9 0
BBX 7 12 3 0
BITMAP
FE
FE
10
30
20
20
60
40
40
C0
80
80
ENDCHAR
STARTCHAR 0423
ENCODING 1059
SWIDTH 462 0
DWIDTH 9 0
BBX 10 13 0 0
BITMAP
1000
1040
1040
30C0
2080
2080
6F80
3F00
0100
0300
0200
FE00
F800
ENDCHAR
STARTCHAR 0424
ENCODING 1060
SWIDTH 462 0
DWIDTH 9 0
BBX 10 15 0 -1
BITMAP
0100
0F80
0FC0
1240
36C0
2480
2480
6D80
4900
4900
DB00
9200
DE00
7800
2000
ENDCHAR
STARTCHAR 0425
ENCODING 1061
SWIDTH 462 0
DWIDTH 9 0
BBX 10 13 0 0
BITMAP
1040
1040
1880
0900
0B00
0E00
0C00
1C00
3400
2400
4600
8600
0600
ENDCHAR
STARTCHAR 0426
ENCODING 1062
SWIDTH 462 0
DWIDTH 9 0
BBX 10 16 0 -3
BITMAP
1040
1040
1040
30C0
2080
2080
6180
4100
4100
8300
8300
FF00
7F00
0300
0200
0200
ENDCHAR
STARTCHAR 0427
ENCODING 1063
SWIDTH 462 0
DWIDTH 9 0
BBX 9 13 1 0
BITMAP
2000
2080
2080
6180
4100
4100
DF00
7E00
0200
0600
0400
0400
0C00
ENDCHAR
STARTCHAR 0428
ENCODING 1064
SWIDTH 462 0
DWIDTH 9 0
BBX 10 13 0 0
BITMAP
1240
1240
1240
36C0
2480
2480
6D80
4900
4900
9B00
9200
FE00
7E00
ENDCHAR
STARTCHAR 0429
ENCODING 1065
SWIDTH 462 0
DWIDTH 9 0
BBX 10 16 0 -3
BITMAP
1240
1240
1240
36C0
2480
2480
6D80
4900
4900
9B00
9200
FF00
7F00
0300
0200
0200
ENDCHAR
STARTCHAR 042A
ENCODING 1066
SWIDTH 462 0
DWIDTH 9 0
BBX 9 13 -1 0
BITMAP
1800
1800
0800
1800
1F00
1080
3080
2080
2100
6100
4300
7E00
FC00
ENDCHAR
STARTCHAR 042B
ENCODING 1067
SWIDTH 462 0
DWIDTH 9 0
BBX 11 13 -1 0
BITMAP
0820
1820
1020
1060
3E40
2340
22C0
6280
4680
4580
CD00
F900
F300
ENDCHAR
STARTCHAR 042C
ENCODING 1068
SWIDTH 462 0
DWIDTH 9 0
BBX 9 13 -1 0
BITMAP
0800
0800
0800
1800
1F00
1080
3080
2080
2100
6100
4300
7E00
FC00
ENDCHAR
STARTCHAR 042D
ENCODING 1069
SWIDTH 462 0
DWIDTH 9 0
BBX 10 13 0 0
BITMAP
0F80
1FC0
1040
00C0
0080
0080
1F80
0100
0100
0300
8200
FE00
1800
ENDCHAR
STARTCHAR 042E
ENCODING 1070
SWIDTH 462 0
DWIDTH 9 0
BBX 11 13 -1 0
BITMAP
08C0
11E0
1220
1260
3640
2440
3CC0
6C80
4880
4980
D900
8F00
8C00
ENDCHAR
STARTCHAR 042F
ENCODING 1071
SWIDTH 462 0
DWIDTH 9 0
BBX 10 13 0 0
BITMAP
0FC0
0FC0
1040
20C0
2080
2080
6F80
3F00
0D00
3300
6200
C200
0600
ENDCHAR
STARTCHAR 0430
ENCODING 1072
SWIDTH 462 0
DWIDTH 9 0
BBX 9 9 0 0
BITMAP
3F00
0180
0180
3F00
4100
C300
8200
FE00
0E00
ENDCHAR
STARTCHAR 0431
ENCODING 1073
SWIDTH 462 0
DWIDTH 9 0
BBX 10 13 -1 0
BITMAP
07C0
07C0
0800
1800
1000
1F80
20C0
2080
2080
6180
4100
7F00
FC00
ENDCHAR
STARTCHAR 0432
ENCODING 1074
SWIDTH 462 0
DWIDTH 9 0
BBX 10 13 -1 0
BITMAP
0780
0FC0
08C0
1880
1080
1F80
3F80
2080
2080
6180
4100
7E00
FC00
ENDCHAR
STARTCHAR 0433
ENCODING 1075
SWIDTH 462 0
DWIDTH 9 0
BBX 10 9 -1 0
BITMAP
1FC0
1C00
3000
2000
2000
6000
4000
4000
C000
ENDCHAR
STARTCHAR 0434
ENCODING 1076
SWIDTH 462 0
DWIDTH 9 0
BBX 10 12 -1 -3
BITMAP
0FC0
1840
30C0
2080
2080
4180
4100
7F00
3F00
0200
FE00
F800
ENDCHAR
STARTCHAR 0435
ENCODING 1077
SWIDTH 462 0
DWIDTH 9 0
BBX 9 9 0 0
BITMAP
1F00
3180
4180
4100
7F00
C000
C000
FE00
7C00
ENDCHAR
STARTCHAR 0436
ENCODING 1078
SWIDTH 462 0
DWIDTH 9 0
BBX 10 9 -1 0
BITMAP
1240
1240
3780
1F00
1E00
3F00
4900
4900
DB00
ENDCHAR
STARTCHAR 0437
ENCODING 1079
SWIDTH 462 0
DWIDTH 9 0
BBX 9 9 0 0
BITMAP
1F00
3980
0180
0300
1E00
0200
8200
FE00
7800
ENDCHAR
STARTCHAR 0438
ENCODING 1080
SWIDTH 462 0
DWIDTH 9 0
BBX 9 9 0 0
BITMAP
2080
2080
6180
4100
4100
8300
8200
FE00
7E00
ENDCHAR
STARTCHAR 0439
ENCODING 1081
SWIDTH 462 0
DWIDTH 9 0
BBX 9 13 0 0
BITMAP
0880
0880
0700
0000
2080
2080
6180
4100
4100
8300
8200
FE00
7E00
ENDCHAR
STARTCHAR 043A
ENCODING 1082
SWIDTH 462 0
DWIDTH 9 0
BBX 9 9 0 0
BITMAP
1180
2300
2600
2800
7000
5800
4800
8C00
8600
ENDCHAR
STARTCHAR 043B
ENCODING 1083
SWIDTH 462 0
DWIDTH 9 0
BBX 10 9 -1 0
BITMAP
07C0
0C40
08C0
1080
1080
1180
2100
6100
C300
ENDCHAR
STARTCHAR 043C
ENCODING 1084
SWIDTH 462 0
DWIDTH 9 0
BBX 10 9 -1 0
BITMAP
3040
30C0
3BC0
6E80
4880
4180
C100
8100
8300
ENDCHAR
STARTCHAR 043D
ENCODING 1085
SWIDTH 462 0
DWIDTH 9 0
BBX 10 9 -1 0
BITMAP
1040
1040
30C0
2080
3F80
6180
4100
4100
C300
ENDCHAR
STARTCHAR 043E
ENCODING 1086
SWIDTH 462 0
DWIDTH 9 0
BBX 9 9 0 0
BITMAP
1F00
3180
6180
4100
4100
8300
8200
FE00
7800
ENDCHAR
STARTCHAR 043F
ENCODING 1087
SWIDTH 462 0
DWIDTH 9 0
BBX 10 9 -1 0
BITMAP
1FC0
1840
30C0
2080
2080
6180
4100
4100
C300
ENDCHAR
STARTCHAR 0440
ENCODING 1088
SWIDTH 462 0
DWIDTH 9 0
BBX 11 12 -2 -3
BITMAP
0FC0
0860
1860
1040
1040
30C0
2080
3F80
7E00
4000
4000
8000
ENDCHAR
STARTCHAR 0441
ENCODING 1089
SWIDTH 462 0
DWIDTH 9 0
BBX 9 9 0 0
BITMAP
1F00
3180
6000
4000
4000
8000
8200
FE00
7800
ENDCHAR
STARTCHAR 0442
ENCODING 1090
SWIDTH 462 0
DWIDTH 9 0
BBX 7 9 2 0
BITMAP
FE
18
30
20
20
60
40
40
C0
ENDCHAR
STARTCHAR 0443
ENCODING 1091
SWIDTH 462 0
DWIDTH 9 0
BBX 10 12 -1 -3
BITMAP
1040
1040
30C0
2080
2080
4180
4100
7F00
3F00
0200
FE00
F800
ENDCHAR
STARTCHAR 0444
ENCODING 1092
SWIDTH 462 0
DWIDTH 9 0
BBX 9 12 0 -1
BITMAP
0600
0600
1F00
3580
6D80
4900
4900
9B00
9200
FE00
7800
2000
ENDCHAR
STARTCHAR 0445
ENCODING 1093
SWIDTH 462 0
DWIDTH 9 0
BBX 9 8 0 0
BITMAP
2080
3180
3300
1C00
1800
3C00
4600
8600
ENDCHAR
STARTCHAR 0446
ENCODING 1094
SWIDTH 462 0
DWIDTH 9 0
BBX 9 12 0 -3
BITMAP
2080
2080
6180
4100
4100
8300
8200
FF00
7F00
0300
0200
0200
ENDCHAR
STARTCHAR 0447
ENCODING 1095
SWIDTH 462 0
DWIDTH 9 0
BBX 8 9 1 0
BITMAP
41
41
C3
C2
7E
06
04
04
0C
ENDCHAR
STARTCHAR 0448
ENCODING 1096
SWIDTH 462 0
DWIDTH 9 0
BBX 9 9 0 0
BITMAP
2480
2480
6D80
4900
4900
9B00
9200
FE00
7E00
ENDCHAR
STARTCHAR 0449
ENCODING 1097
SWIDTH 462 0
DWIDTH 9 0
BBX 9 12 0 -3
BITMAP
2480
2480
6D80
4900
4900
9B00
9200
FF00
7F00
0300
0200
0200
ENDCHAR
STARTCHAR 044A
ENCODING 1098
SWIDTH 462 0
DWIDTH 9 0
BBX 7 9 1 0
BITMAP
60
20
20
7E
46
44
84
FC
F0
ENDCHAR
STARTCHAR 044B
ENCODING 1099
SWIDTH 462 0
DWIDTH 9 0
BBX 10 9 -1 0
BITMAP
2040
2040
20C0
7C80
4480
4580
CD00
F900
F300
ENDCHAR
STARTCHAR 044C
ENCODING 1100
SWIDTH 462 0
DWIDTH 9 0
BBX 7 9 0 0
BITMAP
10
20
20
3E
42
42
46
FC
F8
ENDCHAR
STARTCHAR 044D
ENCODING 1101
SWIDTH 462 0
DWIDTH 9 0
BBX 9 9 0 0
BITMAP
1F00
3980
0180
0100
1F00
0300
8200
FE00
7800
ENDCHAR
STARTCHAR 044E
ENCODING 1102
SWIDTH 462 0
DWIDTH 9 0
BBX 10 9 -1 0
BITMAP
2380
2440
24C0
6480
7880
4980
C900
9F00
8400
ENDCHAR
STARTCHAR 044F
ENCODING 1103
SWIDTH 462 0
DWIDTH 9 0
BBX 9 9 0 0
BITMAP
1F80
3080
4180
6100
7F00
0F00
3200
6200
C600
ENDCHAR
STARTCHAR 0450
ENCODING 1104
SWIDTH 462 0
DWIDTH 9 0
BBX 9 13 0 0
BITMAP
0C00
0600
0200
0000
1F00
3180
4180
4100
7F00
C000
C000
FE00
7C00
ENDCHAR
STARTCHAR 0451
ENCODING 1105
SWIDTH 462 0
DWIDTH 9 0
BBX 9 13 0 0
BITMAP
0C80
0880
0880
0000
1F00
3180
4180
4100
7F00
C000
C000
FE00
7C00
ENDCHAR
STARTCHAR 0452
ENCODING 1106
SWIDTH 462 0
DWIDTH 9 0
BBX 10 15 -1 -2
BITMAP
1800
3F00
1800
1F80
18C0
30C0
2080
2080
6180
4100
4100
C300
0200
0E00
1800
ENDCHAR
STARTCHAR 0453
ENCODING 1107
SWIDTH 462 0
DWIDTH 9 0
BBX 10 13 -1 0
BITMAP
0040
0180
0200
0000
1FC0
1C00
3000
2000
2000
6000
4000
4000
C000
ENDCHAR
STARTCHAR 0454
ENCODING 1108
SWIDTH 462 0
DWIDTH 9 0
BBX 9 9 0 0
BITMAP
1F00
3180
4000
4000
7800
C000
C200
FE00
7800
ENDCHAR
STARTCHAR 0455
ENCODING 1109
SWIDTH 462 0
DWIDTH 9 0
BBX 9 9 0 0
BITMAP
1F00
3380
4000
6000
7E00
0300
0200
FE00
3800
ENDCHAR
STARTCHAR 0456
ENCODING 1110
SWIDTH 462 0
DWIDTH 9 0
BBX 6 13 1 0
BITMAP
04
04
04
00
18
08
18
10
10
30
20
F0
F0
ENDCHAR
STARTCHAR 0457
ENCODING 1111
SWIDTH 462 0
DWIDTH 9 0
BBX 8 13 1 0
BITMAP
19
11
11
00
18
08
18
10
10
30
20
F0
F0
ENDCHAR
STARTCHAR 0458
ENCODING 1112
SWIDTH 462 0
DWIDTH 9 0
BBX 10 16 0 -3
BITMAP
0040
00C0
0080
0000
0380
0100
0100
0300
0200
0200
0600
0400
0400
8C00
F800
F000
ENDCHAR
STARTCHAR 0459
ENCODING 1113
SWIDTH 462 0
DWIDTH 9 0
BBX 9 9 -1 0
BITMAP
0E00
1A00
2600
2780
2480
6C80
4980
CF00
9E00
ENDCHAR
STARTCHAR 045A
ENCODING 1114
SWIDTH 462 0
DWIDTH 9 0
BBX 9 9 -1 0
BITMAP
2200
2200
2600
6780
7C80
4C80
C980
8F00
9E00
ENDCHAR
STARTCHAR 045B
ENCODING 1115
SWIDTH 462 0
DWIDTH 9 0
BBX 10 12 -1 1
BITMAP
1800
3F00
1800
1F80
18C0
30C0
2080
2080
6180
4100
4100
C300
ENDCHAR
STARTCHAR 045C
ENCODING 1116
SWIDTH 462 0
DWIDTH 9 0
BBX 9 13 0 0
BITMAP
0080
0300
0400
0000
1180
2300
2600
2800
7000
5800
4800
8C00
8600
ENDCHAR
STARTCHAR 045D
ENCODING 1117
SWIDTH 462 0
DWIDTH 9 0
BBX 9 13 0 0
BITMAP
0C00
0600
0200
0000
2080
2080
6180
4100
4100
8300
8200
FE00
7E00
ENDCHAR
STARTCHAR 045E
ENCODING 1118
SWIDTH 462 0
DWIDTH 9 0
BBX 10 16 -1 -3
BITMAP
0440
0440
0380
0000
1040
1040
30C0
2080
2080
4180
4100
7F00
3F00
0200
FE00
F800
ENDCHAR
STARTCHAR 045F
ENCODING 1119
SWIDTH 462 0
DWIDTH 9 0
BBX 10 12 -1 -3
BITMAP
1040
1040
30C0
2080
2080
6180
4100
7F00
FF00
1000
1000
2000
ENDCHAR
STARTCHAR 0462
ENCODING 1122
SWIDTH 462 0
DWIDTH 9 0
BBX 9 12 -1 1
BITMAP
1800
3E00
1800
1F00
1080
3080
2080
2100
6100
4300
7E00
FC00
ENDCHAR
STARTCHAR 0463
ENCODING 1123
SWIDTH 462 0
DWIDTH 9 0
BBX 7 13 1 0
BITMAP
18
10
10
3C
20
20
20
7E
46
44
84
FC
F0
ENDCHAR
STARTCHAR 046A
ENCODING 1130
SWIDTH 462 0
DWIDTH 9 0
BBX 11 13 -1 0
BITMAP
0FE0
0FE0
0840
08C0
0C80
0700
0F00
3D80
2580
6D80
4900
4900
DB00
ENDCHAR
STARTCHAR 046B
ENCODING 1131
SWIDTH 462 0
DWIDTH 9 0
BBX 10 9 -1 0
BITMAP
1FC0
1040
3080
1B00
1E00
3F00
4900
4900
DB00
ENDCHAR
STARTCHAR 0490
ENCODING 1168
SWIDTH 462 0
DWIDTH 9 0
BBX 12 15 -1 0
BITMAP
0010
0010
0FF0
0FE0
0800
1800
1000
1000
3000
2000
2000
6000
4000
4000
C000
ENDCHAR
STARTCHAR 0491
ENCODING 1169
SWIDTH 462 0
DWIDTH 9 0
BBX 11 11 -1 0
BITMAP
0020
0020
1FC0
1C00
3000
2000
2000
6000
4000
4000
C000
ENDCHAR
STARTCHAR 0492
ENCODING 1170
SWIDTH 462 0
DWIDTH 9 0
BBX 11 13 -1 0
BITMAP
0FE0
0FE0
0800
1800
1000
1000
3C00
2000
2000
6000
4000
4000
C000
ENDCHAR
STARTCHAR 0493
ENCODING 1171
SWIDTH 462 0
DWIDTH 9 0
BBX 10 9 -1 0
BITMAP
1FC0
1C00
3000
2000
7C00
6000
4000
4000
C000
ENDCHAR
STARTCHAR 0494
ENCODING 1172
SWIDTH 462 0
DWIDTH 9 0
BBX 11 15 -1 -2
BITMAP
0FE0
0FE0
0800
1800
1000
1000
2000
3F80
2180
4180
4100
4100
C300
0200
0400
ENDCHAR
STARTCHAR 0495
ENCODING 1173
SWIDTH 462 0
DWIDTH 9 0
BBX 10 11 -1 -2
BITMAP
1FC0
1000
3000
2000
3C00
7E00
4600
4600
C600
0400
0800
ENDCHAR
STARTCHAR 0496
ENCODING 1174
SWIDTH 462 0
DWIDTH 9 0
BBX 11 16 -1 -3
BITMAP
0920
0920
0920
1B20
1AC0
0F80
0F00
1D80
2580
6D80
4980
4980
D900
0100
0100
0100
ENDCHAR
STARTCHAR 0497
ENCODING 1175
SWIDTH 462 0
DWIDTH 9 0
BBX 10 12 -1 -3
BITMAP
1240
1240
3780
1F00
1E00
3F00
4900
4980
DB80
0100
0100
0100
ENDCHAR
STARTCHAR 0498
ENCODING 1176
SWIDTH 462 0
DWIDTH 9 0
BBX 10 16 0 -3
BITMAP
0F80
1FC0
1040
0040
0080
0180
1F00
0100
0100
0300
8200
FE00
7800
2000
2000
6000
ENDCHAR
STARTCHAR 0499
ENCODING 1177
SWIDTH 462 0
DWIDTH 9 0
BBX 9 12 0 -3
BITMAP
1F00
3980
0180
0300
1E00
0200
8200
FE00
7800
2000
2000
4000
ENDCHAR
STARTCHAR 049A
ENCODING 1178
SWIDTH 462 0
DWIDTH 9 0
BBX 11 16 -1 -3
BITMAP
0820
0860
08C0
1980
1600
1C00
3800
3800
2C00
6400
4600
4300
C100
0100
0300
0200
ENDCHAR
STARTCHAR 049B
ENCODING 1179
SWIDTH 462 0
DWIDTH 9 0
BBX 9 12 0 -3
BITMAP
1180
2300
2600
2800
7000
5800
4800
8C00
8600
0400
0400
0C00
ENDCHAR
STARTCHAR 049C
ENCODING 1180
SWIDTH 462 0
DWIDTH 9 0
BBX 11 13 -1 0
BITMAP
0800
1020
1060
1580
3B00
3C00
3800
7C00
5C00
7600
C300
8300
8300
ENDCHAR
STARTCHAR 049D
ENCODING 1181
SWIDTH 462 0
DWIDTH 9 0
BBX 10 9 -1 0
BITMAP
1040
1CC0
3B00
3E00
3C00
7C00
5600
4300
C000
ENDCHAR
STARTCHAR 04A0
ENCODING 1184
SWIDTH 462 0
DWIDTH 9 0
BBX 11 13 -1 0
BITMAP
1820
1860
08C0
1980
1600
1C00
3000
3800
2C00
6400
4600
4300
C100
ENDCHAR
STARTCHAR 04A1
ENCODING 1185
SWIDTH 462 0
DWIDTH 9 0
BBX 9 9 0 0
BITMAP
7180
2300
2600
2800
7000
5800
4800
8C00
8600
ENDCHAR
STARTCHAR 04A2
ENCODING 1186
SWIDTH 462 0
DWIDTH 9 0
BBX 11 16 -1 -3
BITMAP
0820
0820
0820
1860
1040
1040
3FC0
2080
2080
6180
4100
4180
C180
0180
0100
0100
ENDCHAR
STARTCHAR 04A3
ENCODING 1187
SWIDTH 462 0
DWIDTH 9 0
BBX 10 12 -1 -3
BITMAP
1040
1040
30C0
2080
3F80
6180
4100
4180
C180
0180
0100
0100
ENDCHAR
STARTCHAR 04A4
ENCODING 1188
SWIDTH 462 0
DWIDTH 9 0
BBX 13 13 -1 0
BITMAP
08F8
10F8
1080
1080
3100
2100
3F00
6200
4200
4200
C400
8400
8400
ENDCHAR
STARTCHAR 04A5
ENCODING 1189
SWIDTH 462 0
DWIDTH 9 0
BBX 11 9 -1 0
BITMAP
21E0
2180
2100
6200
7E00
4200
C400
8400
8400
ENDCHAR
STARTCHAR 04AA
ENCODING 1194
SWIDTH 462 0
DWIDTH 9 0
BBX 10 16 0 -3
BITMAP
0F80
0FC0
1040
3040
2000
2000
6000
4000
4000
8000
8200
FE00
7800
2000
2000
6000
ENDCHAR
STARTCHAR 04AB
ENCODING 1195
SWIDTH 462 0
DWIDTH 9 0
BBX 9 12 0 -3
BITMAP
1F00
3180
6000
4000
4000
8000
8200
FE00
7800
2000
2000
6000
ENDCHAR
STARTCHAR 04AE
ENCODING 1198
SWIDTH 462 0
DWIDTH 9 0
BBX 8 13 2 0
BITMAP
41
41
43
46
64
28
30
20
20
60
40
40
C0
ENDCHAR
STARTCHAR 04AF
ENCODING 1199
SWIDTH 462 0
DWIDTH 9 0
BBX 8 12 1 -3
BITMAP
41
41
42
46
4C
48
70
60
60
40
40
80
ENDCHAR
STARTCHAR 04B0
ENCODING 1200
SWIDTH 462 0
DWIDTH 9 0
BBX 9 13 1 0
BITMAP
2080
2080
2180
2300
3200
1400
1800
1800
FC00
3000
2000
2000
6000
ENDCHAR
STARTCHAR 04B1
ENCODING 1201
SWIDTH 462 0
DWIDTH 9 0
BBX 9 12 0 -3
BITMAP
2080
2080
2100
2300
2600
2400
3800
3000
FC00
2000
2000
6000
ENDCHAR
STARTCHAR 04B2
ENCODING 1202
SWIDTH 462 0
DWIDTH 9 0
BBX 10 16 0 -3
BITMAP
1040
1040
1880
0900
0B00
0E00
0C00
1C00
3400
2400
4400
8600
0300
0200
0200
0200
ENDCHAR
STARTCHAR 04B3
ENCODING 1203
SWIDTH 462 0
DWIDTH 9 0
BBX 9 12 0 -3
BITMAP
2080
3180
3300
1C00
1800
3C00
4600
8600
0300
0200
0200
0200
ENDCHAR
STARTCHAR 04B6
ENCODING 1206
SWIDTH 462 0
DWIDTH 9 0
BBX 9 16 1 -3
BITMAP
2080
2080
2080
6180
4100
4100
DF00
7E00
0200
0600
0400
0600
0E00
0600
0400
0400
ENDCHAR
STARTCHAR 04B7
ENCODING 1207
SWIDTH 462 0
DWIDTH 9 0
BBX 8 12 1 -3
BITMAP
41
41
C3
C2
7E
06
04
06
06
06
04
04
ENDCHAR
STARTCHAR 04B8
ENCODING 1208
SWIDTH 462 0
DWIDTH 9 0
BBX 9 13 1 0
BITMAP
2000
2080
2080
6180
4900
4900
DF00
3E00
1200
3600
0400
0400
0C00
ENDCHAR
STARTCHAR 04B9
ENCODING 1209
SWIDTH 462 0
DWIDTH 9 0
BBX 8 9 1 0
BITMAP
41
41
D3
D2
7E
36
24
04
0C
ENDCHAR
STARTCHAR 04BA
ENCODING 1210
SWIDTH 462 0
DWIDTH 9 0
BBX 9 13 -1 0
BITMAP
0800
0800
0800
1800
1000
1F80
3F80
2080
2080
6180
4100
4100
C300
ENDCHAR
STARTCHAR 04BB
ENCODING 1211
SWIDTH 462 0
DWIDTH 9 0
BBX 9 9 -1 0
BITMAP
1000
1000
3000
3F00
2380
6180
4100
4100
C300
ENDCHAR
STARTCHAR 04C0
ENCODING 1216
SWIDTH 462 0
DWIDTH 9 0
BBX 8 13 1 0
BITMAP
0F
0E
04
08
08
08
18
10
10
30
20
F0
F0
ENDCHAR
STARTCHAR 04C1
ENCODING 1217
SWIDTH 462 0
DWIDTH 9 0
BBX 11 16 -1 0
BITMAP
0320
0120
01C0
0920
0920
0920
1B20
1AC0
0F80
0F00
1D80
2580
6D80
4900
4900
DB00
ENDCHAR
STARTCHAR 04C2
ENCODING 1218
SWIDTH 462 0
DWIDTH 9 0
BBX 10 13 -1 0
BITMAP
0440
0440
0380
0000
1240
1240
3780
1F00
1E00
3F00
4900
4900
DB00
ENDCHAR
STARTCHAR 04CF
ENCODING 1231
SWIDTH 462 0
DWIDTH 9 0
BBX 6 13 1 0
BITMAP
0C
0C
04
0C
08
08
18
10
10
30
20
F0
F0
ENDCHAR
STARTCHAR 04D0
ENCODING 1232
SWIDTH 462 0
DWIDTH 9 0
BBX 11 16 -1 0
BITMAP
0320
0120
01C0
07C0
07E0
0820
1860
1040
1040
20C0
3F80
2080
4180
4100
4100
C300
ENDCHAR
STARTCHAR 04D1
ENCODING 1233
SWIDTH 462 0
DWIDTH 9 0
BBX 9 13 0 0
BITMAP
0880
0880
0700
0000
3F00
0180
0180
3F00
4100
C300
8200
FE00
0E00
ENDCHAR
STARTCHAR 04D2
ENCODING 1234
SWIDTH 462 0
DWIDTH 9 0
BBX 11 16 -1 0
BITMAP
0120
0320
0220
07C0
07E0
0820
1860
1040
1040
20C0
3F80
2080
4180
4100
4100
C300
ENDCHAR
STARTCHAR 04D3
ENCODING 1235
SWIDTH 462 0
DWIDTH 9 0
BBX 9 13 0 0
BITMAP
0C80
0880
0880
0000
3F00
0180
0180
3F00
4100
C300
8200
FE00
0E00
ENDCHAR
STARTCHAR 04D4
ENCODING 1236
SWIDTH 462 0
DWIDTH 9 0
BBX 13 13 -1 0
BITMAP
07F8
0FF8
1180
1100
3100
2300
3FC0
6200
4600
4400
C400
8F80
8F80
ENDCHAR
STARTCHAR 04D5
ENCODING 1237
SWIDTH 462 0
DWIDTH 9 0
BBX 11 9 -1 0
BITMAP
1FC0
0660
0440
1E40
67C0
4C00
CC00
7F80
7F00
ENDCHAR
STARTCHAR 04D6
ENCODING 1238
SWIDTH 462 0
DWIDTH 9 0
BBX 11 16 -1 0
BITMAP
0320
0120
01C0
0FE0
0FE0
0800
1800
1000
1000
3F00
2000
2000
4000
4000
7F00
FF00
ENDCHAR
STARTCHAR 04D7
ENCODING 1239
SWIDTH 462 0
DWIDTH 9 0
BBX 9 13 0 0
BITMAP
0880
0880
0700
0000
1F00
3180
4180
4100
7F00
C000
C000
FE00
7C00
ENDCHAR
STARTCHAR 04D8
ENCODING 1240
SWIDTH 462 0
DWIDTH 9 0
BBX 10 13 0 0
BITMAP
0F80
1FC0
1040
00C0
0080
0080
7F80
4100
4100
8300
8200
FE00
7800
ENDCHAR
STARTCHAR 04D9
ENCODING 1241
SWIDTH 462 0
DWIDTH 9 0
BBX 9 9 0 0
BITMAP
3F00
3180
0180
0100
7F00
C300
8200
FE00
7800
ENDCHAR
STARTCHAR 04DA
ENCODING 1242
SWIDTH 462 0
DWIDTH 9 0
BBX 10 16 0 0
BITMAP
0240
0640
0440
0F80
1FC0
1040
00C0
0080
0080
7F80
4100
4100
8300
8200
FE00
7800
ENDCHAR
STARTCHAR 04DB
ENCODING 1243
SWIDTH 462 0
DWIDTH 9 0
BBX 9 13 0 0
BITMAP
0C80
0880
0880
0000
3F00
3180
0180
0100
7F00
C300
8200
FE00
7800
ENDCHAR
STARTCHAR 04DC
ENCODING 1244
SWIDTH 462 0
DWIDTH 9 0
BBX 11 16 -1 0
BITMAP
0120
0320
0220
0920
0920
0920
1B20
1AC0
0F80
0F00
1D80
2580
6D80
4900
4900
DB00
ENDCHAR
STARTCHAR 04DD
ENCODING 1245
SWIDTH 462 0
DWIDTH 9 0
BBX 10 13 -1 0
BITMAP
0640
0440
0440
0000
1240
1240
3780
1F00
1E00
3F00
4900
4900
DB00
ENDCHAR
STARTCHAR 04DE
ENCODING 1246
SWIDTH 462 0
DWIDTH 9 0
BBX 10 16 0 0
BITMAP
0240
0640
0440
0F80
1FC0
1040
0040
0080
0180
1F00
0100
0100
0300
8200
FE00
3800
ENDCHAR
STARTCHAR 04DF
ENCODING 1247
SWIDTH 462 0
DWIDTH 9 0
BBX 9 13 0 0
BITMAP
0C80
0880
0880
0000
1F00
3980
0180
0300
1E00
0200
8200
FE00
7800
ENDCHAR
STARTCHAR 04E2
ENCODING 1250
SWIDTH 462 0
DWIDTH 9 0
BBX 11 15 -1 0
BITMAP
03E0
0000
0820
0820
0820
1860
10C0
1340
36C0
2C80
3080
6180
4100
4100
C300
ENDCHAR
STARTCHAR 04E3
ENCODING 1251
SWIDTH 462 0
DWIDTH 9 0
BBX 9 11 0 0
BITMAP
0F80
0000
2080
2080
6180
4100
4100
8300
8200
FE00
7E00
ENDCHAR
STARTCHAR 04E4
ENCODING 1252
SWIDTH 462 0
DWIDTH 9 0
BBX 11 16 -1 0
BITMAP
0120
0320
0220
0820
0820
0820
1860
10C0
1340
36C0
2C80
3080
6180
4100
4100
C300
ENDCHAR
STARTCHAR 04E5
ENCODING 1253
SWIDTH 462 0
DWIDTH 9 0
BBX 9 13 0 0
BITMAP
0C80
0880
0880
0000
2080
2080
6180
4100
4100
8300
8200
FE00
7E00
ENDCHAR
STARTCHAR 04E6
ENCODING 1254
SWIDTH 462 0
DWIDTH 9 0
BBX 10 16 0 0
BITMAP
0240
0640
0440
0F80
0FC0
10C0
30C0
2080
2080
6180
4100
4100
C300
8200
FE00
7800
ENDCHAR
STARTCHAR 04E7
ENCODING 1255
SWIDTH 462 0
DWIDTH 9 0
BBX 9 13 0 0
BITMAP
0C80
0880
0880
0000
1F00
3180
6180
4100
4100
8300
8200
FE00
7800
ENDCHAR
STARTCHAR 04E8
ENCODING 1256
SWIDTH 462 0
DWIDTH 9 0
BBX 10 13 0 0
BITMAP
0F80
0FC0
1040
30C0
2080
2080
7F80
4100
4100
8300
8200
FE00
7800
ENDCHAR
STARTCHAR 04E9
ENCODING 1257
SWIDTH 462 0
DWIDTH 9 0
BBX 9 9 0 0
BITMAP
1F00
3180
4180
4100
7F00
C300
8200
FE00
7800
ENDCHAR
STARTCHAR 04EA
ENCODING 1258
SWIDTH 462 0
DWIDTH 9 0
BBX 10 16 0 0
BITMAP
0240
0640
0440
0F80
0FC0
1040
30C0
2080
2080
7F80
4100
4100
8300
8200
FE00
7800
ENDCHAR
STARTCHAR 04EB
ENCODING 1259
SWIDTH 462 0
DWIDTH 9 0
BBX 9 13 0 0
BITMAP
0C80
0880
0880
0000
1F00
3180
4180
4100
7F00
C300
8200
FE00
7800
ENDCHAR
STARTCHAR 04EC
ENCODING 1260
SWIDTH 462 0
DWIDTH 9 0
BBX 10 16 0 0
BITMAP
0240
0640
0440
0F80
1FC0
1040
00C0
0080
0080
1F80
0100
0100
0300
8200
FE00
1800
ENDCHAR
STARTCHAR 04ED
ENCODING 1261
SWIDTH 462 0
DWIDTH 9 0
BBX 9 13 0 0
BITMAP
0C80
0880
0880
0000
1F00
3980
0180
0100
1F00
0300
8200
FE00
7800
ENDCHAR
STARTCHAR 04EE
ENCODING 1262
SWIDTH 462 0
DWIDTH 9 0
BBX 10 15 0 0
BITMAP
07C0
0000
1000
1040
1040
30C0
2080
2080
6F80
3F00
0100
0300
0200
FE00
F800
ENDCHAR
STARTCHAR 04EF
ENCODING 1263
SWIDTH 462 0
DWIDTH 9 0
BBX 10 14 -1 -3
BITMAP
07C0
0000
1040
1040
30C0
2080
2080
4180
4100
7F00
3F00
0200
FE00
F800
ENDCHAR
STARTCHAR 04F0
ENCODING 1264
SWIDTH 462 0
DWIDTH 9 0
BBX 10 16 0 0
BITMAP
0240
0640
0440
1000
1040
1040
30C0
2080
2080
6F80
3F00
0100
0300
0200
FE00
F800
ENDCHAR
STARTCHAR 04F1
ENCODING 1265
SWIDTH 462 0
DWIDTH 9 0
BBX 10 16 -1 -3
BITMAP
0640
0440
0440
0000
1040
1040
30C0
2080
2080
4180
4100
7F00
3F00
0200
FE00
F800
ENDCHAR
STARTCHAR 04F2
ENCODING 1266
SWIDTH 462 0
DWIDTH 9 0
BBX 12 16 0 0
BITMAP
0190
0360
06C0
1000
1040
1040
30C0
2080
2080
6F80
3F00
0100
0300
0200
FE00
F800
ENDCHAR
STARTCHAR 04F3
ENCODING 1267
SWIDTH 462 0
DWIDTH 9 0
BBX 12 16 -1 -3
BITMAP
01B0
0360
07C0
0000
1040
1040
30C0
2080
2080
4180
4100
7F00
3F00
0200
FE00
F800
ENDCHAR
STARTCHAR 04F4
ENCODING 1268
SWIDTH 462 0
DWIDTH 9 0
BBX 9 16 1 0
BITMAP
0480
0C80
0880
2000
2080
2080
6180
4100
4100
DF00
7E00
0200
0600
0400
0400
0C00
ENDCHAR
STARTCHAR 04F5
ENCODING 1269
SWIDTH 462 0
DWIDTH 9 0
BBX 8 13 1 0
BITMAP
19
11
11
00
41
41
C3
C2
7E
06
04
04
0C
ENDCHAR
STARTCHAR 04F8
ENCODING 1272
SWIDTH 462 0
DWIDTH 9 0
BBX 11 16 -1 0
BITMAP
0120
0320
0220
0820
1820
1020
1060
3E40
2340
22C0
6280
4680
4580
CD00
F900
F300
ENDCHAR
STARTCHAR 04F9
ENCODING 1273
SWIDTH 462 0
DWIDTH 9 0
BBX 10 13 -1 0
BITMAP
0640
0440
0440
0000
2040
2040
20C0
7C80
4480
4580
CD00
F900
F300
ENDCHAR
STARTCHAR 05D0
ENCODING 1488
SWIDTH 462 0
DWIDTH 9 0
BBX 11 13 -1 0
BITMAP
0820
0820
0C20
0420
0440
04C0
0F00
3200
2200
6200
4300
4300
C300
ENDCHAR
STARTCHAR 05D1
ENCODING 1489
SWIDTH 462 0
DWIDTH 9 0
BBX 10 13 -1 0
BITMAP
1F80
1FC0
0040
0040
00C0
0080
0080
0180
0100
0100
0100
FF00
FF00
ENDCHAR
STARTCHAR 05D2
ENCODING 1490
SWIDTH 462 0
DWIDTH 9 0
BBX 9 13 -1 0
BITMAP
0700
0780
0080
0080
0100
0100
0100
0300
0700
0900
3100
6100
8100
ENDCHAR
STARTCHAR 05D3
ENCODING 1491
SWIDTH 462 0
DWIDTH 9 0
BBX 9 13 2 0
BITMAP
FF80
FF80
0200
0200
0600
0400
0400
0C00
0800
0800
1800
1000
1000
ENDCHAR
STARTCHAR 05D4
ENCODING 1492
SWIDTH 462 0
DWIDTH 9 0
BBX 11 13 -1 0
BITMAP
0FC0
0FE0
0020
0060
1040
1040
30C0
2080
2080
6180
4100
4100
C300
ENDCHAR
STARTCHAR 05D5
ENCODING 1493
SWIDTH 462 0
DWIDTH 9 0
BBX 5 13 2 0
BITMAP
30
38
18
18
10
10
30
20
20
60
40
40
C0
ENDCHAR
STARTCHAR 05D6
ENCODING 1494
SWIDTH 462 0
DWIDTH 9 0
BBX 8 13 2 0
BITMAP
3F
3F
0C
18
10
10
30
20
20
60
40
40
C0
ENDCHAR
STARTCHAR 05D7
ENCODING 1495
SWIDTH 462 0
DWIDTH 9 0
BBX 11 13 -1 0
BITMAP
0FC0
0FE0
0820
1860
1040
1040
30C0
2080
2080
6180
4100
4100
C300
ENDCHAR
STARTCHAR 05D8
ENCODING 1496
SWIDTH 462 0
DWIDTH 9 0
BBX 10 13 0 0
BITMAP
1180
11C0
10C0
30C0
2080
2080
6180
4100
4100
C300
8200
FE00
7800
ENDCHAR
STARTCHAR 05D9
ENCODING 1497
SWIDTH 462 0
DWIDTH 9 0
BBX 3 7 4 6
BITMAP
C0
E0
60
60
40
40
80
ENDCHAR
STARTCHAR 05DA
ENCODING 1498
SWIDTH 462 0
DWIDTH 9 0
BBX 7 16 3 -3
BITMAP
FC
FE
02
06
04
04
0C
08
08
18
10
10
30
20
20
40
ENDCHAR
STARTCHAR 05DB
ENCODING 1499
SWIDTH 462 0
DWIDTH 9 0
BBX 11 13 -1 0
BITMAP
0FC0
0FE0
0060
0060
0040
0040
00C0
0080
0080
0180
0100
FF00
FC00
ENDCHAR
STARTCHAR 05DC
ENCODING 1500
SWIDTH 462 0
DWIDTH 9 0
BBX 8 15 2 0
BITMAP
20
20
7F
7F
01
03
02
06
0C
30
60
40
C0
80
80
ENDCHAR
STARTCHAR 05DD
ENCODING 1501
SWIDTH 462 0
DWIDTH 9 0
BBX 11 13 -1 0
BITMAP
0FC0
0FE0
0820
1860
1040
1040
30C0
2080
2080
4180
4100
7F00
FF00
ENDCHAR
STARTCHAR 05DE
ENCODING 1502
SWIDTH 462 0
DWIDTH 9 0
BBX 11 12 -1 0
BITMAP
1FC0
1860
1840
1040
1040
30C0
2080
2080
6180
4100
4F00
CF00
ENDCHAR
STARTCHAR 05DF
ENCODING 1503
SWIDTH 462 0
DWIDTH 9 0
BBX 5 15 3 -3
BITMAP
70
78
08
08
10
10
10
20
20
20
40
40
40
80
80
ENDCHAR
STARTCHAR 05E0
ENCODING 1504
SWIDTH 462 0
DWIDTH 9 0
BBX 8 13 1 0
BITMAP
1E
1F
03
02
02
02
04
04
04
08
08
F8
F0
ENDCHAR
STARTCHAR 05E1
ENCODING 1505
SWIDTH 462 0
DWIDTH 9 0
BBX 10 13 0 0
BITMAP
3F80
3FC0
10C0
30C0
2080
2080
6180
4100
4100
C300
8200
FE00
7800
ENDCHAR
STARTCHAR 05E2
ENCODING 1506
SWIDTH 462 0
DWIDTH 9 0
BBX 11 13 -1 0
BITMAP
0820
0820
0820
0860
0840
0840
0880
0880
0B00
0A00
0C00
F000
E000
ENDCHAR
STARTCHAR 05E3
ENCODING 1507
SWIDTH 462 0
DWIDTH 9 0
BBX 8 16 2 -3
BITMAP
7E
7F
41
C3
82
C2
E6
04
04
0C
08
08
18
10
10
20
ENDCHAR
STARTCHAR 05E4
ENCODING 1508
SWIDTH 462 0
DWIDTH 9 0
BBX 11 13 -1 0
BITMAP
0FC0
0FE0
0860
1860
1040
1840
1CC0
0080
0080
0180
0100
FF00
FC00
ENDCHAR
STARTCHAR 05E5
ENCODING 1509
SWIDTH 462 0
DWIDTH 9 0
BBX 9 16 1 -3
BITMAP
2080
2080
3080
1180
1300
1C00
1800
1000
1000
3000
2000
2000
6000
4000
4000
8000
ENDCHAR
STARTCHAR 05E6
ENCODING 1510
SWIDTH 462 0
DWIDTH 9 0
BBX 11 13 -1 0
BITMAP
0820
0820
0C20
0460
04C0
0700
0600
0600
0600
0200
0200
FE00
FE00
ENDCHAR
STARTCHAR 05E7
ENCODING 1511
SWIDTH 462 0
DWIDTH 9 0
BBX 12 16 -2 -3
BITMAP
07F0
07F0
0010
0030
0820
0860
18C0
1300
1600
3400
2C00
2800
6800
4000
4000
8000
ENDCHAR
STARTCHAR 05E8
ENCODING 1512
SWIDTH 462 0
DWIDTH 9 0
BBX 7 13 3 0
BITMAP
FC
FE
02
06
04
04
0C
08
08
18
10
10
30
ENDCHAR
STARTCHAR 05E9
ENCODING 1513
SWIDTH 462 0
DWIDTH 9 0
BBX 11 13 -1 0
BITMAP
0900
0920
0920
1B60
1240
1240
2CC0
3880
2080
6180
4100
7F00
FC00
ENDCHAR
STARTCHAR 05EA
ENCODING 1514
SWIDTH 462 0
DWIDTH 9 0
BBX 12 13 -2 0
BITMAP
0FE0
0FF0
0410
0C30
0820
0820
1060
1040
1040
20C0
2080
E080
C180
ENDCHAR
STARTCHAR 1E0C
ENCODING 7692
SWIDTH 462 0
DWIDTH 9 0
BBX 11 15 -1 -3
BITMAP
0F80
0FC0
0840
1860
1040
1040
30C0
2080
2080
4100
4300
7E00
F800
2000
2000
ENDCHAR
STARTCHAR 1E0D
ENCODING 7693
SWIDTH 462 0
DWIDTH 9 0
BBX 10 16 0 -3
BITMAP
0040
0040
0040
0040
1F80
3080
6180
4100
4100
8300
8200
FE00
7E00
3000
2000
2000
ENDCHAR
STARTCHAR 1E34
ENCODING 7732
SWIDTH 462 0
DWIDTH 9 0
BBX 11 15 -1 -2
BITMAP
0820
0860
08C0
1980
1600
1C00
3000
3800
2C00
6400
4600
4300
C100
0000
7C00
ENDCHAR
STARTCHAR 1E35
ENCODING 7733
SWIDTH 462 0
DWIDTH 9 0
BBX 9 15 0 -2
BITMAP
0800
0800
1800
1000
1180
2300
2600
2800
7000
5800
4800
8C00
8600
0000
7800
ENDCHAR
STARTCHAR 1E36
ENCODING 7734
SWIDTH 462 0
DWIDTH 9 0
BBX 8 16 -1 -3
BITMAP
08
08
08
18
10
10
30
20
20
60
40
7F
FF
10
10
20
ENDCHAR
STARTCHAR 1E37
ENCODING 7735
SWIDTH 462 0
DWIDTH 9 0
BBX 6 16 1 -3
BITMAP
0C
0C
04
0C
08
08
18
10
10
30
20
F0
F0
40
40
80
ENDCHAR
STARTCHAR 1E40
ENCODING 7744
SWIDTH 462 0
DWIDTH 9 0
BBX 11 16 -1 0
BITMAP
00C0
0080
0080
0800
1820
1860
14E0
3740
2640
20C0
6080
4080
4180
C100
8100
8300
ENDCHAR
STARTCHAR 1E41
ENCODING 7745
SWIDTH 462 0
DWIDTH 9 0
BBX 10 13 -1 0
BITMAP
0100
0100
0100
0000
1F80
12C0
36C0
2480
2480
6D80
4900
4900
DB00
ENDCHAR
STARTCHAR 1E42
ENCODING 7746
SWIDTH 462 0
DWIDTH 9 0
BBX 11 16 -1 -3
BITMAP
0800
1820
1860
14E0
3740
2640
20C0
6080
4080
4180
C100
8100
8300
1000
1000
2000
ENDCHAR
STARTCHAR 1E43
ENCODING 7747
SWIDTH 462 0
DWIDTH 9 0
BBX 10 12 -1 -3
BITMAP
1F80
12C0
36C0
2480
2480
6D80
4900
4900
DB00
1000
1000
2000
ENDCHAR
STARTCHAR 1E44
ENCODING 7748
SWIDTH 462 0
DWIDTH 9 0
BBX 11 16 -1 0
BITMAP
00C0
0080
0080
0800
0820
0820
1860
1C40
1C40
36C0
2380
2380
6180
4100
4100
C300
ENDCHAR
STARTCHAR 1E45
ENCODING 7749
SWIDTH 462 0
DWIDTH 9 0
BBX 10 13 -1 0
BITMAP
0100
0100
0100
0000
1F80
18C0
30C0
2080
2080
6180
4100
4100
C300
ENDCHAR
STARTCHAR 1E46
ENCODING 7750
SWIDTH 462 0
DWIDTH 9 0
BBX 11 16 -1 -3
BITMAP
0800
0820
0820
1860
1C40
1C40
36C0
2380
2380
6180
4100
4100
C300
1000
1000
2000
ENDCHAR
STARTCHAR 1E47
ENCODING 7751
SWIDTH 462 0
DWIDTH 9 0
BBX 10 12 -1 -3
BITMAP
1F80
18C0
30C0
2080
2080
6180
4100
4100
C300
1000
1000
2000
ENDCHAR
STARTCHAR 1E6C
ENCODING 7788
SWIDTH 462 0
DWIDTH 9 0
BBX 9 16 1 -3
BITMAP
3F80
3F80
0400
0C00
0800
0800
1800
1000
1000
3000
2000
2000
0000
4000
4000
8000
ENDCHAR
STARTCHAR 1E6D
ENCODING 7789
SWIDTH 462 0
DWIDTH 9 0
BBX 6 16 2 -3
BITMAP
08
18
10
10
FC
30
20
60
40
40
C0
78
78
20
60
40
ENDCHAR
STARTCHAR 1EB8
ENCODING 7864
SWIDTH 462 0
DWIDTH 9 0
BBX 11 16 -1 -3
BITMAP
0FE0
0FE0
0800
1800
1000
1000
3F00
2000
2000
4000
4000
7F00
FF00
1000
1000
2000
ENDCHAR
STARTCHAR 1EB9
ENCODING 7865
SWIDTH 462 0
DWIDTH 9 0
BBX 9 12 0 -3
BITMAP
1F00
3180
4180
4100
7F00
C000
C000
FE00
7C00
2000
2000
4000
ENDCHAR
STARTCHAR 1EBC
ENCODING 7868
SWIDTH 462 0
DWIDTH 9 0
BBX 12 16 -1 0
BITMAP
0190
02B0
04E0
0FE0
0FE0
0800
1800
1000
1000
3F00
2000
2000
4000
4000
7F00
FF00
ENDCHAR
STARTCHAR 1EBD
ENCODING 7869
SWIDTH 462 0
DWIDTH 9 0
BBX 10 13 0 0
BITMAP
0C40
0E40
1380
0000
1F00
3180
4180
4100
7F00
C000
C000
FE00
7C00
ENDCHAR
STARTCHAR 1ECA
ENCODING 7882
SWIDTH 462 0
DWIDTH 9 0
BBX 8 16 1 -3
BITMAP
0F
0E
04
08
08
08
18
10
10
30
20
F0
F0
40
40
80
ENDCHAR
STARTCHAR 1ECB
ENCODING 7883
SWIDTH 462 0
DWIDTH 9 0
BBX 6 16 1 -3
BITMAP
04
04
04
00
18
08
18
10
10
30
20
F0
F0
40
40
80
ENDCHAR
STARTCHAR 1ECC
ENCODING 7884
SWIDTH 462 0
DWIDTH 9 0
BBX 10 16 0 -3
BITMAP
0F80
0FC0
10C0
30C0
2080
2080
6180
4100
4100
C300
8200
FE00
7800
2000
2000
4000
ENDCHAR
STARTCHAR 1ECD
ENCODING 7885
SWIDTH 462 0
DWIDTH 9 0
BBX 9 12 0 -3
BITMAP
1F00
3180
6180
4100
4100
8300
8200
FE00
7800
2000
2000
4000
ENDCHAR
STARTCHAR 1EE4
ENCODING 7908
SWIDTH 462 0
DWIDTH 9 0
BBX 10 16 0 -3
BITMAP
1000
1040
1040
30C0
2080
2080
6180
4100
4100
C300
8200
FE00
7800
2000
2000
4000
ENDCHAR
STARTCHAR 1EE5
ENCODING 7909
SWIDTH 462 0
DWIDTH 9 0
BBX 9 12 0 -3
BITMAP
2080
2080
6180
4100
4100
8300
8200
FE00
7E00
3000
2000
2000
ENDCHAR
STARTCHAR 1EF8
ENCODING 7928
SWIDTH 462 0
DWIDTH 9 0
BBX 9 16 2 0
BITMAP
0C80
1580
2700
4100
4100
4300
4600
6400
2800
3000
2000
2000
6000
4000
4000
C000
ENDCHAR
STARTCHAR 1EF9
ENCODING 7929
SWIDTH 462 0
DWIDTH 9 0
BBX 11 16 -1 -3
BITMAP
0620
0720
09C0
0000
1040
1040
30C0
2080
2080
4180
4100
7F00
3F00
0200
FE00
F800
ENDCHAR
STARTCHAR 2000
ENCODING 8192
SWIDTH 462 0
DWIDTH 9 0
BBX 0 0 0 0
BITMAP
ENDCHAR
STARTCHAR 2001
ENCODING 8193
SWIDTH 462 0
DWIDTH 9 0
BBX 0 0 0 0
BITMAP
ENDCHAR
STARTCHAR 2002
ENCODING 8194
SWIDTH 462 0
DWIDTH 9 0
BBX 0 0 0 0
BITMAP
ENDCHAR
STARTCHAR 2003
ENCODING 8195
SWIDTH 462 0
DWIDTH 9 0
BBX 0 0 0 0
BITMAP
ENDCHAR
STARTCHAR 2004
ENCODING 8196
SWIDTH 462 0
DWIDTH 9 0
BBX 0 0 0 0
BITMAP
ENDCHAR
STARTCHAR 2005
ENCODING 8197
SWIDTH 462 0
DWIDTH 9 0
BBX 0 0 0 0
BITMAP
ENDCHAR
STARTCHAR 2006
ENCODING 8198
SWIDTH 462 0
DWIDTH 9 0
BBX 0 0 0 0
BITMAP
ENDCHAR
STARTCHAR 2007
ENCODING 8199
SWIDTH 462 0
DWIDTH 9 0
BBX 0 0 0 0
BITMAP
ENDCHAR
STARTCHAR 2008
ENCODING 8200
SWIDTH 462 0
DWIDTH 9 0
BBX 0 0 0 0
BITMAP
ENDCHAR
STARTCHAR 2009
ENCODING 8201
SWIDTH 462 0
DWIDTH 9 0
BBX 0 0 0 0
BITMAP
ENDCHAR
STARTCHAR 200A
ENCODING 8202
SWIDTH 462 0
DWIDTH 9 0
BBX 0 0 0 0
BITMAP
ENDCHAR
STARTCHAR 200B
ENCODING 8203
SWIDTH 462 0
DWIDTH 9 0
BBX 0 0 0 0
BITMAP
ENDCHAR
STARTCHAR 200C
ENCODING 8204
SWIDTH 462 0
DWIDTH 9 0
BBX 0 0 0 0
BITMAP
ENDCHAR
STARTCHAR 200D
ENCODING 8205
SWIDTH 462 0
DWIDTH 9 0
BBX 0 0 0 0
BITMAP
ENDCHAR
STARTCHAR 200E
ENCODING 8206
SWIDTH 462 0
DWIDTH 9 0
BBX 0 0 0 0
BITMAP
ENDCHAR
STARTCHAR 200F
ENCODING 8207
SWIDTH 462 0
DWIDTH 9 0
BBX 0 0 0 0
BITMAP
ENDCHAR
STARTCHAR 2010
ENCODING 8208
SWIDTH 462 0
DWIDTH 9 0
BBX 6 1 2 6
BITMAP
FC
ENDCHAR
STARTCHAR 2011
ENCODING 8209
SWIDTH 462 0
DWIDTH 9 0
BBX 6 1 2 6
BITMAP
FC
ENDCHAR
STARTCHAR 2012
ENCODING 8210
SWIDTH 462 0
DWIDTH 9 0
BBX 8 1 1 6
BITMAP
FF
ENDCHAR
STARTCHAR 2013
ENCODING 8211
SWIDTH 462 0
DWIDTH 9 0
BBX 8 1 1 6
BITMAP
FF
ENDCHAR
STARTCHAR 2014
ENCODING 8212
SWIDTH 462 0
DWIDTH 9 0
BBX 8 1 1 6
BITMAP
FF
ENDCHAR
STARTCHAR 2015
ENCODING 8213
SWIDTH 462 0
DWIDTH 9 0
BBX 8 1 1 6
BITMAP
FF
ENDCHAR
STARTCHAR 2016
ENCODING 8214
SWIDTH 462 0
DWIDTH 9 0
BBX 8 13 1 0
BITMAP
09
0A
1A
12
14
34
24
28
68
48
50
D0
90
ENDCHAR
STARTCHAR 2017
ENCODING 8215
SWIDTH 462 0
DWIDTH 9 0
BBX 8 3 -2 -3
BITMAP
7F
00
FE
ENDCHAR
STARTCHAR 2018
ENCODING 8216
SWIDTH 462 0
DWIDTH 9 0
BBX 3 4 6 10
BITMAP
60
80
80
80
ENDCHAR
STARTCHAR 2019
ENCODING 8217
SWIDTH 462 0
DWIDTH 9 0
BBX 3 4 5 10
BITMAP
20
60
40
80
ENDCHAR
STARTCHAR 201A
ENCODING 8218
SWIDTH 462 0
DWIDTH 9 0
BBX 3 4 1 -1
BITMAP
20
20
40
C0
ENDCHAR
STARTCHAR 201B
ENCODING 8219
SWIDTH 462 0
DWIDTH 9 0
BBX 2 4 6 10
BITMAP
40
C0
C0
80
ENDCHAR
STARTCHAR 201C
ENCODING 8220
SWIDTH 462 0
DWIDTH 9 0
BBX 6 4 4 10
BITMAP
24
48
88
98
ENDCHAR
STARTCHAR 201D
ENCODING 8221
SWIDTH 462 0
DWIDTH 9 0
BBX 6 4 4 10
BITMAP
24
44
C8
88
ENDCHAR
STARTCHAR 201E
ENCODING 8222
SWIDTH 462 0
DWIDTH 9 0
BBX 6 4 0 -1
BITMAP
44
4C
88
90
ENDCHAR
STARTCHAR 201F
ENCODING 8223
SWIDTH 462 0
DWIDTH 9 0
BBX 5 4 4 10
BITMAP
88
88
88
88
ENDCHAR
STARTCHAR 2020
ENCODING 8224
SWIDTH 462 0
DWIDTH 9 0
BBX 7 13 2 0
BITMAP
08
08
08
7E
10
10
30
20
20
60
40
40
C0
ENDCHAR
STARTCHAR 2021
ENCODING 8225
SWIDTH 462 0
DWIDTH 9 0
BBX 8 13 1 0
BITMAP
04
04
04
3F
08
08
18
10
10
FC
20
20
60
ENDCHAR
STARTCHAR 2022
ENCODING 8226
SWIDTH 462 0
DWIDTH 9 0
BBX 4 3 3 5
BITMAP
70
F0
E0
ENDCHAR
STARTCHAR 2026
ENCODING 8230
SWIDTH 462 0
DWIDTH 9 0
BBX 7 2 0 0
BITMAP
92
92
ENDCHAR
STARTCHAR 2030
ENCODING 8240
SWIDTH 462 0
DWIDTH 9 0
BBX 10 13 -1 0
BITMAP
0440
0E40
0E80
0D00
0200
0400
0C00
0800
1000
2F80
5F80
9F80
8000
ENDCHAR
STARTCHAR 2032
ENCODING 8242
SWIDTH 462 0
DWIDTH 9 0
BBX 3 5 5 9
BITMAP
20
60
60
40
C0
ENDCHAR
STARTCHAR 2033
ENCODING 8243
SWIDTH 462 0
DWIDTH 9 0
BBX 7 5 3 9
BITMAP
66
64
4C
C8
88
ENDCHAR
STARTCHAR 2039
ENCODING 8249
SWIDTH 462 0
DWIDTH 9 0
BBX 7 9 1 0
BITMAP
06
0C
10
60
C0
60
60
30
18
ENDCHAR
STARTCHAR 203A
ENCODING 8250
SWIDTH 462 0
DWIDTH 9 0
BBX 7 9 0 0
BITMAP
10
18
0C
06
06
0C
30
60
C0
ENDCHAR
STARTCHAR 203C
ENCODING 8252
SWIDTH 462 0
DWIDTH 9 0
BBX 8 13 1 0
BITMAP
11
11
13
32
22
26
24
44
00
00
88
98
80
ENDCHAR
STARTCHAR 203E
ENCODING 8254
SWIDTH 462 0
DWIDTH 9 0
BBX 7 1 4 14
BITMAP
FE
ENDCHAR
STARTCHAR 2070
ENCODING 8304
SWIDTH 462 0
DWIDTH 9 0
BBX 5 6 4 7
BITMAP
78
48
88
88
90
E0
ENDCHAR
STARTCHAR 2071
ENCODING 8305
SWIDTH 462 0
DWIDTH 9 0
BBX 5 8 4 8
BITMAP
18
18
70
30
20
20
60
E0
ENDCHAR
STARTCHAR 2074
ENCODING 8308
SWIDTH 462 0
DWIDTH 9 0
BBX 6 6 4 8
BITMAP
0C
38
68
D8
F0
10
ENDCHAR
STARTCHAR 2075
ENCODING 8309
SWIDTH 462 0
DWIDTH 9 0
BBX 5 6 4 8
BITMAP
78
C0
F8
18
10
F0
ENDCHAR
STARTCHAR 2076
ENCODING 8310
SWIDTH 462 0
DWIDTH 9 0
BBX 6 6 3 8
BITMAP
1C
20
7C
4C
48
F8
ENDCHAR
STARTCHAR 2077
ENCODING 8311
SWIDTH 462 0
DWIDTH 9 0
BBX 5 6 5 8
BITMAP
F8
10
30
20
40
80
ENDCHAR
STARTCHAR 2078
ENCODING 8312
SWIDTH 462 0
DWIDTH 9 0
BBX 7 6 3 8
BITMAP
3E
24
7C
4C
C8
F8
ENDCHAR
STARTCHAR 2079
ENCODING 8313
SWIDTH 462 0
DWIDTH 9 0
BBX 6 6 4 8
BITMAP
7C
48
88
F8
10
E0
ENDCHAR
STARTCHAR 207A
ENCODING 8314
SWIDTH 462 0
DWIDTH 9 0
BBX 6 5 3 8
BITMAP
18
10
FC
30
20
ENDCHAR
STARTCHAR 207B
ENCODING 8315
SWIDTH 462 0
DWIDTH 9 0
BBX 6 1 3 10
BITMAP
FC
ENDCHAR
STARTCHAR 207C
ENCODING 8316
SWIDTH 462 0
DWIDTH 9 0
BBX 6 4 3 9
BITMAP
7C
00
00
FC
ENDCHAR
STARTCHAR 207D
ENCODING 8317
SWIDTH 462 0
DWIDTH 9 0
BBX 3 6 5 8
BITMAP
20
40
80
80
80
80
ENDCHAR
STARTCHAR 207E
ENCODING 8318
SWIDTH 462 0
DWIDTH 9 0
BBX 3 6 5 8
BITMAP
60
20
20
40
40
80
ENDCHAR
STARTCHAR 207F
ENCODING 8319
SWIDTH 462 0
DWIDTH 9 0
BBX 6 6 3 8
BITMAP
78
44
44
84
88
88
ENDCHAR
STARTCHAR 2080
ENCODING 8320
SWIDTH 462 0
DWIDTH 9 0
BBX 5 7 1 -2
BITMAP
38
48
88
88
90
F0
40
ENDCHAR
STARTCHAR 2081
ENCODING 8321
SWIDTH 462 0
DWIDTH 9 0
BBX 4 6 1 -1
BITMAP
30
60
20
20
60
E0
ENDCHAR
STARTCHAR 2082
ENCODING 8322
SWIDTH 462 0
DWIDTH 9 0
BBX 7 6 0 -1
BITMAP
3C
66
0C
18
70
F8
ENDCHAR
STARTCHAR 2083
ENCODING 8323
SWIDTH 462 0
DWIDTH 9 0
BBX 6 6 0 -1
BITMAP
3C
04
18
08
08
F8
ENDCHAR
STARTCHAR 2084
ENCODING 8324
SWIDTH 462 0
DWIDTH 9 0
BBX 6 6 1 -1
BITMAP
0C
18
68
D8
F0
10
ENDCHAR
STARTCHAR 2085
ENCODING 8325
SWIDTH 462 0
DWIDTH 9 0
BBX 5 6 1 -1
BITMAP
78
C0
F8
18
10
F0
ENDCHAR
STARTCHAR 2086
ENCODING 8326
SWIDTH 462 0
DWIDTH 9 0
BBX 6 6 0 -1
BITMAP
1C
20
7C
4C
48
F8
ENDCHAR
STARTCHAR 2087
ENCODING 8327
SWIDTH 462 0
DWIDTH 9 0
BBX 5 6 2 -1
BITMAP
F8
10
30
20
40
80
ENDCHAR
STARTCHAR 2088
ENCODING 8328
SWIDTH 462 0
DWIDTH 9 0
BBX 6 6 0 -1
BITMAP
3C
24
7C
4C
C8
F8
ENDCHAR
STARTCHAR 2089
ENCODING 8329
SWIDTH 462 0
DWIDTH 9 0
BBX 5 6 1 -1
BITMAP
78
48
88
F8
10
E0
ENDCHAR
STARTCHAR 208A
ENCODING 8330
SWIDTH 462 0
DWIDTH 9 0
BBX 6 5 0 -1
BITMAP
18
10
FC
30
20
ENDCHAR
STARTCHAR 208B
ENCODING 8331
SWIDTH 462 0
DWIDTH 9 0
BBX 6 1 0 1
BITMAP
FC
ENDCHAR
STARTCHAR 208C
ENCODING 8332
SWIDTH 462 0
DWIDTH 9 0
BBX 6 4 0 0
BITMAP
7C
00
00
F8
ENDCHAR
STARTCHAR 208D
ENCODING 8333
SWIDTH 462 0
DWIDTH 9 0
BBX 3 6 2 -1
BITMAP
20
40
80
80
80
80
ENDCHAR
STARTCHAR 208E
ENCODING 8334
SWIDTH 462 0
DWIDTH 9 0
BBX 3 6 2 -1
BITMAP
60
20
20
40
40
80
ENDCHAR
STARTCHAR 2090
ENCODING 8336
SWIDTH 462 0
DWIDTH 9 0
BBX 6 6 0 -1
BITMAP
38
3C
04
FC
88
F8
ENDCHAR
STARTCHAR 2091
ENCODING 8337
SWIDTH 462 0
DWIDTH 9 0
BBX 6 7 0 -2
BITMAP
18
7C
C4
FC
80
F8
10
ENDCHAR
STARTCHAR 2092
ENCODING 8338
SWIDTH 462 0
DWIDTH 9 0
BBX 6 7 0 -2
BITMAP
18
7C
C4
84
88
F0
20
ENDCHAR
STARTCHAR 2093
ENCODING 8339
SWIDTH 462 0
DWIDTH 9 0
BBX 6 6 0 -2
BITMAP
60
6C
38
30
70
98
ENDCHAR
STARTCHAR 2094
ENCODING 8340
SWIDTH 462 0
DWIDTH 9 0
BBX 6 7 0 -2
BITMAP
38
7C
04
FC
88
F0
20
ENDCHAR
STARTCHAR 2095
ENCODING 8341
SWIDTH 462 0
DWIDTH 9 0
BBX 6 8 0 -1
BITMAP
20
20
78
7C
44
8C
88
88
ENDCHAR
STARTCHAR 2096
ENCODING 8342
SWIDTH 462 0
DWIDTH 9 0
BBX 7 8 0 -1
BITMAP
30
20
22
2C
58
70
50
98
ENDCHAR
STARTCHAR 2097
ENCODING 8343
SWIDTH 462 0
DWIDTH 9 0
BBX 4 8 1 -1
BITMAP
30
10
10
30
20
20
60
E0
ENDCHAR
STARTCHAR 2098
ENCODING 8344
SWIDTH 462 0
DWIDTH 9 0
BBX 8 6 -1 -1
BITMAP
3F
7F
49
49
DB
92
ENDCHAR
STARTCHAR 209A
ENCODING 8346
SWIDTH 462 0
DWIDTH 9 0
BBX 7 9 -1 -4
BITMAP
3C
3E
22
42
44
78
C0
80
80
ENDCHAR
STARTCHAR 20A7
ENCODING 8359
SWIDTH 462 0
DWIDTH 9 0
BBX 10 13 -1 0
BITMAP
0E00
1F00
1180
1100
3100
2300
3D00
6100
47C0
4200
C200
8700
8300
ENDCHAR
STARTCHAR 20AA
ENCODING 8362
SWIDTH 462 0
DWIDTH 9 0
BBX 12 13 -1 0
BITMAP
0F10
1F90
10B0
10A0
3520
2D60
2940
6A40
5AC0
5080
D080
BF00
BE00
ENDCHAR
STARTCHAR 20AC
ENCODING 8364
SWIDTH 462 0
DWIDTH 9 0
BBX 10 13 0 0
BITMAP
0380
07C0
0840
3000
6000
7E00
4000
FC00
4000
C000
4300
7600
3800
ENDCHAR
STARTCHAR 20AE
ENCODING 8366
SWIDTH 462 0
DWIDTH 9 0
BBX 9 13 1 0
BITMAP
3F80
3F80
0400
0C00
0800
0E00
3800
7E00
7000
B000
2000
2000
4000
ENDCHAR
STARTCHAR 2102
ENCODING 8450
SWIDTH 462 0
DWIDTH 9 0
BBX 10 13 0 0
BITMAP
0F80
0FC0
1C40
3840
2800
3800
7000
5000
7000
E000
A200
FE00
7800
ENDCHAR
STARTCHAR 210E
ENCODING 8462
SWIDTH 462 0
DWIDTH 9 0
BBX 10 13 -1 0
BITMAP
0800
0800
0800
1800
1F80
18C0
30C0
2080
2080
6180
4100
4100
C300
ENDCHAR
STARTCHAR 210F
ENCODING 8463
SWIDTH 462 0
DWIDTH 9 0
BBX 10 12 -1 1
BITMAP
1800
3F00
1800
1F80
18C0
30C0
2080
2080
6180
4100
4100
C300
ENDCHAR
STARTCHAR 2115
ENCODING 8469
SWIDTH 462 0
DWIDTH 9 0
BBX 11 13 -1 0
BITMAP
0820
0820
0820
1860
1440
1A40
3EC0
2780
2380
6380
4100
4100
C300
ENDCHAR
STARTCHAR 2116
ENCODING 8470
SWIDTH 462 0
DWIDTH 9 0
BBX 13 13 -2 0
BITMAP
0880
08B8
18F0
19F0
1960
3D00
2F00
2E00
67E0
47E0
45C0
C400
8400
ENDCHAR
STARTCHAR 211A
ENCODING 8474
SWIDTH 462 0
DWIDTH 9 0
BBX 10 14 0 -1
BITMAP
0F80
0FC0
1C40
38C0
2880
3880
7180
5100
7100
E300
AA00
FC00
7C00
0600
ENDCHAR
STARTCHAR 211D
ENCODING 8477
SWIDTH 462 0
DWIDTH 9 0
BBX 11 13 -1 0
BITMAP
0FC0
0FE0
0A20
1C60
1440
1440
3980
2F00
3E00
7600
5700
7300
E100
ENDCHAR
STARTCHAR 2122
ENCODING 8482
SWIDTH 462 0
DWIDTH 9 0
BBX 9 5 2 8
BITMAP
F000
F580
6B80
4900
4900
ENDCHAR
STARTCHAR 2124
ENCODING 8484
SWIDTH 462 0
DWIDTH 9 0
BBX 11 13 -1 0
BITMAP
0FE0
0FE0
0020
0060
0140
0280
0E00
0E00
3800
6000
4000
7F00
FF00
ENDCHAR
STARTCHAR 2126
ENCODING 8486
SWIDTH 462 0
DWIDTH 9 0
BBX 11 13 -1 0
BITMAP
07C0
07E0
0820
1860
1040
1040
30C0
2080
2180
3300
1600
F700
E700
ENDCHAR
STARTCHAR 2135
ENCODING 8501
SWIDTH 462 0
DWIDTH 9 0
BBX 11 13 -1 0
BITMAP
0840
0840
0C40
0460
0420
1CC0
3580
6600
4600
4200
C200
4200
6200
ENDCHAR
STARTCHAR 2190
ENCODING 8592
SWIDTH 462 0
DWIDTH 9 0
BBX 8 7 1 3
BITMAP
18
30
60
FF
C0
40
60
ENDCHAR
STARTCHAR 2191
ENCODING 8593
SWIDTH 462 0
DWIDTH 9 0
BBX 7 13 2 0
BITMAP
08
1C
3E
5E
92
10
30
20
20
60
40
40
C0
ENDCHAR
STARTCHAR 2192
ENCODING 8594
SWIDTH 462 0
DWIDTH 9 0
BBX 8 7 1 3
BITMAP
06
06
03
FF
06
0C
10
ENDCHAR
STARTCHAR 2193
ENCODING 8595
SWIDTH 462 0
DWIDTH 9 0
BBX 7 12 1 0
BITMAP
04
04
04
0C
08
08
18
10
92
BC
F8
70
ENDCHAR
STARTCHAR 2194
ENCODING 8596
SWIDTH 462 0
DWIDTH 9 0
BBX 10 7 0 3
BITMAP
0B00
1180
60C0
FFC0
4180
6300
2C00
ENDCHAR
STARTCHAR 2195
ENCODING 8597
SWIDTH 462 0
DWIDTH 9 0
BBX 8 12 1 0
BITMAP
04
0E
1F
2F
49
08
18
10
92
BC
F8
70
ENDCHAR
STARTCHAR 21A4
ENCODING 8612
SWIDTH 462 0
DWIDTH 9 0
BBX 9 7 1 3
BITMAP
1880
3080
6180
FF00
C100
4300
6200
ENDCHAR
STARTCHAR 21A6
ENCODING 8614
SWIDTH 462 0
DWIDTH 9 0
BBX 9 7 0 3
BITMAP
2200
6300
4180
7F80
C300
8600
8800
ENDCHAR
STARTCHAR 21A8
ENCODING 8616
SWIDTH 462 0
DWIDTH 9 0
BBX 10 13 -1 0
BITMAP
0100
0380
07C0
0BC0
1240
0200
0600
2480
3500
1E00
1C00
FF00
FF00
ENDCHAR
STARTCHAR 21B2
ENCODING 8626
SWIDTH 462 0
DWIDTH 9 0
BBX 10 13 0 0
BITMAP
0040
0040
0040
00C0
0080
0880
1980
6100
FF00
FF00
C000
6000
2000
ENDCHAR
STARTCHAR 21B3
ENCODING 8627
SWIDTH 462 0
DWIDTH 9 0
BBX 8 12 0 0
BITMAP
10
30
20
20
60
44
4E
C6
FF
FE
0C
18
ENDCHAR
STARTCHAR 21B5
ENCODING 8629
SWIDTH 462 0
DWIDTH 9 0
BBX 10 11 0 0
BITMAP
0040
00C0
0080
0880
1980
6100
FF00
FF00
C000
6000
2000
ENDCHAR
STARTCHAR 21BB
ENCODING 8635
SWIDTH 462 0
DWIDTH 9 0
BBX 9 9 0 2
BITMAP
3C00
3C00
3D80
4980
4180
C100
C300
4600
7800
ENDCHAR
STARTCHAR 21CB
ENCODING 8651
SWIDTH 462 0
DWIDTH 9 0
BBX 10 8 0 3
BITMAP
1000
6000
7FC0
0000
FF80
0300
0600
0400
ENDCHAR
STARTCHAR 21CC
ENCODING 8652
SWIDTH 462 0
DWIDTH 9 0
BBX 10 9 0 2
BITMAP
0100
0180
0180
7FC0
0000
FF80
C000
4000
4000
ENDCHAR
STARTCHAR 21D0
ENCODING 8656
SWIDTH 462 0
DWIDTH 9 0
BBX 10 7 0 3
BITMAP
0800
1000
7FC0
C000
7F80
6000
2000
ENDCHAR
STARTCHAR 21D1
ENCODING 8657
SWIDTH 462 0
DWIDTH 9 0
BBX 8 13 1 0
BITMAP
04
0E
1F
33
55
14
24
28
68
48
50
D0
90
ENDCHAR
STARTCHAR 21D2
ENCODING 8658
SWIDTH 462 0
DWIDTH 9 0
BBX 9 7 0 3
BITMAP
0300
0300
7F80
0180
FF00
0600
0800
ENDCHAR
STARTCHAR 21D3
ENCODING 8659
SWIDTH 462 0
DWIDTH 9 0
BBX 7 12 1 0
BITMAP
08
0A
1A
12
14
34
24
28
2A
CE
F8
70
ENDCHAR
STARTCHAR 21D4
ENCODING 8660
SWIDTH 462 0
DWIDTH 9 0
BBX 10 7 0 3
BITMAP
0900
1180
7F80
C1C0
7F80
6600
2400
ENDCHAR
STARTCHAR 21D5
ENCODING 8661
SWIDTH 462 0
DWIDTH 9 0
BBX 8 12 1 0
BITMAP
04
0E
1F
33
55
14
24
2C
6A
CE
F8
70
ENDCHAR
STARTCHAR 2200
ENCODING 8704
SWIDTH 462 0
DWIDTH 9 0
BBX 8 13 2 0
BITMAP
C1
C1
C3
C2
FE
C4
88
98
90
A0
E0
C0
80
ENDCHAR
STARTCHAR 2203
ENCODING 8707
SWIDTH 462 0
DWIDTH 9 0
BBX 11 13 -1 0
BITMAP
0FE0
0FE0
0020
0060
0040
0040
3FC0
0080
0080
0180
0100
FF00
FF00
ENDCHAR
STARTCHAR 2204
ENCODING 8708
SWIDTH 462 0
DWIDTH 9 0
BBX 13 15 -2 -2
BITMAP
0008
07F8
07F0
0070
00F0
0120
0120
1FE0
0240
0440
08C0
1080
3F80
7F80
C000
ENDCHAR
STARTCHAR 2205
ENCODING 8709
SWIDTH 462 0
DWIDTH 9 0
BBX 10 12 0 0
BITMAP
0040
00C0
0080
1F00
2700
2500
6900
4B00
7200
7C00
4000
8000
ENDCHAR
STARTCHAR 2206
ENCODING 8710
SWIDTH 462 0
DWIDTH 9 0
BBX 8 13 -1 0
BITMAP
01
01
03
03
05
05
19
19
21
21
41
7F
FF
ENDCHAR
STARTCHAR 2207
ENCODING 8711
SWIDTH 462 0
DWIDTH 9 0
BBX 7 12 3 0
BITMAP
FE
FE
82
84
8C
88
90
B0
A0
C0
C0
80
ENDCHAR
STARTCHAR 2208
ENCODING 8712
SWIDTH 462 0
DWIDTH 9 0
BBX 10 13 0 0
BITMAP
01C0
07C0
1800
1000
2000
2000
7F80
4000
4000
4000
C000
7E00
3E00
ENDCHAR
STARTCHAR 2209
ENCODING 8713
SWIDTH 462 0
DWIDTH 9 0
BBX 12 15 -1 -2
BITMAP
0010
01F0
03E0
0CC0
0880
1100
1300
3FC0
2400
2800
4800
3000
7F00
4700
8000
ENDCHAR
STARTCHAR 220A
ENCODING 8714
SWIDTH 462 0
DWIDTH 9 0
BBX 9 9 1 2
BITMAP
0F80
1F80
2000
4000
FF00
8000
8000
C000
7C00
ENDCHAR
STARTCHAR 220B
ENCODING 8715
SWIDTH 462 0
DWIDTH 9 0
BBX 11 13 -1 0
BITMAP
0F00
0F80
0040
0060
0040
0040
3FC0
0080
0080
0100
0200
FC00
F000
ENDCHAR
STARTCHAR 220C
ENCODING 8716
SWIDTH 462 0
DWIDTH 9 0
BBX 10 15 -1 -1
BITMAP
0800
0E00
0F80
0440
0440
0440
0440
3FC0
0480
0480
0700
0700
FE00
E200
0200
ENDCHAR
STARTCHAR 220D
ENCODING 8717
SWIDTH 462 0
DWIDTH 9 0
BBX 9 9 0 2
BITMAP
3E00
3F80
0080
0080
7F80
0100
0300
0600
F800
ENDCHAR
STARTCHAR 2212
ENCODING 8722
SWIDTH 462 0
DWIDTH 9 0
BBX 8 1 1 6
BITMAP
FF
ENDCHAR
STARTCHAR 2213
ENCODING 8723
SWIDTH 462 0
DWIDTH 9 0
BBX 9 10 1 0
BITMAP
7F80
0000
0800
1800
1000
FE00
FE00
2000
2000
6000
ENDCHAR
STARTCHAR 2214
ENCODING 8724
SWIDTH 462 0
DWIDTH 9 0
BBX 7 11 1 0
BITMAP
0C
0C
00
08
18
10
FE
FE
20
20
60
ENDCHAR
STARTCHAR 2215
ENCODING 8725
SWIDTH 462 0
DWIDTH 9 0
BBX 11 8 -1 2
BITMAP
0060
00C0
0300
0600
0C00
3000
6000
C000
ENDCHAR
STARTCHAR 2216
ENCODING 8726
SWIDTH 462 0
DWIDTH 9 0
BBX 5 8 2 2
BITMAP
80
C0
60
60
30
18
18
08
ENDCHAR
STARTCHAR 2219
ENCODING 8729
SWIDTH 462 0
DWIDTH 9 0
BBX 4 3 3 5
BITMAP
70
E0
60
ENDCHAR
STARTCHAR 221A
ENCODING 8730
SWIDTH 462 0
DWIDTH 9 0
BBX 10 14 1 0
BITMAP
00C0
0080
0180
0100
0100
0300
0200
8200
8200
C400
6400
6400
3800
1800
ENDCHAR
STARTCHAR 221E
ENCODING 8734
SWIDTH 462 0
DWIDTH 9 0
BBX 10 5 0 4
BITMAP
3F80
4CC0
4880
C880
FF00
ENDCHAR
STARTCHAR 221F
ENCODING 8735
SWIDTH 462 0
DWIDTH 9 0
BBX 8 7 0 3
BITMAP
30
20
20
60
40
40
FF
ENDCHAR
STARTCHAR 2225
ENCODING 8741
SWIDTH 462 0
DWIDTH 9 0
BBX 8 13 1 0
BITMAP
09
0A
1A
12
14
34
24
28
68
48
50
D0
90
ENDCHAR
STARTCHAR 2227
ENCODING 8743
SWIDTH 462 0
DWIDTH 9 0
BBX 7 9 0 0
BITMAP
04
0C
0E
16
26
26
46
86
06
ENDCHAR
STARTCHAR 2228
ENCODING 8744
SWIDTH 462 0
DWIDTH 9 0
BBX 7 8 2 0
BITMAP
82
86
84
88
98
90
E0
C0
ENDCHAR
STARTCHAR 2229
ENCODING 8745
SWIDTH 462 0
DWIDTH 9 0
BBX 10 10 -1 0
BITMAP
0780
08C0
1040
30C0
2080
2080
6180
4100
4100
C300
ENDCHAR
STARTCHAR 222A
ENCODING 8746
SWIDTH 462 0
DWIDTH 9 0
BBX 10 10 0 0
BITMAP
30C0
2080
2080
6180
4100
4100
C300
C600
7C00
7800
ENDCHAR
STARTCHAR 2248
ENCODING 8776
SWIDTH 462 0
DWIDTH 9 0
BBX 9 7 1 3
BITMAP
0080
7B00
4F00
0000
7200
FE00
9C00
ENDCHAR
STARTCHAR 2260
ENCODING 8800
SWIDTH 462 0
DWIDTH 9 0
BBX 9 7 0 3
BITMAP
0080
7F80
0600
0C00
1800
FF00
C000
ENDCHAR
STARTCHAR 2261
ENCODING 8801
SWIDTH 462 0
DWIDTH 9 0
BBX 10 9 0 2
BITMAP
3FC0
3FC0
0000
0000
7F80
0000
0000
0000
FE00
ENDCHAR
STARTCHAR 2264
ENCODING 8804
SWIDTH 462 0
DWIDTH 9 0
BBX 11 13 -1 0
BITMAP
0020
00C0
0180
0600
0C00
0800
0800
0C00
0600
0300
0000
FF00
FF00
ENDCHAR
STARTCHAR 2265
ENCODING 8805
SWIDTH 462 0
DWIDTH 9 0
BBX 9 13 -1 0
BITMAP
0600
0600
0300
0100
0180
0080
0300
0600
1C00
3000
0000
FF00
FF00
ENDCHAR
STARTCHAR 226A
ENCODING 8810
SWIDTH 462 0
DWIDTH 9 0
BBX 12 11 0 1
BITMAP
0330
0660
0C80
1300
6600
C800
4C00
6600
3600
3300
1900
ENDCHAR
STARTCHAR 226B
ENCODING 8811
SWIDTH 462 0
DWIDTH 9 0
BBX 12 11 -2 1
BITMAP
0980
0D80
04C0
0660
0320
0330
0660
0CC0
1B00
6600
C800
ENDCHAR
STARTCHAR 2282
ENCODING 8834
SWIDTH 462 0
DWIDTH 9 0
BBX 10 9 0 2
BITMAP
0FC0
1FC0
6000
4000
4000
C000
C000
6000
3E00
ENDCHAR
STARTCHAR 2283
ENCODING 8835
SWIDTH 462 0
DWIDTH 9 0
BBX 10 9 -1 2
BITMAP
1F00
1FC0
0040
0040
00C0
0080
0180
0300
FC00
ENDCHAR
STARTCHAR 2286
ENCODING 8838
SWIDTH 462 0
DWIDTH 9 0
BBX 11 11 -1 1
BITMAP
07E0
0800
1000
3000
2000
2000
6000
3F80
0F80
0000
FF00
ENDCHAR
STARTCHAR 2287
ENCODING 8839
SWIDTH 462 0
DWIDTH 9 0
BBX 11 11 -1 1
BITMAP
1F80
00C0
0060
0040
0040
00C0
0180
7F00
7C00
0000
FF00
ENDCHAR
STARTCHAR 22A5
ENCODING 8869
SWIDTH 462 0
DWIDTH 9 0
BBX 8 10 -1 0
BITMAP
03
02
02
06
04
04
0C
08
FF
FF
ENDCHAR
STARTCHAR 22C2
ENCODING 8898
SWIDTH 462 0
DWIDTH 9 0
BBX 11 13 -1 0
BITMAP
0380
07C0
0860
1840
1040
1040
30C0
2080
2080
6180
4100
4100
C300
ENDCHAR
STARTCHAR 22C3
ENCODING 8899
SWIDTH 462 0
DWIDTH 9 0
BBX 10 13 0 0
BITMAP
1040
1040
1040
30C0
2080
2080
6180
4100
4100
C300
C600
7C00
7800
ENDCHAR
STARTCHAR 2300
ENCODING 8960
SWIDTH 462 0
DWIDTH 9 0
BBX 10 12 0 0
BITMAP
0040
00C0
0080
1F00
2700
2500
6900
4B00
7200
7C00
4000
8000
ENDCHAR
STARTCHAR 2302
ENCODING 8962
SWIDTH 462 0
DWIDTH 9 0
BBX 10 10 -1 0
BITMAP
0300
0780
1980
30C0
2040
40C0
4080
C080
FF80
FF00
ENDCHAR
STARTCHAR 2308
ENCODING 8968
SWIDTH 462 0
DWIDTH 9 0
BBX 8 13 1 0
BITMAP
1F
1F
10
30
20
20
20
40
40
40
80
80
80
ENDCHAR
STARTCHAR 2309
ENCODING 8969
SWIDTH 462 0
DWIDTH 9 0
BBX 5 13 4 0
BITMAP
F8
F0
10
10
20
20
20
40
40
40
80
80
80
ENDCHAR
STARTCHAR 230A
ENCODING 8970
SWIDTH 462 0
DWIDTH 9 0
BBX 4 13 1 0
BITMAP
10
10
10
30
20
20
20
40
40
40
80
F0
F0
ENDCHAR
STARTCHAR 230B
ENCODING 8971
SWIDTH 462 0
DWIDTH 9 0
BBX 8 13 1 0
BITMAP
01
02
02
02
04
04
04
08
08
08
10
F0
F0
ENDCHAR
STARTCHAR 2310
ENCODING 8976
SWIDTH 462 0
DWIDTH 9 0
BBX 8 5 1 4
BITMAP
7F
40
C0
80
80
ENDCHAR
STARTCHAR 2319
ENCODING 8985
SWIDTH 462 0
DWIDTH 9 0
BBX 7 5 1 4
BITMAP
40
40
C0
80
FE
ENDCHAR
STARTCHAR 2320
ENCODING 8992
SWIDTH 462 0
DWIDTH 9 0
BBX 9 16 1 -3
BITMAP
0200
0780
0480
0C00
0800
0800
1800
1000
1000
3000
2000
2000
6000
4000
4000
C000
ENDCHAR
STARTCHAR 2321
ENCODING 8993
SWIDTH 462 0
DWIDTH 9 0
BBX 9 16 0 0
BITMAP
0180
0100
0100
0300
0200
0200
0600
0400
0400
0C00
0800
0800
1800
9000
F000
E000
ENDCHAR
STARTCHAR 239B
ENCODING 9115
SWIDTH 462 0
DWIDTH 9 0
BBX 12 19 -1 -3
BITMAP
0030
0040
0080
0100
0200
0600
0400
0C00
0800
1000
1000
2000
2000
2000
4000
4000
4000
8000
8000
ENDCHAR
STARTCHAR 239C
ENCODING 9116
SWIDTH 462 0
DWIDTH 9 0
BBX 7 19 -1 -3
BITMAP
02
02
04
04
04
08
08
08
10
10
10
20
20
20
40
40
40
80
80
ENDCHAR
STARTCHAR 239D
ENCODING 9117
SWIDTH 462 0
DWIDTH 9 0
BBX 4 19 2 -3
BITMAP
10
10
20
20
20
40
40
40
80
80
80
80
80
80
80
80
80
40
40
ENDCHAR
STARTCHAR 239E
ENCODING 9118
SWIDTH 462 0
DWIDTH 9 0
BBX 4 19 4 -3
BITMAP
40
20
10
10
10
10
10
10
10
10
10
20
20
60
40
40
C0
80
80
ENDCHAR
STARTCHAR 239F
ENCODING 9119
SWIDTH 462 0
DWIDTH 9 0
BBX 7 19 4 -3
BITMAP
02
06
04
04
0C
08
08
18
10
10
30
20
20
60
40
40
C0
80
80
ENDCHAR
STARTCHAR 23A0
ENCODING 9120
SWIDTH 462 0
DWIDTH 9 0
BBX 12 19 -1 -3
BITMAP
0010
0030
0020
0020
0060
0040
0040
00C0
0080
0080
0100
0100
0200
0400
0400
0800
1000
2000
C000
ENDCHAR
STARTCHAR 23A1
ENCODING 9121
SWIDTH 462 0
DWIDTH 9 0
BBX 12 19 -1 -3
BITMAP
03F0
0200
0400
0400
0400
0800
0800
0800
1000
1000
1000
2000
2000
2000
4000
4000
4000
8000
8000
ENDCHAR
STARTCHAR 23A2
ENCODING 9122
SWIDTH 462 0
DWIDTH 9 0
BBX 7 19 -1 -3
BITMAP
02
02
04
04
04
08
08
08
10
10
10
20
20
20
40
40
40
80
80
ENDCHAR
STARTCHAR 23A3
ENCODING 9123
SWIDTH 462 0
DWIDTH 9 0
BBX 7 19 -1 -3
BITMAP
02
02
04
04
04
08
08
08
10
10
10
20
20
20
40
40
40
C0
FC
ENDCHAR
STARTCHAR 23A4
ENCODING 9124
SWIDTH 462 0
DWIDTH 9 0
BBX 7 19 4 -3
BITMAP
7E
06
04
04
0C
08
08
18
10
10
30
20
20
60
40
40
C0
80
80
ENDCHAR
STARTCHAR 23A5
ENCODING 9125
SWIDTH 462 0
DWIDTH 9 0
BBX 7 19 4 -3
BITMAP
02
06
04
04
0C
08
08
18
10
10
30
20
20
60
40
40
C0
80
80
ENDCHAR
STARTCHAR 23A6
ENCODING 9126
SWIDTH 462 0
DWIDTH 9 0
BBX 12 19 -1 -3
BITMAP
0010
0030
0020
0020
0060
0040
0040
00C0
0080
0080
0180
0100
0100
0300
0200
0200
0600
0400
FC00
ENDCHAR
STARTCHAR 23A7
ENCODING 9127
SWIDTH 462 0
DWIDTH 9 0
BBX 12 19 0 -3
BITMAP
00F0
0100
0200
0400
0400
0400
0800
0800
0800
1000
1000
1000
2000
2000
6000
4000
4000
C000
8000
ENDCHAR
STARTCHAR 23A8
ENCODING 9128
SWIDTH 462 0
DWIDTH 9 0
BBX 7 19 0 -3
BITMAP
02
02
06
04
04
04
08
18
18
E0
20
30
20
20
60
40
40
C0
80
ENDCHAR
STARTCHAR 23A9
ENCODING 9129
SWIDTH 462 0
DWIDTH 9 0
BBX 6 19 1 -3
BITMAP
04
04
0C
08
08
18
10
10
30
20
20
60
40
40
C0
80
80
C0
78
ENDCHAR
STARTCHAR 23AB
ENCODING 9131
SWIDTH 462 0
DWIDTH 9 0
BBX 6 19 2 -3
BITMAP
78
04
04
04
04
0C
08
08
18
10
10
30
20
20
60
40
40
C0
80
ENDCHAR
STARTCHAR 23AC
ENCODING 9132
SWIDTH 462 0
DWIDTH 9 0
BBX 7 19 2 -3
BITMAP
02
02
06
04
04
0C
08
08
08
0E
18
20
20
20
40
40
40
C0
80
ENDCHAR
STARTCHAR 23AD
ENCODING 9133
SWIDTH 462 0
DWIDTH 9 0
BBX 12 19 -3 -3
BITMAP
0010
0010
0030
0020
0020
0060
0040
0040
00C0
0080
0080
0180
0100
0100
0300
0200
0600
0C00
F800
ENDCHAR
STARTCHAR 23AE
ENCODING 9134
SWIDTH 462 0
DWIDTH 9 0
BBX 8 19 1 -3
BITMAP
03
02
02
06
04
04
0C
08
08
18
10
10
30
20
20
60
40
40
C0
ENDCHAR
STARTCHAR 23AF
ENCODING 9135
SWIDTH 462 0
DWIDTH 9 0
BBX 10 1 0 6
BITMAP
FFC0
ENDCHAR
STARTCHAR 23BA
ENCODING 9146
SWIDTH 462 0
DWIDTH 9 0
BBX 10 1 3 15
BITMAP
FFC0
ENDCHAR
STARTCHAR 23BB
ENCODING 9147
SWIDTH 462 0
DWIDTH 9 0
BBX 10 1 1 10
BITMAP
FFC0
ENDCHAR
STARTCHAR 23BC
ENCODING 9148
SWIDTH 462 0
DWIDTH 9 0
BBX 10 1 -1 2
BITMAP
FFC0
ENDCHAR
STARTCHAR 23BD
ENCODING 9149
SWIDTH 462 0
DWIDTH 9 0
BBX 10 1 -3 -3
BITMAP
FFC0
ENDCHAR
STARTCHAR 23D0
ENCODING 9168
SWIDTH 462 0
DWIDTH 9 0
BBX 8 19 1 -3
BITMAP
03
02
02
06
04
04
0C
08
08
18
10
10
30
20
20
60
40
40
C0
ENDCHAR
STARTCHAR 23FB
ENCODING 9211
SWIDTH 462 0
DWIDTH 9 0
BBX 10 11 0 1
BITMAP
0C00
0C00
0C00
6D80
CC80
CCC0
CCC0
C0C0
6180
7F00
1E00
ENDCHAR
STARTCHAR 23FC
ENCODING 9212
SWIDTH 462 0
DWIDTH 9 0
BBX 10 9 0 2
BITMAP
3F00
7380
CD80
CCC0
CCC0
CCC0
CD80
7380
3F00
ENDCHAR
STARTCHAR 23FD
ENCODING 9213
SWIDTH 462 0
DWIDTH 9 0
BBX 4 21 3 -4
BITMAP
60
F0
F0
F0
F0
F0
F0
F0
F0
F0
F0
F0
F0
F0
F0
F0
F0
F0
F0
F0
E0
ENDCHAR
STARTCHAR 23FE
ENCODING 9214
SWIDTH 462 0
DWIDTH 9 0
BBX 9 13 0 0
BITMAP
1000
2000
6000
6000
E000
E000
E000
F000
F000
7800
7C00
3E00
0F80
ENDCHAR
STARTCHAR 2409
ENCODING 9225
SWIDTH 462 0
DWIDTH 9 0
BBX 7 13 1 0
BITMAP
24
64
7C
7C
C8
88
00
3E
08
08
10
10
10
ENDCHAR
STARTCHAR 240A
ENCODING 9226
SWIDTH 462 0
DWIDTH 9 0
BBX 7 13 1 0
BITMAP
20
60
40
40
C0
F8
00
1E
20
20
78
40
40
ENDCHAR
STARTCHAR 240B
ENCODING 9227
SWIDTH 462 0
DWIDTH 9 0
BBX 6 13 2 0
BITMAP
48
C8
88
98
B0
40
00
7C
10
10
20
20
20
ENDCHAR
STARTCHAR 240C
ENCODING 9228
SWIDTH 462 0
DWIDTH 9 0
BBX 7 13 1 0
BITMAP
3C
7C
40
70
80
80
00
1E
20
20
78
40
40
ENDCHAR
STARTCHAR 240D
ENCODING 9229
SWIDTH 462 0
DWIDTH 9 0
BBX 7 13 1 0
BITMAP
20
3C
40
40
D8
78
00
1E
22
22
7C
58
4C
ENDCHAR
STARTCHAR 2424
ENCODING 9252
SWIDTH 462 0
DWIDTH 9 0
BBX 6 13 1 0
BITMAP
04
64
64
5C
D8
88
00
10
20
20
60
7C
7C
ENDCHAR
STARTCHAR 2500
ENCODING 9472
SWIDTH 462 0
DWIDTH 9 0
BBX 10 1 0 6
BITMAP
FFC0
ENDCHAR
STARTCHAR 2501
ENCODING 9473
SWIDTH 462 0
DWIDTH 9 0
BBX 10 3 0 5
BITMAP
FFC0
FFC0
FFC0
ENDCHAR
STARTCHAR 2502
ENCODING 9474
SWIDTH 462 0
DWIDTH 9 0
BBX 1 21 4 -4
BITMAP
80
80
80
80
80
80
80
80
80
80
80
80
80
80
80
80
80
80
80
80
80
ENDCHAR
STARTCHAR 2503
ENCODING 9475
SWIDTH 462 0
DWIDTH 9 0
BBX 2 21 4 -4
BITMAP
C0
C0
C0
C0
C0
C0
C0
C0
C0
C0
C0
C0
C0
C0
C0
C0
C0
C0
C0
C0
C0
ENDCHAR
STARTCHAR 2504
ENCODING 9476
SWIDTH 462 0
DWIDTH 9 0
BBX 8 1 1 6
BITMAP
DB
ENDCHAR
STARTCHAR 2505
ENCODING 9477
SWIDTH 462 0
DWIDTH 9 0
BBX 8 3 1 5
BITMAP
DB
DB
DB
ENDCHAR
STARTCHAR 2506
ENCODING 9478
SWIDTH 462 0
DWIDTH 9 0
BBX 1 19 4 -3
BITMAP
80
80
80
80
80
00
00
80
80
80
80
80
00
00
80
80
80
80
80
ENDCHAR
STARTCHAR 2507
ENCODING 9479
SWIDTH 462 0
DWIDTH 9 0
BBX 2 19 4 -3
BITMAP
C0
C0
C0
C0
C0
00
00
C0
C0
C0
C0
C0
00
00
C0
C0
C0
C0
C0
ENDCHAR
STARTCHAR 2508
ENCODING 9480
SWIDTH 462 0
DWIDTH 9 0
BBX 8 1 1 6
BITMAP
AD
ENDCHAR
STARTCHAR 2509
ENCODING 9481
SWIDTH 462 0
DWIDTH 9 0
BBX 8 3 1 5
BITMAP
AD
AD
AD
ENDCHAR
STARTCHAR 250A
ENCODING 9482
SWIDTH 462 0
DWIDTH 9 0
BBX 1 19 4 -3
BITMAP
80
80
80
80
00
80
80
80
80
00
80
80
80
80
00
00
80
80
80
ENDCHAR
STARTCHAR 250B
ENCODING 9483
SWIDTH 462 0
DWIDTH 9 0
BBX 2 19 4 -3
BITMAP
C0
C0
C0
C0
00
C0
C0
C0
C0
00
C0
C0
C0
C0
00
00
C0
C0
C0
ENDCHAR
STARTCHAR 250C
ENCODING 9484
SWIDTH 462 0
DWIDTH 9 0
BBX 6 11 4 -4
BITMAP
FC
80
80
80
80
80
80
80
80
80
80
ENDCHAR
STARTCHAR 250D
ENCODING 9485
SWIDTH 462 0
DWIDTH 9 0
BBX 6 12 4 -4
BITMAP
FC
FC
FC
80
80
80
80
80
80
80
80
80
ENDCHAR
STARTCHAR 250E
ENCODING 9486
SWIDTH 462 0
DWIDTH 9 0
BBX 6 11 4 -4
BITMAP
FC
C0
C0
C0
C0
C0
C0
C0
C0
C0
C0
ENDCHAR
STARTCHAR 250F
ENCODING 9487
SWIDTH 462 0
DWIDTH 9 0
BBX 6 12 4 -4
BITMAP
FC
FC
FC
C0
C0
C0
C0
C0
C0
C0
C0
C0
ENDCHAR
STARTCHAR 2510
ENCODING 9488
SWIDTH 462 0
DWIDTH 9 0
BBX 6 11 0 -4
BITMAP
FC
0C
0C
0C
0C
0C
0C
0C
0C
0C
0C
ENDCHAR
STARTCHAR 2511
ENCODING 9489
SWIDTH 462 0
DWIDTH 9 0
BBX 6 12 0 -4
BITMAP
FC
FC
FC
0C
0C
0C
0C
0C
0C
0C
0C
0C
ENDCHAR
STARTCHAR 2512
ENCODING 9490
SWIDTH 462 0
DWIDTH 9 0
BBX 6 11 0 -4
BITMAP
FC
0C
0C
0C
0C
0C
0C
0C
0C
0C
0C
ENDCHAR
STARTCHAR 2513
ENCODING 9491
SWIDTH 462 0
DWIDTH 9 0
BBX 6 12 0 -4
BITMAP
FC
FC
FC
0C
0C
0C
0C
0C
0C
0C
0C
0C
ENDCHAR
STARTCHAR 2514
ENCODING 9492
SWIDTH 462 0
DWIDTH 9 0
BBX 6 11 4 6
BITMAP
80
80
80
80
80
80
80
80
80
80
FC
ENDCHAR
STARTCHAR 2515
ENCODING 9493
SWIDTH 462 0
DWIDTH 9 0
BBX 6 12 4 5
BITMAP
80
80
80
80
80
80
80
80
80
FC
FC
FC
ENDCHAR
STARTCHAR 2516
ENCODING 9494
SWIDTH 462 0
DWIDTH 9 0
BBX 6 11 4 6
BITMAP
C0
C0
C0
C0
C0
C0
C0
C0
C0
C0
FC
ENDCHAR
STARTCHAR 2517
ENCODING 9495
SWIDTH 462 0
DWIDTH 9 0
BBX 6 12 4 5
BITMAP
C0
C0
C0
C0
C0
C0
C0
C0
C0
FC
FC
FC
ENDCHAR
STARTCHAR 2518
ENCODING 9496
SWIDTH 462 0
DWIDTH 9 0
BBX 6 11 0 6
BITMAP
0C
0C
0C
0C
0C
0C
0C
0C
0C
0C
FC
ENDCHAR
STARTCHAR 2519
ENCODING 9497
SWIDTH 462 0
DWIDTH 9 0
BBX 6 12 0 5
BITMAP
0C
0C
0C
0C
0C
0C
0C
0C
0C
FC
FC
FC
ENDCHAR
STARTCHAR 251A
ENCODING 9498
SWIDTH 462 0
DWIDTH 9 0
BBX 6 11 0 6
BITMAP
0C
0C
0C
0C
0C
0C
0C
0C
0C
0C
FC
ENDCHAR
STARTCHAR 251B
ENCODING 9499
SWIDTH 462 0
DWIDTH 9 0
BBX 6 12 0 5
BITMAP
0C
0C
0C
0C
0C
0C
0C
0C
0C
FC
FC
FC
ENDCHAR
STARTCHAR 251C
ENCODING 9500
SWIDTH 462 0
DWIDTH 9 0
BBX 6 21 4 -4
BITMAP
80
80
80
80
80
80
80
80
80
80
FC
80
80
80
80
80
80
80
80
80
80
ENDCHAR
STARTCHAR 251D
ENCODING 9501
SWIDTH 462 0
DWIDTH 9 0
BBX 6 21 4 -4
BITMAP
80
80
80
80
80
80
80
80
80
FC
FC
FC
80
80
80
80
80
80
80
80
80
ENDCHAR
STARTCHAR 251E
ENCODING 9502
SWIDTH 462 0
DWIDTH 9 0
BBX 6 21 4 -4
BITMAP
C0
C0
C0
C0
C0
C0
C0
C0
C0
C0
FC
80
80
80
80
80
80
80
80
80
80
ENDCHAR
STARTCHAR 251F
ENCODING 9503
SWIDTH 462 0
DWIDTH 9 0
BBX 6 21 4 -4
BITMAP
80
80
80
80
80
80
80
80
80
80
FC
C0
C0
C0
C0
C0
C0
C0
C0
C0
C0
ENDCHAR
STARTCHAR 2520
ENCODING 9504
SWIDTH 462 0
DWIDTH 9 0
BBX 6 21 4 -4
BITMAP
C0
C0
C0
C0
C0
C0
C0
C0
C0
C0
FC
C0
C0
C0
C0
C0
C0
C0
C0
C0
C0
ENDCHAR
STARTCHAR 2521
ENCODING 9505
SWIDTH 462 0
DWIDTH 9 0
BBX 6 21 4 -4
BITMAP
C0
C0
C0
C0
C0
C0
C0
C0
C0
FC
FC
FC
80
80
80
80
80
80
80
80
80
ENDCHAR
STARTCHAR 2522
ENCODING 9506
SWIDTH 462 0
DWIDTH 9 0
BBX 6 21 4 -4
BITMAP
80
80
80
80
80
80
80
80
80
FC
FC
FC
C0
C0
C0
C0
C0
C0
C0
C0
C0
ENDCHAR
STARTCHAR 2523
ENCODING 9507
SWIDTH 462 0
DWIDTH 9 0
BBX 6 21 4 -4
BITMAP
C0
C0
C0
C0
C0
C0
C0
C0
C0
FC
FC
FC
C0
C0
C0
C0
C0
C0
C0
C0
C0
ENDCHAR
STARTCHAR 2524
ENCODING 9508
SWIDTH 462 0
DWIDTH 9 0
BBX 6 21 0 -4
BITMAP
0C
0C
0C
0C
0C
0C
0C
0C
0C
0C
FC
0C
0C
0C
0C
0C
0C
0C
0C
0C
0C
ENDCHAR
STARTCHAR 2525
ENCODING 9509
SWIDTH 462 0
DWIDTH 9 0
BBX 6 21 0 -4
BITMAP
0C
0C
0C
0C
0C
0C
0C
0C
0C
FC
FC
FC
0C
0C
0C
0C
0C
0C
0C
0C
0C
ENDCHAR
STARTCHAR 2526
ENCODING 9510
SWIDTH 462 0
DWIDTH 9 0
BBX 6 21 0 -4
BITMAP
0C
0C
0C
0C
0C
0C
0C
0C
0C
0C
FC
0C
0C
0C
0C
0C
0C
0C
0C
0C
0C
ENDCHAR
STARTCHAR 2527
ENCODING 9511
SWIDTH 462 0
DWIDTH 9 0
BBX 6 21 0 -4
BITMAP
0C
0C
0C
0C
0C
0C
0C
0C
0C
0C
FC
0C
0C
0C
0C
0C
0C
0C
0C
0C
0C
ENDCHAR
STARTCHAR 2528
ENCODING 9512
SWIDTH 462 0
DWIDTH 9 0
BBX 6 21 0 -4
BITMAP
0C
0C
0C
0C
0C
0C
0C
0C
0C
0C
FC
0C
0C
0C
0C
0C
0C
0C
0C
0C
0C
ENDCHAR
STARTCHAR 2529
ENCODING 9513
SWIDTH 462 0
DWIDTH 9 0
BBX 6 21 0 -4
BITMAP
0C
0C
0C
0C
0C
0C
0C
0C
0C
FC
FC
FC
0C
0C
0C
0C
0C
0C
0C
0C
0C
ENDCHAR
STARTCHAR 252A
ENCODING 9514
SWIDTH 462 0
DWIDTH 9 0
BBX 6 21 0 -4
BITMAP
0C
0C
0C
0C
0C
0C
0C
0C
0C
FC
FC
FC
0C
0C
0C
0C
0C
0C
0C
0C
0C
ENDCHAR
STARTCHAR 252B
ENCODING 9515
SWIDTH 462 0
DWIDTH 9 0
BBX 6 21 0 -4
BITMAP
0C
0C
0C
0C
0C
0C
0C
0C
0C
FC
FC
FC
0C
0C
0C
0C
0C
0C
0C
0C
0C
ENDCHAR
STARTCHAR 252C
ENCODING 9516
SWIDTH 462 0
DWIDTH 9 0
BBX 10 11 0 -4
BITMAP
FFC0
0C00
0C00
0C00
0C00
0C00
0C00
0C00
0C00
0C00
0C00
ENDCHAR
STARTCHAR 252D
ENCODING 9517
SWIDTH 462 0
DWIDTH 9 0
BBX 10 12 0 -4
BITMAP
FC00
FFC0
FC00
0C00
0C00
0C00
0C00
0C00
0C00
0C00
0C00
0C00
ENDCHAR
STARTCHAR 252E
ENCODING 9518
SWIDTH 462 0
DWIDTH 9 0
BBX 10 12 0 -4
BITMAP
0FC0
FFC0
0FC0
0C00
0C00
0C00
0C00
0C00
0C00
0C00
0C00
0C00
ENDCHAR
STARTCHAR 252F
ENCODING 9519
SWIDTH 462 0
DWIDTH 9 0
BBX 10 12 0 -4
BITMAP
FFC0
FFC0
FFC0
0C00
0C00
0C00
0C00
0C00
0C00
0C00
0C00
0C00
ENDCHAR
STARTCHAR 2530
ENCODING 9520
SWIDTH 462 0
DWIDTH 9 0
BBX 10 11 0 -4
BITMAP
FFC0
0C00
0C00
0C00
0C00
0C00
0C00
0C00
0C00
0C00
0C00
ENDCHAR
STARTCHAR 2531
ENCODING 9521
SWIDTH 462 0
DWIDTH 9 0
BBX 10 12 0 -4
BITMAP
FC00
FFC0
FC00
0C00
0C00
0C00
0C00
0C00
0C00
0C00
0C00
0C00
ENDCHAR
STARTCHAR 2532
ENCODING 9522
SWIDTH 462 0
DWIDTH 9 0
BBX 10 12 0 -4
BITMAP
0FC0
FFC0
0FC0
0C00
0C00
0C00
0C00
0C00
0C00
0C00
0C00
0C00
ENDCHAR
STARTCHAR 2533
ENCODING 9523
SWIDTH 462 0
DWIDTH 9 0
BBX 10 12 0 -4
BITMAP
FFC0
FFC0
FFC0
0C00
0C00
0C00
0C00
0C00
0C00
0C00
0C00
0C00
ENDCHAR
STARTCHAR 2534
ENCODING 9524
SWIDTH 462 0
DWIDTH 9 0
BBX 10 11 0 6
BITMAP
0C00
0C00
0C00
0C00
0C00
0C00
0C00
0C00
0C00
0C00
FFC0
ENDCHAR
STARTCHAR 2535
ENCODING 9525
SWIDTH 462 0
DWIDTH 9 0
BBX 10 12 0 5
BITMAP
0C00
0C00
0C00
0C00
0C00
0C00
0C00
0C00
0C00
FC00
FFC0
FC00
ENDCHAR
STARTCHAR 2536
ENCODING 9526
SWIDTH 462 0
DWIDTH 9 0
BBX 10 12 0 5
BITMAP
0C00
0C00
0C00
0C00
0C00
0C00
0C00
0C00
0C00
0FC0
FFC0
0FC0
ENDCHAR
STARTCHAR 2537
ENCODING 9527
SWIDTH 462 0
DWIDTH 9 0
BBX 10 12 0 5
BITMAP
0C00
0C00
0C00
0C00
0C00
0C00
0C00
0C00
0C00
FFC0
FFC0
FFC0
ENDCHAR
STARTCHAR 2538
ENCODING 9528
SWIDTH 462 0
DWIDTH 9 0
BBX 10 11 0 6
BITMAP
0C00
0C00
0C00
0C00
0C00
0C00
0C00
0C00
0C00
0C00
FFC0
ENDCHAR
STARTCHAR 2539
ENCODING 9529
SWIDTH 462 0
DWIDTH 9 0
BBX 10 12 0 5
BITMAP
0C00
0C00
0C00
0C00
0C00
0C00
0C00
0C00
0C00
FC00
FFC0
FC00
ENDCHAR
STARTCHAR 253A
ENCODING 9530
SWIDTH 462 0
DWIDTH 9 0
BBX 10 12 0 5
BITMAP
0C00
0C00
0C00
0C00
0C00
0C00
0C00
0C00
0C00
0FC0
FFC0
0FC0
ENDCHAR
STARTCHAR 253B
ENCODING 9531
SWIDTH 462 0
DWIDTH 9 0
BBX 10 12 0 5
BITMAP
0C00
0C00
0C00
0C00
0C00
0C00
0C00
0C00
0C00
FFC0
FFC0
FFC0
ENDCHAR
STARTCHAR 253C
ENCODING 9532
SWIDTH 462 0
DWIDTH 9 0
BBX 10 21 0 -4
BITMAP
0C00
0C00
0C00
0C00
0C00
0C00
0C00
0C00
0C00
0C00
FFC0
0C00
0C00
0C00
0C00
0C00
0C00
0C00
0C00
0C00
0C00
ENDCHAR
STARTCHAR 253D
ENCODING 9533
SWIDTH 462 0
DWIDTH 9 0
BBX 10 21 0 -4
BITMAP
0C00
0C00
0C00
0C00
0C00
0C00
0C00
0C00
0C00
FC00
FFC0
FC00
0C00
0C00
0C00
0C00
0C00
0C00
0C00
0C00
0C00
ENDCHAR
STARTCHAR 253E
ENCODING 9534
SWIDTH 462 0
DWIDTH 9 0
BBX 10 21 0 -4
BITMAP
0C00
0C00
0C00
0C00
0C00
0C00
0C00
0C00
0C00
0FC0
FFC0
0FC0
0C00
0C00
0C00
0C00
0C00
0C00
0C00
0C00
0C00
ENDCHAR
STARTCHAR 253F
ENCODING 9535
SWIDTH 462 0
DWIDTH 9 0
BBX 10 21 0 -4
BITMAP
0C00
0C00
0C00
0C00
0C00
0C00
0C00
0C00
0C00
FFC0
FFC0
FFC0
0C00
0C00
0C00
0C00
0C00
0C00
0C00
0C00
0C00
ENDCHAR
STARTCHAR 2540
ENCODING 9536
SWIDTH 462 0
DWIDTH 9 0
BBX 10 21 0 -4
BITMAP
0C00
0C00
0C00
0C00
0C00
0C00
0C00
0C00
0C00
0C00
FFC0
0C00
0C00
0C00
0C00
0C00
0C00
0C00
0C00
0C00
0C00
ENDCHAR
STARTCHAR 2541
ENCODING 9537
SWIDTH 462 0
DWIDTH 9 0
BBX 10 21 0 -4
BITMAP
0C00
0C00
0C00
0C00
0C00
0C00
0C00
0C00
0C00
0C00
FFC0
0C00
0C00
0C00
0C00
0C00
0C00
0C00
0C00
0C00
0C00
ENDCHAR
STARTCHAR 2542
ENCODING 9538
SWIDTH 462 0
DWIDTH 9 0
BBX 10 21 0 -4
BITMAP
0C00
0C00
0C00
0C00
0C00
0C00
0C00
0C00
0C00
0C00
FFC0
0C00
0C00
0C00
0C00
0C00
0C00
0C00
0C00
0C00
0C00
ENDCHAR
STARTCHAR 2543
ENCODING 9539
SWIDTH 462 0
DWIDTH 9 0
BBX 10 21 0 -4
BITMAP
0C00
0C00
0C00
0C00
0C00
0C00
0C00
0C00
0C00
FC00
FFC0
FC00
0C00
0C00
0C00
0C00
0C00
0C00
0C00
0C00
0C00
ENDCHAR
STARTCHAR 2544
ENCODING 9540
SWIDTH 462 0
DWIDTH 9 0
BBX 10 21 0 -4
BITMAP
0C00
0C00
0C00
0C00
0C00
0C00
0C00
0C00
0C00
0FC0
FFC0
0FC0
0C00
0C00
0C00
0C00
0C00
0C00
0C00
0C00
0C00
ENDCHAR
STARTCHAR 2545
ENCODING 9541
SWIDTH 462 0
DWIDTH 9 0
BBX 10 21 0 -4
BITMAP
0C00
0C00
0C00
0C00
0C00
0C00
0C00
0C00
0C00
FC00
FFC0
FC00
0C00
0C00
0C00
0C00
0C00
0C00
0C00
0C00
0C00
ENDCHAR
STARTCHAR 2546
ENCODING 9542
SWIDTH 462 0
DWIDTH 9 0
BBX 10 21 0 -4
BITMAP
0C00
0C00
0C00
0C00
0C00
0C00
0C00
0C00
0C00
0FC0
FFC0
0FC0
0C00
0C00
0C00
0C00
0C00
0C00
0C00
0C00
0C00
ENDCHAR
STARTCHAR 2547
ENCODING 9543
SWIDTH 462 0
DWIDTH 9 0
BBX 10 21 0 -4
BITMAP
0C00
0C00
0C00
0C00
0C00
0C00
0C00
0C00
0C00
FFC0
FFC0
FFC0
0C00
0C00
0C00
0C00
0C00
0C00
0C00
0C00
0C00
ENDCHAR
STARTCHAR 2548
ENCODING 9544
SWIDTH 462 0
DWIDTH 9 0
BBX 10 21 0 -4
BITMAP
0C00
0C00
0C00
0C00
0C00
0C00
0C00
0C00
0C00
FFC0
FFC0
FFC0
0C00
0C00
0C00
0C00
0C00
0C00
0C00
0C00
0C00
ENDCHAR
STARTCHAR 2549
ENCODING 9545
SWIDTH 462 0
DWIDTH 9 0
BBX 10 21 0 -4
BITMAP
0C00
0C00
0C00
0C00
0C00
0C00
0C00
0C00
0C00
FC00
FFC0
FC00
0C00
0C00
0C00
0C00
0C00
0C00
0C00
0C00
0C00
ENDCHAR
STARTCHAR 254A
ENCODING 9546
SWIDTH 462 0
DWIDTH 9 0
BBX 10 21 0 -4
BITMAP
0C00
0C00
0C00
0C00
0C00
0C00
0C00
0C00
0C00
0FC0
FFC0
0FC0
0C00
0C00
0C00
0C00
0C00
0C00
0C00
0C00
0C00
ENDCHAR
STARTCHAR 254B
ENCODING 9547
SWIDTH 462 0
DWIDTH 9 0
BBX 10 21 0 -4
BITMAP
0C00
0C00
0C00
0C00
0C00
0C00
0C00
0C00
0C00
FFC0
FFC0
FFC0
0C00
0C00
0C00
0C00
0C00
0C00
0C00
0C00
0C00
ENDCHAR
STARTCHAR 254C
ENCODING 9548
SWIDTH 462 0
DWIDTH 9 0
BBX 8 1 1 6
BITMAP
EF
ENDCHAR
STARTCHAR 254D
ENCODING 9549
SWIDTH 462 0
DWIDTH 9 0
BBX 8 3 1 5
BITMAP
EF
EF
EF
ENDCHAR
STARTCHAR 254E
ENCODING 9550
SWIDTH 462 0
DWIDTH 9 0
BBX 1 17 4 -2
BITMAP
80
80
80
80
80
80
80
00
00
00
80
80
80
80
80
80
80
ENDCHAR
STARTCHAR 254F
ENCODING 9551
SWIDTH 462 0
DWIDTH 9 0
BBX 2 17 4 -2
BITMAP
C0
C0
C0
C0
C0
C0
C0
00
00
00
C0
C0
C0
C0
C0
C0
C0
ENDCHAR
STARTCHAR 2550
ENCODING 9552
SWIDTH 462 0
DWIDTH 9 0
BBX 10 5 0 4
BITMAP
FFC0
FFC0
0000
FFC0
FFC0
ENDCHAR
STARTCHAR 2551
ENCODING 9553
SWIDTH 462 0
DWIDTH 9 0
BBX 4 21 3 -4
BITMAP
B0
B0
B0
B0
B0
B0
B0
B0
B0
B0
B0
B0
B0
B0
B0
B0
B0
B0
B0
B0
B0
ENDCHAR
STARTCHAR 2552
ENCODING 9554
SWIDTH 462 0
DWIDTH 9 0
BBX 6 13 4 -4
BITMAP
FC
FC
80
FC
FC
80
80
80
80
80
80
80
80
ENDCHAR
STARTCHAR 2553
ENCODING 9555
SWIDTH 462 0
DWIDTH 9 0
BBX 7 11 3 -4
BITMAP
FE
B0
B0
B0
B0
B0
B0
B0
B0
B0
B0
ENDCHAR
STARTCHAR 2554
ENCODING 9556
SWIDTH 462 0
DWIDTH 9 0
BBX 7 13 3 -4
BITMAP
FE
FE
80
BE
BE
B0
B0
B0
B0
B0
B0
B0
B0
ENDCHAR
STARTCHAR 2555
ENCODING 9557
SWIDTH 462 0
DWIDTH 9 0
BBX 6 13 0 -4
BITMAP
FC
FC
0C
FC
FC
0C
0C
0C
0C
0C
0C
0C
0C
ENDCHAR
STARTCHAR 2556
ENCODING 9558
SWIDTH 462 0
DWIDTH 9 0
BBX 7 11 0 -4
BITMAP
FE
16
16
16
16
16
16
16
16
16
16
ENDCHAR
STARTCHAR 2557
ENCODING 9559
SWIDTH 462 0
DWIDTH 9 0
BBX 7 13 0 -4
BITMAP
FE
FE
06
F6
F6
16
16
16
16
16
16
16
16
ENDCHAR
STARTCHAR 2558
ENCODING 9560
SWIDTH 462 0
DWIDTH 9 0
BBX 6 13 4 4
BITMAP
80
80
80
80
80
80
80
80
FC
FC
80
FC
FC
ENDCHAR
STARTCHAR 2559
ENCODING 9561
SWIDTH 462 0
DWIDTH 9 0
BBX 7 11 3 6
BITMAP
B0
B0
B0
B0
B0
B0
B0
B0
B0
B0
FE
ENDCHAR
STARTCHAR 255A
ENCODING 9562
SWIDTH 462 0
DWIDTH 9 0
BBX 7 13 3 4
BITMAP
B0
B0
B0
B0
B0
B0
B0
B0
BE
BE
80
FE
FE
ENDCHAR
STARTCHAR 255B
ENCODING 9563
SWIDTH 462 0
DWIDTH 9 0
BBX 6 13 0 4
BITMAP
0C
0C
0C
0C
0C
0C
0C
0C
FC
FC
0C
FC
FC
ENDCHAR
STARTCHAR 255C
ENCODING 9564
SWIDTH 462 0
DWIDTH 9 0
BBX 7 11 0 6
BITMAP
16
16
16
16
16
16
16
16
16
16
FE
ENDCHAR
STARTCHAR 255D
ENCODING 9565
SWIDTH 462 0
DWIDTH 9 0
BBX 7 13 0 4
BITMAP
16
16
16
16
16
16
16
16
F6
F6
06
FE
FE
ENDCHAR
STARTCHAR 255E
ENCODING 9566
SWIDTH 462 0
DWIDTH 9 0
BBX 6 21 4 -4
BITMAP
80
80
80
80
80
80
80
80
FC
FC
80
FC
FC
80
80
80
80
80
80
80
80
ENDCHAR
STARTCHAR 255F
ENCODING 9567
SWIDTH 462 0
DWIDTH 9 0
BBX 7 21 3 -4
BITMAP
B0
B0
B0
B0
B0
B0
B0
B0
B0
B0
BE
B0
B0
B0
B0
B0
B0
B0
B0
B0
B0
ENDCHAR
STARTCHAR 2560
ENCODING 9568
SWIDTH 462 0
DWIDTH 9 0
BBX 7 21 3 -4
BITMAP
B0
B0
B0
B0
B0
B0
B0
B0
BE
BE
80
BE
BE
B0
B0
B0
B0
B0
B0
B0
B0
ENDCHAR
STARTCHAR 2561
ENCODING 9569
SWIDTH 462 0
DWIDTH 9 0
BBX 6 21 0 -4
BITMAP
0C
0C
0C
0C
0C
0C
0C
0C
FC
FC
0C
FC
FC
0C
0C
0C
0C
0C
0C
0C
0C
ENDCHAR
STARTCHAR 2562
ENCODING 9570
SWIDTH 462 0
DWIDTH 9 0
BBX 7 21 0 -4
BITMAP
16
16
16
16
16
16
16
16
16
16
F6
16
16
16
16
16
16
16
16
16
16
ENDCHAR
STARTCHAR 2563
ENCODING 9571
SWIDTH 462 0
DWIDTH 9 0
BBX 7 21 0 -4
BITMAP
16
16
16
16
16
16
16
16
F6
F6
06
F6
F6
16
16
16
16
16
16
16
16
ENDCHAR
STARTCHAR 2564
ENCODING 9572
SWIDTH 462 0
DWIDTH 9 0
BBX 10 13 0 -4
BITMAP
FFC0
FFC0
0000
FFC0
FFC0
0C00
0C00
0C00
0C00
0C00
0C00
0C00
0C00
ENDCHAR
STARTCHAR 2565
ENCODING 9573
SWIDTH 462 0
DWIDTH 9 0
BBX 10 11 0 -4
BITMAP
FFC0
1600
1600
1600
1600
1600
1600
1600
1600
1600
1600
ENDCHAR
STARTCHAR 2566
ENCODING 9574
SWIDTH 462 0
DWIDTH 9 0
BBX 10 13 0 -4
BITMAP
FFC0
FFC0
0000
F7C0
F7C0
1600
1600
1600
1600
1600
1600
1600
1600
ENDCHAR
STARTCHAR 2567
ENCODING 9575
SWIDTH 462 0
DWIDTH 9 0
BBX 10 13 0 4
BITMAP
0C00
0C00
0C00
0C00
0C00
0C00
0C00
0C00
FFC0
FFC0
0000
FFC0
FFC0
ENDCHAR
STARTCHAR 2568
ENCODING 9576
SWIDTH 462 0
DWIDTH 9 0
BBX 10 11 0 6
BITMAP
1600
1600
1600
1600
1600
1600
1600
1600
1600
1600
FFC0
ENDCHAR
STARTCHAR 2569
ENCODING 9577
SWIDTH 462 0
DWIDTH 9 0
BBX 10 13 0 4
BITMAP
1600
1600
1600
1600
1600
1600
1600
1600
F7C0
F7C0
0000
FFC0
FFC0
ENDCHAR
STARTCHAR 256A
ENCODING 9578
SWIDTH 462 0
DWIDTH 9 0
BBX 10 21 0 -4
BITMAP
0C00
0C00
0C00
0C00
0C00
0C00
0C00
0C00
FFC0
FFC0
0C00
FFC0
FFC0
0C00
0C00
0C00
0C00
0C00
0C00
0C00
0C00
ENDCHAR
STARTCHAR 256B
ENCODING 9579
SWIDTH 462 0
DWIDTH 9 0
BBX 10 21 0 -4
BITMAP
1600
1600
1600
1600
1600
1600
1600
1600
1600
1600
FFC0
1600
1600
1600
1600
1600
1600
1600
1600
1600
1600
ENDCHAR
STARTCHAR 256C
ENCODING 9580
SWIDTH 462 0
DWIDTH 9 0
BBX 10 21 0 -4
BITMAP
1600
1600
1600
1600
1600
1600
1600
1600
F7C0
F7C0
0000
F7C0
F7C0
1600
1600
1600
1600
1600
1600
1600
1600
ENDCHAR
STARTCHAR 256D
ENCODING 9581
SWIDTH 462 0
DWIDTH 9 0
BBX 6 11 4 -4
BITMAP
7C
40
C0
80
80
80
80
80
80
80
80
ENDCHAR
STARTCHAR 256E
ENCODING 9582
SWIDTH 462 0
DWIDTH 9 0
BBX 6 11 0 -4
BITMAP
F0
08
08
0C
0C
0C
0C
0C
0C
0C
0C
ENDCHAR
STARTCHAR 256F
ENCODING 9583
SWIDTH 462 0
DWIDTH 9 0
BBX 6 11 0 6
BITMAP
0C
0C
0C
0C
0C
0C
0C
0C
08
08
F8
ENDCHAR
STARTCHAR 2570
ENCODING 9584
SWIDTH 462 0
DWIDTH 9 0
BBX 6 11 4 6
BITMAP
80
80
80
80
80
80
80
80
C0
40
7C
ENDCHAR
STARTCHAR 2571
ENCODING 9585
SWIDTH 462 0
DWIDTH 9 0
BBX 10 21 0 -4
BITMAP
00C0
0080
0180
0100
0100
0300
0200
0600
0400
0400
0C00
0800
1800
1000
1000
2000
2000
6000
4000
4000
8000
ENDCHAR
STARTCHAR 2572
ENCODING 9586
SWIDTH 462 0
DWIDTH 9 0
BBX 10 21 0 -4
BITMAP
8000
4000
4000
6000
2000
2000
1000
1000
1800
0800
0800
0400
0400
0600
0200
0300
0100
0100
0180
0080
00C0
ENDCHAR
STARTCHAR 2573
ENCODING 9587
SWIDTH 462 0
DWIDTH 9 0
BBX 10 21 0 -4
BITMAP
80C0
4080
4180
6100
2100
2300
1200
1600
1C00
0C00
0C00
0C00
1C00
1600
1200
2300
2100
6100
4180
4080
80C0
ENDCHAR
STARTCHAR 2574
ENCODING 9588
SWIDTH 462 0
DWIDTH 9 0
BBX 5 1 0 6
BITMAP
F8
ENDCHAR
STARTCHAR 2575
ENCODING 9589
SWIDTH 462 0
DWIDTH 9 0
BBX 1 11 4 6
BITMAP
80
80
80
80
80
80
80
80
80
80
80
ENDCHAR
STARTCHAR 2576
ENCODING 9590
SWIDTH 462 0
DWIDTH 9 0
BBX 5 1 5 6
BITMAP
F8
ENDCHAR
STARTCHAR 2577
ENCODING 9591
SWIDTH 462 0
DWIDTH 9 0
BBX 1 10 4 -4
BITMAP
80
80
80
80
80
80
80
80
80
80
ENDCHAR
STARTCHAR 2578
ENCODING 9592
SWIDTH 462 0
DWIDTH 9 0
BBX 5 3 0 5
BITMAP
F8
F8
F8
ENDCHAR
STARTCHAR 2579
ENCODING 9593
SWIDTH 462 0
DWIDTH 9 0
BBX 2 11 4 6
BITMAP
C0
C0
C0
C0
C0
C0
C0
C0
C0
C0
C0
ENDCHAR
STARTCHAR 257A
ENCODING 9594
SWIDTH 462 0
DWIDTH 9 0
BBX 5 3 5 5
BITMAP
F8
F8
F8
ENDCHAR
STARTCHAR 257B
ENCODING 9595
SWIDTH 462 0
DWIDTH 9 0
BBX 2 10 4 -4
BITMAP
C0
C0
C0
C0
C0
C0
C0
C0
C0
C0
ENDCHAR
STARTCHAR 257C
ENCODING 9596
SWIDTH 462 0
DWIDTH 9 0
BBX 10 3 0 5
BITMAP
07C0
FFC0
07C0
ENDCHAR
STARTCHAR 257D
ENCODING 9597
SWIDTH 462 0
DWIDTH 9 0
BBX 2 21 4 -4
BITMAP
80
80
80
80
80
80
80
80
80
80
80
C0
C0
C0
C0
C0
C0
C0
C0
C0
C0
ENDCHAR
STARTCHAR 257E
ENCODING 9598
SWIDTH 462 0
DWIDTH 9 0
BBX 10 3 0 5
BITMAP
F800
FFC0
F800
ENDCHAR
STARTCHAR 257F
ENCODING 9599
SWIDTH 462 0
DWIDTH 9 0
BBX 2 21 4 -4
BITMAP
C0
C0
C0
C0
C0
C0
C0
C0
C0
C0
C0
80
80
80
80
80
80
80
80
80
80
ENDCHAR
STARTCHAR 2580
ENCODING 9600
SWIDTH 462 0
DWIDTH 9 0
BBX 10 11 0 6
BITMAP
FFC0
FFC0
FFC0
FFC0
FFC0
FFC0
FFC0
FFC0
FFC0
FFC0
FFC0
ENDCHAR
STARTCHAR 2581
ENCODING 9601
SWIDTH 462 0
DWIDTH 9 0
BBX 10 3 0 -4
BITMAP
FFC0
FFC0
FFC0
ENDCHAR
STARTCHAR 2582
ENCODING 9602
SWIDTH 462 0
DWIDTH 9 0
BBX 10 5 0 -4
BITMAP
FFC0
FFC0
FFC0
FFC0
FFC0
ENDCHAR
STARTCHAR 2583
ENCODING 9603
SWIDTH 462 0
DWIDTH 9 0
BBX 10 8 0 -4
BITMAP
FFC0
FFC0
FFC0
FFC0
FFC0
FFC0
FFC0
FFC0
ENDCHAR
STARTCHAR 2584
ENCODING 9604
SWIDTH 462 0
DWIDTH 9 0
BBX 10 10 0 -4
BITMAP
FFC0
FFC0
FFC0
FFC0
FFC0
FFC0
FFC0
FFC0
FFC0
FFC0
ENDCHAR
STARTCHAR 2585
ENCODING 9605
SWIDTH 462 0
DWIDTH 9 0
BBX 10 13 0 -4
BITMAP
FFC0
FFC0
FFC0
FFC0
FFC0
FFC0
FFC0
FFC0
FFC0
FFC0
FFC0
FFC0
FFC0
ENDCHAR
STARTCHAR 2586
ENCODING 9606
SWIDTH 462 0
DWIDTH 9 0
BBX 10 16 0 -4
BITMAP
FFC0
FFC0
FFC0
FFC0
FFC0
FFC0
FFC0
FFC0
FFC0
FFC0
FFC0
FFC0
FFC0
FFC0
FFC0
FFC0
ENDCHAR
STARTCHAR 2587
ENCODING 9607
SWIDTH 462 0
DWIDTH 9 0
BBX 10 18 0 -4
BITMAP
FFC0
FFC0
FFC0
FFC0
FFC0
FFC0
FFC0
FFC0
FFC0
FFC0
FFC0
FFC0
FFC0
FFC0
FFC0
FFC0
FFC0
FFC0
ENDCHAR
STARTCHAR 2588
ENCODING 9608
SWIDTH 462 0
DWIDTH 9 0
BBX 10 21 0 -4
BITMAP
FFC0
FFC0
FFC0
FFC0
FFC0
FFC0
FFC0
FFC0
FFC0
FFC0
FFC0
FFC0
FFC0
FFC0
FFC0
FFC0
FFC0
FFC0
FFC0
FFC0
FFC0
ENDCHAR
STARTCHAR 2589
ENCODING 9609
SWIDTH 462 0
DWIDTH 9 0
BBX 9 21 0 -4
BITMAP
FF80
FF80
FF80
FF80
FF80
FF80
FF80
FF80
FF80
FF80
FF80
FF80
FF80
FF80
FF80
FF80
FF80
FF80
FF80
FF80
FF80
ENDCHAR
STARTCHAR 258A
ENCODING 9610
SWIDTH 462 0
DWIDTH 9 0
BBX 7 21 0 -4
BITMAP
FE
FE
FE
FE
FE
FE
FE
FE
FE
FE
FE
FE
FE
FE
FE
FE
FE
FE
FE
FE
FE
ENDCHAR
STARTCHAR 258B
ENCODING 9611
SWIDTH 462 0
DWIDTH 9 0
BBX 6 21 0 -4
BITMAP
FC
FC
FC
FC
FC
FC
FC
FC
FC
FC
FC
FC
FC
FC
FC
FC
FC
FC
FC
FC
FC
ENDCHAR
STARTCHAR 258C
ENCODING 9612
SWIDTH 462 0
DWIDTH 9 0
BBX 5 21 0 -4
BITMAP
F8
F8
F8
F8
F8
F8
F8
F8
F8
F8
F8
F8
F8
F8
F8
F8
F8
F8
F8
F8
F8
ENDCHAR
STARTCHAR 258D
ENCODING 9613
SWIDTH 462 0
DWIDTH 9 0
BBX 4 21 0 -4
BITMAP
F0
F0
F0
F0
F0
F0
F0
F0
F0
F0
F0
F0
F0
F0
F0
F0
F0
F0
F0
F0
F0
ENDCHAR
STARTCHAR 258E
ENCODING 9614
SWIDTH 462 0
DWIDTH 9 0
BBX 2 21 0 -4
BITMAP
C0
C0
C0
C0
C0
C0
C0
C0
C0
C0
C0
C0
C0
C0
C0
C0
C0
C0
C0
C0
C0
ENDCHAR
STARTCHAR 258F
ENCODING 9615
SWIDTH 462 0
DWIDTH 9 0
BBX 1 21 0 -4
BITMAP
80
80
80
80
80
80
80
80
80
80
80
80
80
80
80
80
80
80
80
80
80
ENDCHAR
STARTCHAR 2590
ENCODING 9616
SWIDTH 462 0
DWIDTH 9 0
BBX 5 21 5 -4
BITMAP
F8
F8
F8
F8
F8
F8
F8
F8
F8
F8
F8
F8
F8
F8
F8
F8
F8
F8
F8
F8
F8
ENDCHAR
STARTCHAR 2591
ENCODING 9617
SWIDTH 462 0
DWIDTH 9 0
BBX 9 21 0 -4
BITMAP
8400
8400
0000
3180
3180
8400
8400
0000
3180
3180
0000
8400
8400
0000
3180
3180
8400
8400
0000
3180
3180
ENDCHAR
STARTCHAR 2592
ENCODING 9618
SWIDTH 462 0
DWIDTH 9 0
BBX 10 21 0 -4
BITMAP
D900
D900
26C0
26C0
D900
D900
26C0
26C0
D900
D900
D900
26C0
26C0
D900
D900
26C0
26C0
D900
D900
26C0
26C0
ENDCHAR
STARTCHAR 2593
ENCODING 9619
SWIDTH 462 0
DWIDTH 9 0
BBX 10 21 0 -4
BITMAP
7BC0
7BC0
FFC0
CE40
CE40
7BC0
7BC0
FFC0
CE40
CE40
FFC0
7BC0
7BC0
FFC0
CE40
CE40
7BC0
7BC0
FFC0
CE40
CE40
ENDCHAR
STARTCHAR 2594
ENCODING 9620
SWIDTH 462 0
DWIDTH 9 0
BBX 10 3 0 14
BITMAP
FFC0
FFC0
FFC0
ENDCHAR
STARTCHAR 2595
ENCODING 9621
SWIDTH 462 0
DWIDTH 9 0
BBX 1 21 9 -4
BITMAP
80
80
80
80
80
80
80
80
80
80
80
80
80
80
80
80
80
80
80
80
80
ENDCHAR
STARTCHAR 2596
ENCODING 9622
SWIDTH 462 0
DWIDTH 9 0
BBX 5 10 0 -4
BITMAP
F8
F8
F8
F8
F8
F8
F8
F8
F8
F8
ENDCHAR
STARTCHAR 2597
ENCODING 9623
SWIDTH 462 0
DWIDTH 9 0
BBX 5 10 5 -4
BITMAP
F8
F8
F8
F8
F8
F8
F8
F8
F8
F8
ENDCHAR
STARTCHAR 2598
ENCODING 9624
SWIDTH 462 0
DWIDTH 9 0
BBX 5 11 0 6
BITMAP
F8
F8
F8
F8
F8
F8
F8
F8
F8
F8
F8
ENDCHAR
STARTCHAR 2599
ENCODING 9625
SWIDTH 462 0
DWIDTH 9 0
BBX 10 21 0 -4
BITMAP
F800
F800
F800
F800
F800
F800
F800
F800
F800
F800
F800
FFC0
FFC0
FFC0
FFC0
FFC0
FFC0
FFC0
FFC0
FFC0
FFC0
ENDCHAR
STARTCHAR 259A
ENCODING 9626
SWIDTH 462 0
DWIDTH 9 0
BBX 10 21 0 -4
BITMAP
F800
F800
F800
F800
F800
F800
F800
F800
F800
F800
F800
07C0
07C0
07C0
07C0
07C0
07C0
07C0
07C0
07C0
07C0
ENDCHAR
STARTCHAR 259B
ENCODING 9627
SWIDTH 462 0
DWIDTH 9 0
BBX 10 21 0 -4
BITMAP
FFC0
FFC0
FFC0
FFC0
FFC0
FFC0
FFC0
FFC0
FFC0
FFC0
FFC0
F800
F800
F800
F800
F800
F800
F800
F800
F800
F800
ENDCHAR
STARTCHAR 259C
ENCODING 9628
SWIDTH 462 0
DWIDTH 9 0
BBX 10 21 0 -4
BITMAP
FFC0
FFC0
FFC0
FFC0
FFC0
FFC0
FFC0
FFC0
FFC0
FFC0
FFC0
07C0
07C0
07C0
07C0
07C0
07C0
07C0
07C0
07C0
07C0
ENDCHAR
STARTCHAR 259D
ENCODING 9629
SWIDTH 462 0
DWIDTH 9 0
BBX 5 11 5 6
BITMAP
F8
F8
F8
F8
F8
F8
F8
F8
F8
F8
F8
ENDCHAR
STARTCHAR 259E
ENCODING 9630
SWIDTH 462 0
DWIDTH 9 0
BBX 10 21 0 -4
BITMAP
07C0
07C0
07C0
07C0
07C0
07C0
07C0
07C0
07C0
07C0
07C0
F800
F800
F800
F800
F800
F800
F800
F800
F800
F800
ENDCHAR
STARTCHAR 259F
ENCODING 9631
SWIDTH 462 0
DWIDTH 9 0
BBX 10 21 0 -4
BITMAP
07C0
07C0
07C0
07C0
07C0
07C0
07C0
07C0
07C0
07C0
07C0
FFC0
FFC0
FFC0
FFC0
FFC0
FFC0
FFC0
FFC0
FFC0
FFC0
ENDCHAR
STARTCHAR 25A0
ENCODING 9632
SWIDTH 462 0
DWIDTH 9 0
BBX 7 7 1 3
BITMAP
3E
3E
7E
7C
7C
FC
F8
ENDCHAR
STARTCHAR 25AC
ENCODING 9644
SWIDTH 462 0
DWIDTH 9 0
BBX 9 5 -1 0
BITMAP
7F80
7F80
FF00
FF00
FF00
ENDCHAR
STARTCHAR 25AE
ENCODING 9646
SWIDTH 462 0
DWIDTH 9 0
BBX 11 13 -1 0
BITMAP
0FE0
0FE0
0FE0
1FE0
1FC0
1FC0
3FC0
3F80
3F80
7F80
7F00
7F00
FF00
ENDCHAR
STARTCHAR 25B2
ENCODING 9650
SWIDTH 462 0
DWIDTH 9 0
BBX 9 9 -1 2
BITMAP
0200
0300
0700
0F00
1F00
3F00
3F00
7F80
FF80
ENDCHAR
STARTCHAR 25B6
ENCODING 9654
SWIDTH 462 0
DWIDTH 9 0
BBX 10 9 -1 2
BITMAP
3800
3C00
3F00
7FC0
7FC0
7F00
FC00
E000
8000
ENDCHAR
STARTCHAR 25BA
ENCODING 9658
SWIDTH 462 0
DWIDTH 9 0
BBX 10 9 -1 2
BITMAP
3800
3C00
3F00
7FC0
7FC0
7F00
FC00
E000
8000
ENDCHAR
STARTCHAR 25BC
ENCODING 9660
SWIDTH 462 0
DWIDTH 9 0
BBX 9 9 2 1
BITMAP
FF80
FF00
FE00
FC00
F800
F000
6000
6000
4000
ENDCHAR
STARTCHAR 25C0
ENCODING 9664
SWIDTH 462 0
DWIDTH 9 0
BBX 10 9 1 2
BITMAP
00C0
07C0
1FC0
7F80
FF80
7F00
1F00
0700
0200
ENDCHAR
STARTCHAR 25C4
ENCODING 9668
SWIDTH 462 0
DWIDTH 9 0
BBX 10 9 1 2
BITMAP
00C0
07C0
1FC0
7F80
FF80
7F00
1F00
0700
0200
ENDCHAR
STARTCHAR 25C6
ENCODING 9670
SWIDTH 462 0
DWIDTH 9 0
BBX 8 9 1 2
BITMAP
04
1C
3E
7F
FF
FE
7C
78
20
ENDCHAR
STARTCHAR 25CA
ENCODING 9674
SWIDTH 462 0
DWIDTH 9 0
BBX 8 9 1 2
BITMAP
04
1C
36
63
81
C6
4C
78
20
ENDCHAR
STARTCHAR 25CB
ENCODING 9675
SWIDTH 462 0
DWIDTH 9 0
BBX 4 3 3 5
BITMAP
70
B0
E0
ENDCHAR
STARTCHAR 25CF
ENCODING 9679
SWIDTH 462 0
DWIDTH 9 0
BBX 4 3 3 5
BITMAP
70
F0
E0
ENDCHAR
STARTCHAR 25D8
ENCODING 9688
SWIDTH 462 0
DWIDTH 9 0
BBX 16 19 -3 -3
BITMAP
03FF
03FE
07FE
07FE
07FC
0FFC
0FFC
0FF8
1E38
1C38
1C70
3FF0
3FF0
3FE0
7FE0
7FE0
7FC0
FFC0
FFC0
ENDCHAR
STARTCHAR 25D9
ENCODING 9689
SWIDTH 462 0
DWIDTH 9 0
BBX 16 19 -3 -3
BITMAP
03FF
03FE
07FE
07FE
07FC
0FFC
0FFC
0FF8
1E38
1D38
1C70
3FF0
3FF0
3FE0
7FE0
7FE0
7FC0
FFC0
FFC0
ENDCHAR
STARTCHAR 2630
ENCODING 9776
SWIDTH 462 0
DWIDTH 9 0
BBX 9 7 0 3
BITMAP
FF80
0000
0000
FF80
0000
0000
FF80
ENDCHAR
STARTCHAR 263A
ENCODING 9786
SWIDTH 462 0
DWIDTH 9 0
BBX 12 13 -1 0
BITMAP
07E0
0FF0
1030
1020
3DA0
2060
2040
6040
5EC0
4080
C080
7F00
7E00
ENDCHAR
STARTCHAR 263B
ENCODING 9787
SWIDTH 462 0
DWIDTH 9 0
BBX 12 13 -1 0
BITMAP
07E0
0FF0
1FF0
1FE0
3260
3FE0
3FC0
7FC0
61C0
7380
FF80
7F00
7E00
ENDCHAR
STARTCHAR 263C
ENCODING 9788
SWIDTH 462 0
DWIDTH 9 0
BBX 10 11 0 1
BITMAP
0200
0200
36C0
1D80
1E00
7780
1E00
6E00
DB00
1000
1000
ENDCHAR
STARTCHAR 2640
ENCODING 9792
SWIDTH 462 0
DWIDTH 9 0
BBX 10 13 0 0
BITMAP
0F80
1FC0
1040
3040
2080
2180
3F00
0C00
0800
FF00
1000
1000
3000
ENDCHAR
STARTCHAR 2642
ENCODING 9794
SWIDTH 462 0
DWIDTH 9 0
BBX 12 13 -1 0
BITMAP
01F0
01F0
0070
01A0
0320
0F00
3F80
6080
4100
4100
C300
7E00
7C00
ENDCHAR
STARTCHAR 2660
ENCODING 9824
SWIDTH 462 0
DWIDTH 9 0
BBX 9 13 0 0
BITMAP
0200
0300
0700
1F80
3F80
7F80
7F80
FF80
FF00
7E00
1000
7800
7800
ENDCHAR
STARTCHAR 2663
ENCODING 9827
SWIDTH 462 0
DWIDTH 9 0
BBX 9 13 0 0
BITMAP
0400
0700
0F00
0F00
0600
1500
7F80
FF80
FF00
FF00
1000
7800
7800
ENDCHAR
STARTCHAR 2665
ENCODING 9829
SWIDTH 462 0
DWIDTH 9 0
BBX 10 9 0 2
BITMAP
3300
CC80
8840
8040
8080
4080
2100
1600
0800
ENDCHAR
STARTCHAR 2666
ENCODING 9830
SWIDTH 462 0
DWIDTH 9 0
BBX 8 9 1 2
BITMAP
04
1C
3E
7F
FF
FE
7C
78
20
ENDCHAR
STARTCHAR 266A
ENCODING 9834
SWIDTH 462 0
DWIDTH 9 0
BBX 11 13 -1 0
BITMAP
07E0
07E0
0820
0820
0FC0
1C00
1000
1000
2000
2000
2000
C000
C000
ENDCHAR
STARTCHAR 266B
ENCODING 9835
SWIDTH 462 0
DWIDTH 9 0
BBX 13 13 -2 0
BITMAP
07F8
07F8
0418
0C10
0FF0
0E30
1820
1020
1060
2040
20C0
E180
C000
ENDCHAR
STARTCHAR 26A1
ENCODING 9889
SWIDTH 462 0
DWIDTH 9 0
BBX 10 13 0 0
BITMAP
0200
0700
0F00
1A00
3200
67C0
C0C0
F180
1300
1600
2C00
3800
3000
ENDCHAR
STARTCHAR 2713
ENCODING 10003
SWIDTH 462 0
DWIDTH 9 0
BBX 12 12 0 0
BITMAP
0030
0020
0060
00C0
0080
4100
C200
4400
4800
5800
7000
6000
ENDCHAR
STARTCHAR 2714
ENCODING 10004
SWIDTH 462 0
DWIDTH 9 0
BBX 12 13 0 0
BITMAP
0030
0060
0060
00C0
0180
4300
C600
CC00
C800
D800
F000
6000
4000
ENDCHAR
STARTCHAR 2717
ENCODING 10007
SWIDTH 462 0
DWIDTH 9 0
BBX 10 12 0 0
BITMAP
0040
00C0
1180
1100
0E00
0C00
0C00
1200
3100
2000
4000
8000
ENDCHAR
STARTCHAR 2718
ENCODING 10008
SWIDTH 462 0
DWIDTH 9 0
BBX 11 13 -1 0
BITMAP
0060
00E0
18C0
0D80
0700
0700
0F00
0980
1880
3000
6000
C000
8000
ENDCHAR
STARTCHAR 276C
ENCODING 10092
SWIDTH 462 0
DWIDTH 9 0
BBX 5 13 2 0
BITMAP
18
18
30
30
60
60
C0
60
60
30
30
18
18
ENDCHAR
STARTCHAR 276D
ENCODING 10093
SWIDTH 462 0
DWIDTH 9 0
BBX 4 13 3 0
BITMAP
80
C0
40
60
20
30
10
30
20
60
40
C0
80
ENDCHAR
STARTCHAR 276E
ENCODING 10094
SWIDTH 462 0
DWIDTH 9 0
BBX 7 13 1 0
BITMAP
0E
0C
1C
38
30
70
E0
70
30
38
1C
1C
0E
ENDCHAR
STARTCHAR 276F
ENCODING 10095
SWIDTH 462 0
DWIDTH 9 0
BBX 6 13 2 0
BITMAP
E0
E0
70
30
38
1C
0C
1C
38
38
70
E0
E0
ENDCHAR
STARTCHAR 2770
ENCODING 10096
SWIDTH 462 0
DWIDTH 9 0
BBX 7 15 1 -1
BITMAP
0E
1E
1C
3C
38
78
70
F0
70
78
38
3C
1C
1E
0E
ENDCHAR
STARTCHAR 2771
ENCODING 10097
SWIDTH 462 0
DWIDTH 9 0
BBX 7 15 1 -1
BITMAP
F0
70
78
38
3C
1C
1E
0E
1E
1C
3C
38
78
70
F0
ENDCHAR
STARTCHAR 27E8
ENCODING 10216
SWIDTH 462 0
DWIDTH 9 0
BBX 6 13 3 0
BITMAP
0C
08
18
30
60
40
80
80
80
C0
40
40
40
ENDCHAR
STARTCHAR 27E9
ENCODING 10217
SWIDTH 462 0
DWIDTH 9 0
BBX 5 12 2 0
BITMAP
10
10
10
18
08
08
08
10
20
60
40
80
ENDCHAR
STARTCHAR 27EA
ENCODING 10218
SWIDTH 462 0
DWIDTH 9 0
BBX 9 13 1 0
BITMAP
0C80
0C80
1900
1200
2600
4C00
8800
C800
C800
4800
4C00
4C00
4C00
ENDCHAR
STARTCHAR 27EB
ENCODING 10219
SWIDTH 462 0
DWIDTH 9 0
BBX 9 13 0 0
BITMAP
1100
1100
1900
0900
0980
0980
0980
1900
3200
2400
4C00
9800
1000
ENDCHAR
STARTCHAR 2800
ENCODING 10240
SWIDTH 462 0
DWIDTH 9 0
BBX 0 0 0 0
BITMAP
ENDCHAR
STARTCHAR 2801
ENCODING 10241
SWIDTH 462 0
DWIDTH 9 0
BBX 2 2 4 13
BITMAP
40
C0
ENDCHAR
STARTCHAR 2802
ENCODING 10242
SWIDTH 462 0
DWIDTH 9 0
BBX 1 2 3 7
BITMAP
80
80
ENDCHAR
STARTCHAR 2803
ENCODING 10243
SWIDTH 462 0
DWIDTH 9 0
BBX 3 7 3 7
BITMAP
20
60
00
00
00
80
80
ENDCHAR
STARTCHAR 2804
ENCODING 10244
SWIDTH 462 0
DWIDTH 9 0
BBX 1 2 1 3
BITMAP
80
80
ENDCHAR
STARTCHAR 2805
ENCODING 10245
SWIDTH 462 0
DWIDTH 9 0
BBX 5 12 1 3
BITMAP
08
18
00
00
00
00
00
00
00
00
80
80
ENDCHAR
STARTCHAR 2806
ENCODING 10246
SWIDTH 462 0
DWIDTH 9 0
BBX 3 7 1 3
BITMAP
20
20
00
00
00
80
80
ENDCHAR
STARTCHAR 2807
ENCODING 10247
SWIDTH 462 0
DWIDTH 9 0
BBX 5 12 1 3
BITMAP
08
18
00
00
00
20
20
00
00
00
80
80
ENDCHAR
STARTCHAR 2808
ENCODING 10248
SWIDTH 462 0
DWIDTH 9 0
BBX 2 2 9 13
BITMAP
C0
80
ENDCHAR
STARTCHAR 2809
ENCODING 10249
SWIDTH 462 0
DWIDTH 9 0
BBX 7 2 4 13
BITMAP
46
C4
ENDCHAR
STARTCHAR 280A
ENCODING 10250
SWIDTH 462 0
DWIDTH 9 0
BBX 8 7 3 7
BITMAP
03
02
00
00
00
80
80
ENDCHAR
STARTCHAR 280B
ENCODING 10251
SWIDTH 462 0
DWIDTH 9 0
BBX 8 7 3 7
BITMAP
23
62
00
00
00
80
80
ENDCHAR
STARTCHAR 280C
ENCODING 10252
SWIDTH 462 0
DWIDTH 9 0
BBX 10 12 1 3
BITMAP
00C0
0080
0000
0000
0000
0000
0000
0000
0000
0000
8000
8000
ENDCHAR
STARTCHAR 280D
ENCODING 10253
SWIDTH 462 0
DWIDTH 9 0
BBX 10 12 1 3
BITMAP
08C0
1880
0000
0000
0000
0000
0000
0000
0000
0000
8000
8000
ENDCHAR
STARTCHAR 280E
ENCODING 10254
SWIDTH 462 0
DWIDTH 9 0
BBX 10 12 1 3
BITMAP
00C0
0080
0000
0000
0000
2000
2000
0000
0000
0000
8000
8000
ENDCHAR
STARTCHAR 280F
ENCODING 10255
SWIDTH 462 0
DWIDTH 9 0
BBX 10 12 1 3
BITMAP
08C0
1880
0000
0000
0000
2000
2000
0000
0000
0000
8000
8000
ENDCHAR
STARTCHAR 2810
ENCODING 10256
SWIDTH 462 0
DWIDTH 9 0
BBX 2 2 7 7
BITMAP
40
C0
ENDCHAR
STARTCHAR 2811
ENCODING 10257
SWIDTH 462 0
DWIDTH 9 0
BBX 5 7 4 7
BITMAP
40
C0
00
00
00
08
18
ENDCHAR
STARTCHAR 2812
ENCODING 10258
SWIDTH 462 0
DWIDTH 9 0
BBX 6 2 3 7
BITMAP
84
8C
ENDCHAR
STARTCHAR 2813
ENCODING 10259
SWIDTH 462 0
DWIDTH 9 0
BBX 6 7 3 7
BITMAP
20
60
00
00
00
84
8C
ENDCHAR
STARTCHAR 2814
ENCODING 10260
SWIDTH 462 0
DWIDTH 9 0
BBX 8 7 1 3
BITMAP
01
03
00
00
00
80
80
ENDCHAR
STARTCHAR 2815
ENCODING 10261
SWIDTH 462 0
DWIDTH 9 0
BBX 8 12 1 3
BITMAP
08
18
00
00
00
01
03
00
00
00
80
80
ENDCHAR
STARTCHAR 2816
ENCODING 10262
SWIDTH 462 0
DWIDTH 9 0
BBX 8 7 1 3
BITMAP
21
23
00
00
00
80
80
ENDCHAR
STARTCHAR 2817
ENCODING 10263
SWIDTH 462 0
DWIDTH 9 0
BBX 8 12 1 3
BITMAP
08
18
00
00
00
21
23
00
00
00
80
80
ENDCHAR
STARTCHAR 2818
ENCODING 10264
SWIDTH 462 0
DWIDTH 9 0
BBX 4 7 7 7
BITMAP
30
20
00
00
00
40
C0
ENDCHAR
STARTCHAR 2819
ENCODING 10265
SWIDTH 462 0
DWIDTH 9 0
BBX 7 7 4 7
BITMAP
46
C4
00
00
00
08
18
ENDCHAR
STARTCHAR 281A
ENCODING 10266
SWIDTH 462 0
DWIDTH 9 0
BBX 8 7 3 7
BITMAP
03
02
00
00
00
84
8C
ENDCHAR
STARTCHAR 281B
ENCODING 10267
SWIDTH 462 0
DWIDTH 9 0
BBX 8 7 3 7
BITMAP
23
62
00
00
00
84
8C
ENDCHAR
STARTCHAR 281C
ENCODING 10268
SWIDTH 462 0
DWIDTH 9 0
BBX 10 12 1 3
BITMAP
00C0
0080
0000
0000
0000
0100
0300
0000
0000
0000
8000
8000
ENDCHAR
STARTCHAR 281D
ENCODING 10269
SWIDTH 462 0
DWIDTH 9 0
BBX 10 12 1 3
BITMAP
08C0
1880
0000
0000
0000
0100
0300
0000
0000
0000
8000
8000
ENDCHAR
STARTCHAR 281E
ENCODING 10270
SWIDTH 462 0
DWIDTH 9 0
BBX 10 12 1 3
BITMAP
00C0
0080
0000
0000
0000
2100
2300
0000
0000
0000
8000
8000
ENDCHAR
STARTCHAR 281F
ENCODING 10271
SWIDTH 462 0
DWIDTH 9 0
BBX 10 12 1 3
BITMAP
08C0
1880
0000
0000
0000
2100
2300
0000
0000
0000
8000
8000
ENDCHAR
STARTCHAR 2820
ENCODING 10272
SWIDTH 462 0
DWIDTH 9 0
BBX 1 2 6 3
BITMAP
80
80
ENDCHAR
STARTCHAR 2821
ENCODING 10273
SWIDTH 462 0
DWIDTH 9 0
BBX 3 12 4 3
BITMAP
40
C0
00
00
00
00
00
00
00
00
20
20
ENDCHAR
STARTCHAR 2822
ENCODING 10274
SWIDTH 462 0
DWIDTH 9 0
BBX 4 7 3 3
BITMAP
80
80
00
00
00
10
10
ENDCHAR
STARTCHAR 2823
ENCODING 10275
SWIDTH 462 0
DWIDTH 9 0
BBX 4 12 3 3
BITMAP
20
60
00
00
00
80
80
00
00
00
10
10
ENDCHAR
STARTCHAR 2824
ENCODING 10276
SWIDTH 462 0
DWIDTH 9 0
BBX 6 2 1 3
BITMAP
84
84
ENDCHAR
STARTCHAR 2825
ENCODING 10277
SWIDTH 462 0
DWIDTH 9 0
BBX 6 12 1 3
BITMAP
08
18
00
00
00
00
00
00
00
00
84
84
ENDCHAR
STARTCHAR 2826
ENCODING 10278
SWIDTH 462 0
DWIDTH 9 0
BBX 6 7 1 3
BITMAP
20
20
00
00
00
84
84
ENDCHAR
STARTCHAR 2827
ENCODING 10279
SWIDTH 462 0
DWIDTH 9 0
BBX 6 12 1 3
BITMAP
08
18
00
00
00
20
20
00
00
00
84
84
ENDCHAR
STARTCHAR 2828
ENCODING 10280
SWIDTH 462 0
DWIDTH 9 0
BBX 5 12 6 3
BITMAP
18
10
00
00
00
00
00
00
00
00
80
80
ENDCHAR
STARTCHAR 2829
ENCODING 10281
SWIDTH 462 0
DWIDTH 9 0
BBX 7 12 4 3
BITMAP
46
C4
00
00
00
00
00
00
00
00
20
20
ENDCHAR
STARTCHAR 282A
ENCODING 10282
SWIDTH 462 0
DWIDTH 9 0
BBX 8 12 3 3
BITMAP
03
02
00
00
00
80
80
00
00
00
10
10
ENDCHAR
STARTCHAR 282B
ENCODING 10283
SWIDTH 462 0
DWIDTH 9 0
BBX 8 12 3 3
BITMAP
23
62
00
00
00
80
80
00
00
00
10
10
ENDCHAR
STARTCHAR 282C
ENCODING 10284
SWIDTH 462 0
DWIDTH 9 0
BBX 10 12 1 3
BITMAP
00C0
0080
0000
0000
0000
0000
0000
0000
0000
0000
8400
8400
ENDCHAR
STARTCHAR 282D
ENCODING 10285
SWIDTH 462 0
DWIDTH 9 0
BBX 10 12 1 3
BITMAP
08C0
1880
0000
0000
0000
0000
0000
0000
0000
0000
8400
8400
ENDCHAR
STARTCHAR 282E
ENCODING 10286
SWIDTH 462 0
DWIDTH 9 0
BBX 10 12 1 3
BITMAP
00C0
0080
0000
0000
0000
2000
2000
0000
0000
0000
8400
8400
ENDCHAR
STARTCHAR 282F
ENCODING 10287
SWIDTH 462 0
DWIDTH 9 0
BBX 10 12 1 3
BITMAP
08C0
1880
0000
0000
0000
2000
2000
0000
0000
0000
8400
8400
ENDCHAR
STARTCHAR 2830
ENCODING 10288
SWIDTH 462 0
DWIDTH 9 0
BBX 3 7 6 3
BITMAP
20
60
00
00
00
80
80
ENDCHAR
STARTCHAR 2831
ENCODING 10289
SWIDTH 462 0
DWIDTH 9 0
BBX 5 12 4 3
BITMAP
40
C0
00
00
00
08
18
00
00
00
20
20
ENDCHAR
STARTCHAR 2832
ENCODING 10290
SWIDTH 462 0
DWIDTH 9 0
BBX 6 7 3 3
BITMAP
84
8C
00
00
00
10
10
ENDCHAR
STARTCHAR 2833
ENCODING 10291
SWIDTH 462 0
DWIDTH 9 0
BBX 6 12 3 3
BITMAP
20
60
00
00
00
84
8C
00
00
00
10
10
ENDCHAR
STARTCHAR 2834
ENCODING 10292
SWIDTH 462 0
DWIDTH 9 0
BBX 8 7 1 3
BITMAP
01
03
00
00
00
84
84
ENDCHAR
STARTCHAR 2835
ENCODING 10293
SWIDTH 462 0
DWIDTH 9 0
BBX 8 12 1 3
BITMAP
08
18
00
00
00
01
03
00
00
00
84
84
ENDCHAR
STARTCHAR 2836
ENCODING 10294
SWIDTH 462 0
DWIDTH 9 0
BBX 8 7 1 3
BITMAP
21
23
00
00
00
84
84
ENDCHAR
STARTCHAR 2837
ENCODING 10295
SWIDTH 462 0
DWIDTH 9 0
BBX 8 12 1 3
BITMAP
08
18
00
00
00
21
23
00
00
00
84
84
ENDCHAR
STARTCHAR 2838
ENCODING 10296
SWIDTH 462 0
DWIDTH 9 0
BBX 5 12 6 3
BITMAP
18
10
00
00
00
20
60
00
00
00
80
80
ENDCHAR
STARTCHAR 2839
ENCODING 10297
SWIDTH 462 0
DWIDTH 9 0
BBX 7 12 4 3
BITMAP
46
C4
00
00
00
08
18
00
00
00
20
20
ENDCHAR
STARTCHAR 283A
ENCODING 10298
SWIDTH 462 0
DWIDTH 9 0
BBX 8 12 3 3
BITMAP
03
02
00
00
00
84
8C
00
00
00
10
10
ENDCHAR
STARTCHAR 283B
ENCODING 10299
SWIDTH 462 0
DWIDTH 9 0
BBX 8 12 3 3
BITMAP
23
62
00
00
00
84
8C
00
00
00
10
10
ENDCHAR
STARTCHAR 283C
ENCODING 10300
SWIDTH 462 0
DWIDTH 9 0
BBX 10 12 1 3
BITMAP
00C0
0080
0000
0000
0000
0100
0300
0000
0000
0000
8400
8400
ENDCHAR
STARTCHAR 283D
ENCODING 10301
SWIDTH 462 0
DWIDTH 9 0
BBX 10 12 1 3
BITMAP
08C0
1880
0000
0000
0000
0100
0300
0000
0000
0000
8400
8400
ENDCHAR
STARTCHAR 283E
ENCODING 10302
SWIDTH 462 0
DWIDTH 9 0
BBX 10 12 1 3
BITMAP
00C0
0080
0000
0000
0000
2100
2300
0000
0000
0000
8400
8400
ENDCHAR
STARTCHAR 283F
ENCODING 10303
SWIDTH 462 0
DWIDTH 9 0
BBX 10 12 1 3
BITMAP
08C0
1880
0000
0000
0000
2100
2300
0000
0000
0000
8400
8400
ENDCHAR
STARTCHAR 2840
ENCODING 10304
SWIDTH 462 0
DWIDTH 9 0
BBX 2 2 -1 -2
BITMAP
C0
C0
ENDCHAR
STARTCHAR 2841
ENCODING 10305
SWIDTH 462 0
DWIDTH 9 0
BBX 7 17 -1 -2
BITMAP
02
06
00
00
00
00
00
00
00
00
00
00
00
00
00
C0
C0
ENDCHAR
STARTCHAR 2842
ENCODING 10306
SWIDTH 462 0
DWIDTH 9 0
BBX 5 12 -1 -2
BITMAP
08
08
00
00
00
00
00
00
00
00
C0
C0
ENDCHAR
STARTCHAR 2843
ENCODING 10307
SWIDTH 462 0
DWIDTH 9 0
BBX 7 17 -1 -2
BITMAP
02
06
00
00
00
08
08
00
00
00
00
00
00
00
00
C0
C0
ENDCHAR
STARTCHAR 2844
ENCODING 10308
SWIDTH 462 0
DWIDTH 9 0
BBX 3 7 -1 -2
BITMAP
20
20
00
00
00
C0
C0
ENDCHAR
STARTCHAR 2845
ENCODING 10309
SWIDTH 462 0
DWIDTH 9 0
BBX 7 17 -1 -2
BITMAP
02
06
00
00
00
00
00
00
00
00
20
20
00
00
00
C0
C0
ENDCHAR
STARTCHAR 2846
ENCODING 10310
SWIDTH 462 0
DWIDTH 9 0
BBX 5 12 -1 -2
BITMAP
08
08
00
00
00
20
20
00
00
00
C0
C0
ENDCHAR
STARTCHAR 2847
ENCODING 10311
SWIDTH 462 0
DWIDTH 9 0
BBX 7 17 -1 -2
BITMAP
02
06
00
00
00
08
08
00
00
00
20
20
00
00
00
C0
C0
ENDCHAR
STARTCHAR 2848
ENCODING 10312
SWIDTH 462 0
DWIDTH 9 0
BBX 12 17 -1 -2
BITMAP
0030
0020
0000
0000
0000
0000
0000
0000
0000
0000
0000
0000
0000
0000
0000
C000
C000
ENDCHAR
STARTCHAR 2849
ENCODING 10313
SWIDTH 462 0
DWIDTH 9 0
BBX 12 17 -1 -2
BITMAP
0230
0620
0000
0000
0000
0000
0000
0000
0000
0000
0000
0000
0000
0000
0000
C000
C000
ENDCHAR
STARTCHAR 284A
ENCODING 10314
SWIDTH 462 0
DWIDTH 9 0
BBX 12 17 -1 -2
BITMAP
0030
0020
0000
0000
0000
0800
0800
0000
0000
0000
0000
0000
0000
0000
0000
C000
C000
ENDCHAR
STARTCHAR 284B
ENCODING 10315
SWIDTH 462 0
DWIDTH 9 0
BBX 12 17 -1 -2
BITMAP
0230
0620
0000
0000
0000
0800
0800
0000
0000
0000
0000
0000
0000
0000
0000
C000
C000
ENDCHAR
STARTCHAR 284C
ENCODING 10316
SWIDTH 462 0
DWIDTH 9 0
BBX 12 17 -1 -2
BITMAP
0030
0020
0000
0000
0000
0000
0000
0000
0000
0000
2000
2000
0000
0000
0000
C000
C000
ENDCHAR
STARTCHAR 284D
ENCODING 10317
SWIDTH 462 0
DWIDTH 9 0
BBX 12 17 -1 -2
BITMAP
0230
0620
0000
0000
0000
0000
0000
0000
0000
0000
2000
2000
0000
0000
0000
C000
C000
ENDCHAR
STARTCHAR 284E
ENCODING 10318
SWIDTH 462 0
DWIDTH 9 0
BBX 12 17 -1 -2
BITMAP
0030
0020
0000
0000
0000
0800
0800
0000
0000
0000
2000
2000
0000
0000
0000
C000
C000
ENDCHAR
STARTCHAR 284F
ENCODING 10319
SWIDTH 462 0
DWIDTH 9 0
BBX 12 17 -1 -2
BITMAP
0230
0620
0000
0000
0000
0800
0800
0000
0000
0000
2000
2000
0000
0000
0000
C000
C000
ENDCHAR
STARTCHAR 2850
ENCODING 10320
SWIDTH 462 0
DWIDTH 9 0
BBX 10 12 -1 -2
BITMAP
0040
00C0
0000
0000
0000
0000
0000
0000
0000
0000
C000
C000
ENDCHAR
STARTCHAR 2851
ENCODING 10321
SWIDTH 462 0
DWIDTH 9 0
BBX 10 17 -1 -2
BITMAP
0200
0600
0000
0000
0000
0040
00C0
0000
0000
0000
0000
0000
0000
0000
0000
C000
C000
ENDCHAR
STARTCHAR 2852
ENCODING 10322
SWIDTH 462 0
DWIDTH 9 0
BBX 10 12 -1 -2
BITMAP
0840
08C0
0000
0000
0000
0000
0000
0000
0000
0000
C000
C000
ENDCHAR
STARTCHAR 2853
ENCODING 10323
SWIDTH 462 0
DWIDTH 9 0
BBX 10 17 -1 -2
BITMAP
0200
0600
0000
0000
0000
0840
08C0
0000
0000
0000
0000
0000
0000
0000
0000
C000
C000
ENDCHAR
STARTCHAR 2854
ENCODING 10324
SWIDTH 462 0
DWIDTH 9 0
BBX 10 12 -1 -2
BITMAP
0040
00C0
0000
0000
0000
2000
2000
0000
0000
0000
C000
C000
ENDCHAR
STARTCHAR 2855
ENCODING 10325
SWIDTH 462 0
DWIDTH 9 0
BBX 10 17 -1 -2
BITMAP
0200
0600
0000
0000
0000
0040
00C0
0000
0000
0000
2000
2000
0000
0000
0000
C000
C000
ENDCHAR
STARTCHAR 2856
ENCODING 10326
SWIDTH 462 0
DWIDTH 9 0
BBX 10 12 -1 -2
BITMAP
0840
08C0
0000
0000
0000
2000
2000
0000
0000
0000
C000
C000
ENDCHAR
STARTCHAR 2857
ENCODING 10327
SWIDTH 462 0
DWIDTH 9 0
BBX 10 17 -1 -2
BITMAP
0200
0600
0000
0000
0000
0840
08C0
0000
0000
0000
2000
2000
0000
0000
0000
C000
C000
ENDCHAR
STARTCHAR 2858
ENCODING 10328
SWIDTH 462 0
DWIDTH 9 0
BBX 12 17 -1 -2
BITMAP
0030
0020
0000
0000
0000
0040
00C0
0000
0000
0000
0000
0000
0000
0000
0000
C000
C000
ENDCHAR
STARTCHAR 2859
ENCODING 10329
SWIDTH 462 0
DWIDTH 9 0
BBX 12 17 -1 -2
BITMAP
0230
0620
0000
0000
0000
0040
00C0
0000
0000
0000
0000
0000
0000
0000
0000
C000
C000
ENDCHAR
STARTCHAR 285A
ENCODING 10330
SWIDTH 462 0
DWIDTH 9 0
BBX 12 17 -1 -2
BITMAP
0030
0020
0000
0000
0000
0840
08C0
0000
0000
0000
0000
0000
0000
0000
0000
C000
C000
ENDCHAR
STARTCHAR 285B
ENCODING 10331
SWIDTH 462 0
DWIDTH 9 0
BBX 12 17 -1 -2
BITMAP
0230
0620
0000
0000
0000
0840
08C0
0000
0000
0000
0000
0000
0000
0000
0000
C000
C000
ENDCHAR
STARTCHAR 285C
ENCODING 10332
SWIDTH 462 0
DWIDTH 9 0
BBX 12 17 -1 -2
BITMAP
0030
0020
0000
0000
0000
0040
00C0
0000
0000
0000
2000
2000
0000
0000
0000
C000
C000
ENDCHAR
STARTCHAR 285D
ENCODING 10333
SWIDTH 462 0
DWIDTH 9 0
BBX 12 17 -1 -2
BITMAP
0230
0620
0000
0000
0000
0040
00C0
0000
0000
0000
2000
2000
0000
0000
0000
C000
C000
ENDCHAR
STARTCHAR 285E
ENCODING 10334
SWIDTH 462 0
DWIDTH 9 0
BBX 12 17 -1 -2
BITMAP
0030
0020
0000
0000
0000
0840
08C0
0000
0000
0000
2000
2000
0000
0000
0000
C000
C000
ENDCHAR
STARTCHAR 285F
ENCODING 10335
SWIDTH 462 0
DWIDTH 9 0
BBX 12 17 -1 -2
BITMAP
0230
0620
0000
0000
0000
0840
08C0
0000
0000
0000
2000
2000
0000
0000
0000
C000
C000
ENDCHAR
STARTCHAR 2860
ENCODING 10336
SWIDTH 462 0
DWIDTH 9 0
BBX 8 7 -1 -2
BITMAP
01
01
00
00
00
C0
C0
ENDCHAR
STARTCHAR 2861
ENCODING 10337
SWIDTH 462 0
DWIDTH 9 0
BBX 8 17 -1 -2
BITMAP
02
06
00
00
00
00
00
00
00
00
01
01
00
00
00
C0
C0
ENDCHAR
STARTCHAR 2862
ENCODING 10338
SWIDTH 462 0
DWIDTH 9 0
BBX 8 12 -1 -2
BITMAP
08
08
00
00
00
01
01
00
00
00
C0
C0
ENDCHAR
STARTCHAR 2863
ENCODING 10339
SWIDTH 462 0
DWIDTH 9 0
BBX 8 17 -1 -2
BITMAP
02
06
00
00
00
08
08
00
00
00
01
01
00
00
00
C0
C0
ENDCHAR
STARTCHAR 2864
ENCODING 10340
SWIDTH 462 0
DWIDTH 9 0
BBX 8 7 -1 -2
BITMAP
21
21
00
00
00
C0
C0
ENDCHAR
STARTCHAR 2865
ENCODING 10341
SWIDTH 462 0
DWIDTH 9 0
BBX 8 17 -1 -2
BITMAP
02
06
00
00
00
00
00
00
00
00
21
21
00
00
00
C0
C0
ENDCHAR
STARTCHAR 2866
ENCODING 10342
SWIDTH 462 0
DWIDTH 9 0
BBX 8 12 -1 -2
BITMAP
08
08
00
00
00
21
21
00
00
00
C0
C0
ENDCHAR
STARTCHAR 2867
ENCODING 10343
SWIDTH 462 0
DWIDTH 9 0
BBX 8 17 -1 -2
BITMAP
02
06
00
00
00
08
08
00
00
00
21
21
00
00
00
C0
C0
ENDCHAR
STARTCHAR 2868
ENCODING 10344
SWIDTH 462 0
DWIDTH 9 0
BBX 12 17 -1 -2
BITMAP
0030
0020
0000
0000
0000
0000
0000
0000
0000
0000
0100
0100
0000
0000
0000
C000
C000
ENDCHAR
STARTCHAR 2869
ENCODING 10345
SWIDTH 462 0
DWIDTH 9 0
BBX 12 17 -1 -2
BITMAP
0230
0620
0000
0000
0000
0000
0000
0000
0000
0000
0100
0100
0000
0000
0000
C000
C000
ENDCHAR
STARTCHAR 286A
ENCODING 10346
SWIDTH 462 0
DWIDTH 9 0
BBX 12 17 -1 -2
BITMAP
0030
0020
0000
0000
0000
0800
0800
0000
0000
0000
0100
0100
0000
0000
0000
C000
C000
ENDCHAR
STARTCHAR 286B
ENCODING 10347
SWIDTH 462 0
DWIDTH 9 0
BBX 12 17 -1 -2
BITMAP
0230
0620
0000
0000
0000
0800
0800
0000
0000
0000
0100
0100
0000
0000
0000
C000
C000
ENDCHAR
STARTCHAR 286C
ENCODING 10348
SWIDTH 462 0
DWIDTH 9 0
BBX 12 17 -1 -2
BITMAP
0030
0020
0000
0000
0000
0000
0000
0000
0000
0000
2100
2100
0000
0000
0000
C000
C000
ENDCHAR
STARTCHAR 286D
ENCODING 10349
SWIDTH 462 0
DWIDTH 9 0
BBX 12 17 -1 -2
BITMAP
0230
0620
0000
0000
0000
0000
0000
0000
0000
0000
2100
2100
0000
0000
0000
C000
C000
ENDCHAR
STARTCHAR 286E
ENCODING 10350
SWIDTH 462 0
DWIDTH 9 0
BBX 12 17 -1 -2
BITMAP
0030
0020
0000
0000
0000
0800
0800
0000
0000
0000
2100
2100
0000
0000
0000
C000
C000
ENDCHAR
STARTCHAR 286F
ENCODING 10351
SWIDTH 462 0
DWIDTH 9 0
BBX 12 17 -1 -2
BITMAP
0230
0620
0000
0000
0000
0800
0800
0000
0000
0000
2100
2100
0000
0000
0000
C000
C000
ENDCHAR
STARTCHAR 2870
ENCODING 10352
SWIDTH 462 0
DWIDTH 9 0
BBX 10 12 -1 -2
BITMAP
0040
00C0
0000
0000
0000
0100
0100
0000
0000
0000
C000
C000
ENDCHAR
STARTCHAR 2871
ENCODING 10353
SWIDTH 462 0
DWIDTH 9 0
BBX 10 17 -1 -2
BITMAP
0200
0600
0000
0000
0000
0040
00C0
0000
0000
0000
0100
0100
0000
0000
0000
C000
C000
ENDCHAR
STARTCHAR 2872
ENCODING 10354
SWIDTH 462 0
DWIDTH 9 0
BBX 10 12 -1 -2
BITMAP
0840
08C0
0000
0000
0000
0100
0100
0000
0000
0000
C000
C000
ENDCHAR
STARTCHAR 2873
ENCODING 10355
SWIDTH 462 0
DWIDTH 9 0
BBX 10 17 -1 -2
BITMAP
0200
0600
0000
0000
0000
0840
08C0
0000
0000
0000
0100
0100
0000
0000
0000
C000
C000
ENDCHAR
STARTCHAR 2874
ENCODING 10356
SWIDTH 462 0
DWIDTH 9 0
BBX 10 12 -1 -2
BITMAP
0040
00C0
0000
0000
0000
2100
2100
0000
0000
0000
C000
C000
ENDCHAR
STARTCHAR 2875
ENCODING 10357
SWIDTH 462 0
DWIDTH 9 0
BBX 10 17 -1 -2
BITMAP
0200
0600
0000
0000
0000
0040
00C0
0000
0000
0000
2100
2100
0000
0000
0000
C000
C000
ENDCHAR
STARTCHAR 2876
ENCODING 10358
SWIDTH 462 0
DWIDTH 9 0
BBX 10 12 -1 -2
BITMAP
0840
08C0
0000
0000
0000
2100
2100
0000
0000
0000
C000
C000
ENDCHAR
STARTCHAR 2877
ENCODING 10359
SWIDTH 462 0
DWIDTH 9 0
BBX 10 17 -1 -2
BITMAP
0200
0600
0000
0000
0000
0840
08C0
0000
0000
0000
2100
2100
0000
0000
0000
C000
C000
ENDCHAR
STARTCHAR 2878
ENCODING 10360
SWIDTH 462 0
DWIDTH 9 0
BBX 12 17 -1 -2
BITMAP
0030
0020
0000
0000
0000
0040
00C0
0000
0000
0000
0100
0100
0000
0000
0000
C000
C000
ENDCHAR
STARTCHAR 2879
ENCODING 10361
SWIDTH 462 0
DWIDTH 9 0
BBX 12 17 -1 -2
BITMAP
0230
0620
0000
0000
0000
0040
00C0
0000
0000
0000
0100
0100
0000
0000
0000
C000
C000
ENDCHAR
STARTCHAR 287A
ENCODING 10362
SWIDTH 462 0
DWIDTH 9 0
BBX 12 17 -1 -2
BITMAP
0030
0020
0000
0000
0000
0840
08C0
0000
0000
0000
0100
0100
0000
0000
0000
C000
C000
ENDCHAR
STARTCHAR 287B
ENCODING 10363
SWIDTH 462 0
DWIDTH 9 0
BBX 12 17 -1 -2
BITMAP
0230
0620
0000
0000
0000
0840
08C0
0000
0000
0000
0100
0100
0000
0000
0000
C000
C000
ENDCHAR
STARTCHAR 287C
ENCODING 10364
SWIDTH 462 0
DWIDTH 9 0
BBX 12 17 -1 -2
BITMAP
0030
0020
0000
0000
0000
0040
00C0
0000
0000
0000
2100
2100
0000
0000
0000
C000
C000
ENDCHAR
STARTCHAR 287D
ENCODING 10365
SWIDTH 462 0
DWIDTH 9 0
BBX 12 17 -1 -2
BITMAP
0230
0620
0000
0000
0000
0040
00C0
0000
0000
0000
2100
2100
0000
0000
0000
C000
C000
ENDCHAR
STARTCHAR 287E
ENCODING 10366
SWIDTH 462 0
DWIDTH 9 0
BBX 12 17 -1 -2
BITMAP
0030
0020
0000
0000
0000
0840
08C0
0000
0000
0000
2100
2100
0000
0000
0000
C000
C000
ENDCHAR
STARTCHAR 287F
ENCODING 10367
SWIDTH 462 0
DWIDTH 9 0
BBX 12 17 -1 -2
BITMAP
0230
0620
0000
0000
0000
0840
08C0
0000
0000
0000
2100
2100
0000
0000
0000
C000
C000
ENDCHAR
STARTCHAR 2880
ENCODING 10368
SWIDTH 462 0
DWIDTH 9 0
BBX 2 2 4 -2
BITMAP
C0
80
ENDCHAR
STARTCHAR 2881
ENCODING 10369
SWIDTH 462 0
DWIDTH 9 0
BBX 2 17 4 -2
BITMAP
40
C0
00
00
00
00
00
00
00
00
00
00
00
00
00
C0
80
ENDCHAR
STARTCHAR 2882
ENCODING 10370
SWIDTH 462 0
DWIDTH 9 0
BBX 3 12 3 -2
BITMAP
80
80
00
00
00
00
00
00
00
00
60
40
ENDCHAR
STARTCHAR 2883
ENCODING 10371
SWIDTH 462 0
DWIDTH 9 0
BBX 3 17 3 -2
BITMAP
20
60
00
00
00
80
80
00
00
00
00
00
00
00
00
60
40
ENDCHAR
STARTCHAR 2884
ENCODING 10372
SWIDTH 462 0
DWIDTH 9 0
BBX 5 7 1 -2
BITMAP
80
80
00
00
00
18
10
ENDCHAR
STARTCHAR 2885
ENCODING 10373
SWIDTH 462 0
DWIDTH 9 0
BBX 5 17 1 -2
BITMAP
08
18
00
00
00
00
00
00
00
00
80
80
00
00
00
18
10
ENDCHAR
STARTCHAR 2886
ENCODING 10374
SWIDTH 462 0
DWIDTH 9 0
BBX 5 12 1 -2
BITMAP
20
20
00
00
00
80
80
00
00
00
18
10
ENDCHAR
STARTCHAR 2887
ENCODING 10375
SWIDTH 462 0
DWIDTH 9 0
BBX 5 17 1 -2
BITMAP
08
18
00
00
00
20
20
00
00
00
80
80
00
00
00
18
10
ENDCHAR
STARTCHAR 2888
ENCODING 10376
SWIDTH 462 0
DWIDTH 9 0
BBX 7 17 4 -2
BITMAP
06
04
00
00
00
00
00
00
00
00
00
00
00
00
00
C0
80
ENDCHAR
STARTCHAR 2889
ENCODING 10377
SWIDTH 462 0
DWIDTH 9 0
BBX 7 17 4 -2
BITMAP
46
C4
00
00
00
00
00
00
00
00
00
00
00
00
00
C0
80
ENDCHAR
STARTCHAR 288A
ENCODING 10378
SWIDTH 462 0
DWIDTH 9 0
BBX 8 17 3 -2
BITMAP
03
02
00
00
00
80
80
00
00
00
00
00
00
00
00
60
40
ENDCHAR
STARTCHAR 288B
ENCODING 10379
SWIDTH 462 0
DWIDTH 9 0
BBX 8 17 3 -2
BITMAP
23
62
00
00
00
80
80
00
00
00
00
00
00
00
00
60
40
ENDCHAR
STARTCHAR 288C
ENCODING 10380
SWIDTH 462 0
DWIDTH 9 0
BBX 10 17 1 -2
BITMAP
00C0
0080
0000
0000
0000
0000
0000
0000
0000
0000
8000
8000
0000
0000
0000
1800
1000
ENDCHAR
STARTCHAR 288D
ENCODING 10381
SWIDTH 462 0
DWIDTH 9 0
BBX 10 17 1 -2
BITMAP
08C0
1880
0000
0000
0000
0000
0000
0000
0000
0000
8000
8000
0000
0000
0000
1800
1000
ENDCHAR
STARTCHAR 288E
ENCODING 10382
SWIDTH 462 0
DWIDTH 9 0
BBX 10 17 1 -2
BITMAP
00C0
0080
0000
0000
0000
2000
2000
0000
0000
0000
8000
8000
0000
0000
0000
1800
1000
ENDCHAR
STARTCHAR 288F
ENCODING 10383
SWIDTH 462 0
DWIDTH 9 0
BBX 10 17 1 -2
BITMAP
08C0
1880
0000
0000
0000
2000
2000
0000
0000
0000
8000
8000
0000
0000
0000
1800
1000
ENDCHAR
STARTCHAR 2890
ENCODING 10384
SWIDTH 462 0
DWIDTH 9 0
BBX 5 12 4 -2
BITMAP
08
18
00
00
00
00
00
00
00
00
C0
80
ENDCHAR
STARTCHAR 2891
ENCODING 10385
SWIDTH 462 0
DWIDTH 9 0
BBX 5 17 4 -2
BITMAP
40
C0
00
00
00
08
18
00
00
00
00
00
00
00
00
C0
80
ENDCHAR
STARTCHAR 2892
ENCODING 10386
SWIDTH 462 0
DWIDTH 9 0
BBX 6 12 3 -2
BITMAP
84
8C
00
00
00
00
00
00
00
00
60
40
ENDCHAR
STARTCHAR 2893
ENCODING 10387
SWIDTH 462 0
DWIDTH 9 0
BBX 6 17 3 -2
BITMAP
20
60
00
00
00
84
8C
00
00
00
00
00
00
00
00
60
40
ENDCHAR
STARTCHAR 2894
ENCODING 10388
SWIDTH 462 0
DWIDTH 9 0
BBX 8 12 1 -2
BITMAP
01
03
00
00
00
80
80
00
00
00
18
10
ENDCHAR
STARTCHAR 2895
ENCODING 10389
SWIDTH 462 0
DWIDTH 9 0
BBX 8 17 1 -2
BITMAP
08
18
00
00
00
01
03
00
00
00
80
80
00
00
00
18
10
ENDCHAR
STARTCHAR 2896
ENCODING 10390
SWIDTH 462 0
DWIDTH 9 0
BBX 8 12 1 -2
BITMAP
21
23
00
00
00
80
80
00
00
00
18
10
ENDCHAR
STARTCHAR 2897
ENCODING 10391
SWIDTH 462 0
DWIDTH 9 0
BBX 8 17 1 -2
BITMAP
08
18
00
00
00
21
23
00
00
00
80
80
00
00
00
18
10
ENDCHAR
STARTCHAR 2898
ENCODING 10392
SWIDTH 462 0
DWIDTH 9 0
BBX 7 17 4 -2
BITMAP
06
04
00
00
00
08
18
00
00
00
00
00
00
00
00
C0
80
ENDCHAR
STARTCHAR 2899
ENCODING 10393
SWIDTH 462 0
DWIDTH 9 0
BBX 7 17 4 -2
BITMAP
46
C4
00
00
00
08
18
00
00
00
00
00
00
00
00
C0
80
ENDCHAR
STARTCHAR 289A
ENCODING 10394
SWIDTH 462 0
DWIDTH 9 0
BBX 8 17 3 -2
BITMAP
03
02
00
00
00
84
8C
00
00
00
00
00
00
00
00
60
40
ENDCHAR
STARTCHAR 289B
ENCODING 10395
SWIDTH 462 0
DWIDTH 9 0
BBX 8 17 3 -2
BITMAP
23
62
00
00
00
84
8C
00
00
00
00
00
00
00
00
60
40
ENDCHAR
STARTCHAR 289C
ENCODING 10396
SWIDTH 462 0
DWIDTH 9 0
BBX 10 17 1 -2
BITMAP
00C0
0080
0000
0000
0000
0100
0300
0000
0000
0000
8000
8000
0000
0000
0000
1800
1000
ENDCHAR
STARTCHAR 289D
ENCODING 10397
SWIDTH 462 0
DWIDTH 9 0
BBX 10 17 1 -2
BITMAP
08C0
1880
0000
0000
0000
0100
0300
0000
0000
0000
8000
8000
0000
0000
0000
1800
1000
ENDCHAR
STARTCHAR 289E
ENCODING 10398
SWIDTH 462 0
DWIDTH 9 0
BBX 10 17 1 -2
BITMAP
00C0
0080
0000
0000
0000
2100
2300
0000
0000
0000
8000
8000
0000
0000
0000
1800
1000
ENDCHAR
STARTCHAR 289F
ENCODING 10399
SWIDTH 462 0
DWIDTH 9 0
BBX 10 17 1 -2
BITMAP
08C0
1880
0000
0000
0000
2100
2300
0000
0000
0000
8000
8000
0000
0000
0000
1800
1000
ENDCHAR
STARTCHAR 28A0
ENCODING 10400
SWIDTH 462 0
DWIDTH 9 0
BBX 3 7 4 -2
BITMAP
20
20
00
00
00
C0
80
ENDCHAR
STARTCHAR 28A1
ENCODING 10401
SWIDTH 462 0
DWIDTH 9 0
BBX 3 17 4 -2
BITMAP
40
C0
00
00
00
00
00
00
00
00
20
20
00
00
00
C0
80
ENDCHAR
STARTCHAR 28A2
ENCODING 10402
SWIDTH 462 0
DWIDTH 9 0
BBX 4 12 3 -2
BITMAP
80
80
00
00
00
10
10
00
00
00
60
40
ENDCHAR
STARTCHAR 28A3
ENCODING 10403
SWIDTH 462 0
DWIDTH 9 0
BBX 4 17 3 -2
BITMAP
20
60
00
00
00
80
80
00
00
00
10
10
00
00
00
60
40
ENDCHAR
STARTCHAR 28A4
ENCODING 10404
SWIDTH 462 0
DWIDTH 9 0
BBX 6 7 1 -2
BITMAP
84
84
00
00
00
18
10
ENDCHAR
STARTCHAR 28A5
ENCODING 10405
SWIDTH 462 0
DWIDTH 9 0
BBX 6 17 1 -2
BITMAP
08
18
00
00
00
00
00
00
00
00
84
84
00
00
00
18
10
ENDCHAR
STARTCHAR 28A6
ENCODING 10406
SWIDTH 462 0
DWIDTH 9 0
BBX 6 12 1 -2
BITMAP
20
20
00
00
00
84
84
00
00
00
18
10
ENDCHAR
STARTCHAR 28A7
ENCODING 10407
SWIDTH 462 0
DWIDTH 9 0
BBX 6 17 1 -2
BITMAP
08
18
00
00
00
20
20
00
00
00
84
84
00
00
00
18
10
ENDCHAR
STARTCHAR 28A8
ENCODING 10408
SWIDTH 462 0
DWIDTH 9 0
BBX 7 17 4 -2
BITMAP
06
04
00
00
00
00
00
00
00
00
20
20
00
00
00
C0
80
ENDCHAR
STARTCHAR 28A9
ENCODING 10409
SWIDTH 462 0
DWIDTH 9 0
BBX 7 17 4 -2
BITMAP
46
C4
00
00
00
00
00
00
00
00
20
20
00
00
00
C0
80
ENDCHAR
STARTCHAR 28AA
ENCODING 10410
SWIDTH 462 0
DWIDTH 9 0
BBX 8 17 3 -2
BITMAP
03
02
00
00
00
80
80
00
00
00
10
10
00
00
00
60
40
ENDCHAR
STARTCHAR 28AB
ENCODING 10411
SWIDTH 462 0
DWIDTH 9 0
BBX 8 17 3 -2
BITMAP
23
62
00
00
00
80
80
00
00
00
10
10
00
00
00
60
40
ENDCHAR
STARTCHAR 28AC
ENCODING 10412
SWIDTH 462 0
DWIDTH 9 0
BBX 10 17 1 -2
BITMAP
00C0
0080
0000
0000
0000
0000
0000
0000
0000
0000
8400
8400
0000
0000
0000
1800
1000
ENDCHAR
STARTCHAR 28AD
ENCODING 10413
SWIDTH 462 0
DWIDTH 9 0
BBX 10 17 1 -2
BITMAP
08C0
1880
0000
0000
0000
0000
0000
0000
0000
0000
8400
8400
0000
0000
0000
1800
1000
ENDCHAR
STARTCHAR 28AE
ENCODING 10414
SWIDTH 462 0
DWIDTH 9 0
BBX 10 17 1 -2
BITMAP
00C0
0080
0000
0000
0000
2000
2000
0000
0000
0000
8400
8400
0000
0000
0000
1800
1000
ENDCHAR
STARTCHAR 28AF
ENCODING 10415
SWIDTH 462 0
DWIDTH 9 0
BBX 10 17 1 -2
BITMAP
08C0
1880
0000
0000
0000
2000
2000
0000
0000
0000
8400
8400
0000
0000
0000
1800
1000
ENDCHAR
STARTCHAR 28B0
ENCODING 10416
SWIDTH 462 0
DWIDTH 9 0
BBX 5 12 4 -2
BITMAP
08
18
00
00
00
20
20
00
00
00
C0
80
ENDCHAR
STARTCHAR 28B1
ENCODING 10417
SWIDTH 462 0
DWIDTH 9 0
BBX 5 17 4 -2
BITMAP
40
C0
00
00
00
08
18
00
00
00
20
20
00
00
00
C0
80
ENDCHAR
STARTCHAR 28B2
ENCODING 10418
SWIDTH 462 0
DWIDTH 9 0
BBX 6 12 3 -2
BITMAP
84
8C
00
00
00
10
10
00
00
00
60
40
ENDCHAR
STARTCHAR 28B3
ENCODING 10419
SWIDTH 462 0
DWIDTH 9 0
BBX 6 17 3 -2
BITMAP
20
60
00
00
00
84
8C
00
00
00
10
10
00
00
00
60
40
ENDCHAR
STARTCHAR 28B4
ENCODING 10420
SWIDTH 462 0
DWIDTH 9 0
BBX 8 12 1 -2
BITMAP
01
03
00
00
00
84
84
00
00
00
18
10
ENDCHAR
STARTCHAR 28B5
ENCODING 10421
SWIDTH 462 0
DWIDTH 9 0
BBX 8 17 1 -2
BITMAP
08
18
00
00
00
01
03
00
00
00
84
84
00
00
00
18
10
ENDCHAR
STARTCHAR 28B6
ENCODING 10422
SWIDTH 462 0
DWIDTH 9 0
BBX 8 12 1 -2
BITMAP
21
23
00
00
00
84
84
00
00
00
18
10
ENDCHAR
STARTCHAR 28B7
ENCODING 10423
SWIDTH 462 0
DWIDTH 9 0
BBX 8 17 1 -2
BITMAP
08
18
00
00
00
21
23
00
00
00
84
84
00
00
00
18
10
ENDCHAR
STARTCHAR 28B8
ENCODING 10424
SWIDTH 462 0
DWIDTH 9 0
BBX 7 17 4 -2
BITMAP
06
04
00
00
00
08
18
00
00
00
20
20
00
00
00
C0
80
ENDCHAR
STARTCHAR 28B9
ENCODING 10425
SWIDTH 462 0
DWIDTH 9 0
BBX 7 17 4 -2
BITMAP
46
C4
00
00
00
08
18
00
00
00
20
20
00
00
00
C0
80
ENDCHAR
STARTCHAR 28BA
ENCODING 10426
SWIDTH 462 0
DWIDTH 9 0
BBX 8 17 3 -2
BITMAP
03
02
00
00
00
84
8C
00
00
00
10
10
00
00
00
60
40
ENDCHAR
STARTCHAR 28BB
ENCODING 10427
SWIDTH 462 0
DWIDTH 9 0
BBX 8 17 3 -2
BITMAP
23
62
00
00
00
84
8C
00
00
00
10
10
00
00
00
60
40
ENDCHAR
STARTCHAR 28BC
ENCODING 10428
SWIDTH 462 0
DWIDTH 9 0
BBX 10 17 1 -2
BITMAP
00C0
0080
0000
0000
0000
0100
0300
0000
0000
0000
8400
8400
0000
0000
0000
1800
1000
ENDCHAR
STARTCHAR 28BD
ENCODING 10429
SWIDTH 462 0
DWIDTH 9 0
BBX 10 17 1 -2
BITMAP
08C0
1880
0000
0000
0000
0100
0300
0000
0000
0000
8400
8400
0000
0000
0000
1800
1000
ENDCHAR
STARTCHAR 28BE
ENCODING 10430
SWIDTH 462 0
DWIDTH 9 0
BBX 10 17 1 -2
BITMAP
00C0
0080
0000
0000
0000
2100
2300
0000
0000
0000
8400
8400
0000
0000
0000
1800
1000
ENDCHAR
STARTCHAR 28BF
ENCODING 10431
SWIDTH 462 0
DWIDTH 9 0
BBX 10 17 1 -2
BITMAP
08C0
1880
0000
0000
0000
2100
2300
0000
0000
0000
8400
8400
0000
0000
0000
1800
1000
ENDCHAR
STARTCHAR 28C0
ENCODING 10432
SWIDTH 462 0
DWIDTH 9 0
BBX 7 2 -1 -2
BITMAP
C6
C4
ENDCHAR
STARTCHAR 28C1
ENCODING 10433
SWIDTH 462 0
DWIDTH 9 0
BBX 7 17 -1 -2
BITMAP
02
06
00
00
00
00
00
00
00
00
00
00
00
00
00
C6
C4
ENDCHAR
STARTCHAR 28C2
ENCODING 10434
SWIDTH 462 0
DWIDTH 9 0
BBX 7 12 -1 -2
BITMAP
08
08
00
00
00
00
00
00
00
00
C6
C4
ENDCHAR
STARTCHAR 28C3
ENCODING 10435
SWIDTH 462 0
DWIDTH 9 0
BBX 7 17 -1 -2
BITMAP
02
06
00
00
00
08
08
00
00
00
00
00
00
00
00
C6
C4
ENDCHAR
STARTCHAR 28C4
ENCODING 10436
SWIDTH 462 0
DWIDTH 9 0
BBX 7 7 -1 -2
BITMAP
20
20
00
00
00
C6
C4
ENDCHAR
STARTCHAR 28C5
ENCODING 10437
SWIDTH 462 0
DWIDTH 9 0
BBX 7 17 -1 -2
BITMAP
02
06
00
00
00
00
00
00
00
00
20
20
00
00
00
C6
C4
ENDCHAR
STARTCHAR 28C6
ENCODING 10438
SWIDTH 462 0
DWIDTH 9 0
BBX 7 12 -1 -2
BITMAP
08
08
00
00
00
20
20
00
00
00
C6
C4
ENDCHAR
STARTCHAR 28C7
ENCODING 10439
SWIDTH 462 0
DWIDTH 9 0
BBX 7 17 -1 -2
BITMAP
02
06
00
00
00
08
08
00
00
00
20
20
00
00
00
C6
C4
ENDCHAR
STARTCHAR 28C8
ENCODING 10440
SWIDTH 462 0
DWIDTH 9 0
BBX 12 17 -1 -2
BITMAP
0030
0020
0000
0000
0000
0000
0000
0000
0000
0000
0000
0000
0000
0000
0000
C600
C400
ENDCHAR
STARTCHAR 28C9
ENCODING 10441
SWIDTH 462 0
DWIDTH 9 0
BBX 12 17 -1 -2
BITMAP
0230
0620
0000
0000
0000
0000
0000
0000
0000
0000
0000
0000
0000
0000
0000
C600
C400
ENDCHAR
STARTCHAR 28CA
ENCODING 10442
SWIDTH 462 0
DWIDTH 9 0
BBX 12 17 -1 -2
BITMAP
0030
0020
0000
0000
0000
0800
0800
0000
0000
0000
0000
0000
0000
0000
0000
C600
C400
ENDCHAR
STARTCHAR 28CB
ENCODING 10443
SWIDTH 462 0
DWIDTH 9 0
BBX 12 17 -1 -2
BITMAP
0230
0620
0000
0000
0000
0800
0800
0000
0000
0000
0000
0000
0000
0000
0000
C600
C400
ENDCHAR
STARTCHAR 28CC
ENCODING 10444
SWIDTH 462 0
DWIDTH 9 0
BBX 12 17 -1 -2
BITMAP
0030
0020
0000
0000
0000
0000
0000
0000
0000
0000
2000
2000
0000
0000
0000
C600
C400
ENDCHAR
STARTCHAR 28CD
ENCODING 10445
SWIDTH 462 0
DWIDTH 9 0
BBX 12 17 -1 -2
BITMAP
0230
0620
0000
0000
0000
0000
0000
0000
0000
0000
2000
2000
0000
0000
0000
C600
C400
ENDCHAR
STARTCHAR 28CE
ENCODING 10446
SWIDTH 462 0
DWIDTH 9 0
BBX 12 17 -1 -2
BITMAP
0030
0020
0000
0000
0000
0800
0800
0000
0000
0000
2000
2000
0000
0000
0000
C600
C400
ENDCHAR
STARTCHAR 28CF
ENCODING 10447
SWIDTH 462 0
DWIDTH 9 0
BBX 12 17 -1 -2
BITMAP
0230
0620
0000
0000
0000
0800
0800
0000
0000
0000
2000
2000
0000
0000
0000
C600
C400
ENDCHAR
STARTCHAR 28D0
ENCODING 10448
SWIDTH 462 0
DWIDTH 9 0
BBX 10 12 -1 -2
BITMAP
0040
00C0
0000
0000
0000
0000
0000
0000
0000
0000
C600
C400
ENDCHAR
STARTCHAR 28D1
ENCODING 10449
SWIDTH 462 0
DWIDTH 9 0
BBX 10 17 -1 -2
BITMAP
0200
0600
0000
0000
0000
0040
00C0
0000
0000
0000
0000
0000
0000
0000
0000
C600
C400
ENDCHAR
STARTCHAR 28D2
ENCODING 10450
SWIDTH 462 0
DWIDTH 9 0
BBX 10 12 -1 -2
BITMAP
0840
08C0
0000
0000
0000
0000
0000
0000
0000
0000
C600
C400
ENDCHAR
STARTCHAR 28D3
ENCODING 10451
SWIDTH 462 0
DWIDTH 9 0
BBX 10 17 -1 -2
BITMAP
0200
0600
0000
0000
0000
0840
08C0
0000
0000
0000
0000
0000
0000
0000
0000
C600
C400
ENDCHAR
STARTCHAR 28D4
ENCODING 10452
SWIDTH 462 0
DWIDTH 9 0
BBX 10 12 -1 -2
BITMAP
0040
00C0
0000
0000
0000
2000
2000
0000
0000
0000
C600
C400
ENDCHAR
STARTCHAR 28D5
ENCODING 10453
SWIDTH 462 0
DWIDTH 9 0
BBX 10 17 -1 -2
BITMAP
0200
0600
0000
0000
0000
0040
00C0
0000
0000
0000
2000
2000
0000
0000
0000
C600
C400
ENDCHAR
STARTCHAR 28D6
ENCODING 10454
SWIDTH 462 0
DWIDTH 9 0
BBX 10 12 -1 -2
BITMAP
0840
08C0
0000
0000
0000
2000
2000
0000
0000
0000
C600
C400
ENDCHAR
STARTCHAR 28D7
ENCODING 10455
SWIDTH 462 0
DWIDTH 9 0
BBX 10 17 -1 -2
BITMAP
0200
0600
0000
0000
0000
0840
08C0
0000
0000
0000
2000
2000
0000
0000
0000
C600
C400
ENDCHAR
STARTCHAR 28D8
ENCODING 10456
SWIDTH 462 0
DWIDTH 9 0
BBX 12 17 -1 -2
BITMAP
0030
0020
0000
0000
0000
0040
00C0
0000
0000
0000
0000
0000
0000
0000
0000
C600
C400
ENDCHAR
STARTCHAR 28D9
ENCODING 10457
SWIDTH 462 0
DWIDTH 9 0
BBX 12 17 -1 -2
BITMAP
0230
0620
0000
0000
0000
0040
00C0
0000
0000
0000
0000
0000
0000
0000
0000
C600
C400
ENDCHAR
STARTCHAR 28DA
ENCODING 10458
SWIDTH 462 0
DWIDTH 9 0
BBX 12 17 -1 -2
BITMAP
0030
0020
0000
0000
0000
0840
08C0
0000
0000
0000
0000
0000
0000
0000
0000
C600
C400
ENDCHAR
STARTCHAR 28DB
ENCODING 10459
SWIDTH 462 0
DWIDTH 9 0
BBX 12 17 -1 -2
BITMAP
0230
0620
0000
0000
0000
0840
08C0
0000
0000
0000
0000
0000
0000
0000
0000
C600
C400
ENDCHAR
STARTCHAR 28DC
ENCODING 10460
SWIDTH 462 0
DWIDTH 9 0
BBX 12 17 -1 -2
BITMAP
0030
0020
0000
0000
0000
0040
00C0
0000
0000
0000
2000
2000
0000
0000
0000
C600
C400
ENDCHAR
STARTCHAR 28DD
ENCODING 10461
SWIDTH 462 0
DWIDTH 9 0
BBX 12 17 -1 -2
BITMAP
0230
0620
0000
0000
0000
0040
00C0
0000
0000
0000
2000
2000
0000
0000
0000
C600
C400
ENDCHAR
STARTCHAR 28DE
ENCODING 10462
SWIDTH 462 0
DWIDTH 9 0
BBX 12 17 -1 -2
BITMAP
0030
0020
0000
0000
0000
0840
08C0
0000
0000
0000
2000
2000
0000
0000
0000
C600
C400
ENDCHAR
STARTCHAR 28DF
ENCODING 10463
SWIDTH 462 0
DWIDTH 9 0
BBX 12 17 -1 -2
BITMAP
0230
0620
0000
0000
0000
0840
08C0
0000
0000
0000
2000
2000
0000
0000
0000
C600
C400
ENDCHAR
STARTCHAR 28E0
ENCODING 10464
SWIDTH 462 0
DWIDTH 9 0
BBX 8 7 -1 -2
BITMAP
01
01
00
00
00
C6
C4
ENDCHAR
STARTCHAR 28E1
ENCODING 10465
SWIDTH 462 0
DWIDTH 9 0
BBX 8 17 -1 -2
BITMAP
02
06
00
00
00
00
00
00
00
00
01
01
00
00
00
C6
C4
ENDCHAR
STARTCHAR 28E2
ENCODING 10466
SWIDTH 462 0
DWIDTH 9 0
BBX 8 12 -1 -2
BITMAP
08
08
00
00
00
01
01
00
00
00
C6
C4
ENDCHAR
STARTCHAR 28E3
ENCODING 10467
SWIDTH 462 0
DWIDTH 9 0
BBX 8 17 -1 -2
BITMAP
02
06
00
00
00
08
08
00
00
00
01
01
00
00
00
C6
C4
ENDCHAR
STARTCHAR 28E4
ENCODING 10468
SWIDTH 462 0
DWIDTH 9 0
BBX 8 7 -1 -2
BITMAP
21
21
00
00
00
C6
C4
ENDCHAR
STARTCHAR 28E5
ENCODING 10469
SWIDTH 462 0
DWIDTH 9 0
BBX 8 17 -1 -2
BITMAP
02
06
00
00
00
00
00
00
00
00
21
21
00
00
00
C6
C4
ENDCHAR
STARTCHAR 28E6
ENCODING 10470
SWIDTH 462 0
DWIDTH 9 0
BBX 8 12 -1 -2
BITMAP
08
08
00
00
00
21
21
00
00
00
C6
C4
ENDCHAR
STARTCHAR 28E7
ENCODING 10471
SWIDTH 462 0
DWIDTH 9 0
BBX 8 17 -1 -2
BITMAP
02
06
00
00
00
08
08
00
00
00
21
21
00
00
00
C6
C4
ENDCHAR
STARTCHAR 28E8
ENCODING 10472
SWIDTH 462 0
DWIDTH 9 0
BBX 12 17 -1 -2
BITMAP
0030
0020
0000
0000
0000
0000
0000
0000
0000
0000
0100
0100
0000
0000
0000
C600
C400
ENDCHAR
STARTCHAR 28E9
ENCODING 10473
SWIDTH 462 0
DWIDTH 9 0
BBX 12 17 -1 -2
BITMAP
0230
0620
0000
0000
0000
0000
0000
0000
0000
0000
0100
0100
0000
0000
0000
C600
C400
ENDCHAR
STARTCHAR 28EA
ENCODING 10474
SWIDTH 462 0
DWIDTH 9 0
BBX 12 17 -1 -2
BITMAP
0030
0020
0000
0000
0000
0800
0800
0000
0000
0000
0100
0100
0000
0000
0000
C600
C400
ENDCHAR
STARTCHAR 28EB
ENCODING 10475
SWIDTH 462 0
DWIDTH 9 0
BBX 12 17 -1 -2
BITMAP
0230
0620
0000
0000
0000
0800
0800
0000
0000
0000
0100
0100
0000
0000
0000
C600
C400
ENDCHAR
STARTCHAR 28EC
ENCODING 10476
SWIDTH 462 0
DWIDTH 9 0
BBX 12 17 -1 -2
BITMAP
0030
0020
0000
0000
0000
0000
0000
0000
0000
0000
2100
2100
0000
0000
0000
C600
C400
ENDCHAR
STARTCHAR 28ED
ENCODING 10477
SWIDTH 462 0
DWIDTH 9 0
BBX 12 17 -1 -2
BITMAP
0230
0620
0000
0000
0000
0000
0000
0000
0000
0000
2100
2100
0000
0000
0000
C600
C400
ENDCHAR
STARTCHAR 28EE
ENCODING 10478
SWIDTH 462 0
DWIDTH 9 0
BBX 12 17 -1 -2
BITMAP
0030
0020
0000
0000
0000
0800
0800
0000
0000
0000
2100
2100
0000
0000
0000
C600
C400
ENDCHAR
STARTCHAR 28EF
ENCODING 10479
SWIDTH 462 0
DWIDTH 9 0
BBX 12 17 -1 -2
BITMAP
0230
0620
0000
0000
0000
0800
0800
0000
0000
0000
2100
2100
0000
0000
0000
C600
C400
ENDCHAR
STARTCHAR 28F0
ENCODING 10480
SWIDTH 462 0
DWIDTH 9 0
BBX 10 12 -1 -2
BITMAP
0040
00C0
0000
0000
0000
0100
0100
0000
0000
0000
C600
C400
ENDCHAR
STARTCHAR 28F1
ENCODING 10481
SWIDTH 462 0
DWIDTH 9 0
BBX 10 17 -1 -2
BITMAP
0200
0600
0000
0000
0000
0040
00C0
0000
0000
0000
0100
0100
0000
0000
0000
C600
C400
ENDCHAR
STARTCHAR 28F2
ENCODING 10482
SWIDTH 462 0
DWIDTH 9 0
BBX 10 12 -1 -2
BITMAP
0840
08C0
0000
0000
0000
0100
0100
0000
0000
0000
C600
C400
ENDCHAR
STARTCHAR 28F3
ENCODING 10483
SWIDTH 462 0
DWIDTH 9 0
BBX 10 17 -1 -2
BITMAP
0200
0600
0000
0000
0000
0840
08C0
0000
0000
0000
0100
0100
0000
0000
0000
C600
C400
ENDCHAR
STARTCHAR 28F4
ENCODING 10484
SWIDTH 462 0
DWIDTH 9 0
BBX 10 12 -1 -2
BITMAP
0040
00C0
0000
0000
0000
2100
2100
0000
0000
0000
C600
C400
ENDCHAR
STARTCHAR 28F5
ENCODING 10485
SWIDTH 462 0
DWIDTH 9 0
BBX 10 17 -1 -2
BITMAP
0200
0600
0000
0000
0000
0040
00C0
0000
0000
0000
2100
2100
0000
0000
0000
C600
C400
ENDCHAR
STARTCHAR 28F6
ENCODING 10486
SWIDTH 462 0
DWIDTH 9 0
BBX 10 12 -1 -2
BITMAP
0840
08C0
0000
0000
0000
2100
2100
0000
0000
0000
C600
C400
ENDCHAR
STARTCHAR 28F7
ENCODING 10487
SWIDTH 462 0
DWIDTH 9 0
BBX 10 17 -1 -2
BITMAP
0200
0600
0000
0000
0000
0840
08C0
0000
0000
0000
2100
2100
0000
0000
0000
C600
C400
ENDCHAR
STARTCHAR 28F8
ENCODING 10488
SWIDTH 462 0
DWIDTH 9 0
BBX 12 17 -1 -2
BITMAP
0030
0020
0000
0000
0000
0040
00C0
0000
0000
0000
0100
0100
0000
0000
0000
C600
C400
ENDCHAR
STARTCHAR 28F9
ENCODING 10489
SWIDTH 462 0
DWIDTH 9 0
BBX 12 17 -1 -2
BITMAP
0230
0620
0000
0000
0000
0040
00C0
0000
0000
0000
0100
0100
0000
0000
0000
C600
C400
ENDCHAR
STARTCHAR 28FA
ENCODING 10490
SWIDTH 462 0
DWIDTH 9 0
BBX 12 17 -1 -2
BITMAP
0030
0020
0000
0000
0000
0840
08C0
0000
0000
0000
0100
0100
0000
0000
0000
C600
C400
ENDCHAR
STARTCHAR 28FB
ENCODING 10491
SWIDTH 462 0
DWIDTH 9 0
BBX 12 17 -1 -2
BITMAP
0230
0620
0000
0000
0000
0840
08C0
0000
0000
0000
0100
0100
0000
0000
0000
C600
C400
ENDCHAR
STARTCHAR 28FC
ENCODING 10492
SWIDTH 462 0
DWIDTH 9 0
BBX 12 17 -1 -2
BITMAP
0030
0020
0000
0000
0000
0040
00C0
0000
0000
0000
2100
2100
0000
0000
0000
C600
C400
ENDCHAR
STARTCHAR 28FD
ENCODING 10493
SWIDTH 462 0
DWIDTH 9 0
BBX 12 17 -1 -2
BITMAP
0230
0620
0000
0000
0000
0040
00C0
0000
0000
0000
2100
2100
0000
0000
0000
C600
C400
ENDCHAR
STARTCHAR 28FE
ENCODING 10494
SWIDTH 462 0
DWIDTH 9 0
BBX 12 17 -1 -2
BITMAP
0030
0020
0000
0000
0000
0840
08C0
0000
0000
0000
2100
2100
0000
0000
0000
C600
C400
ENDCHAR
STARTCHAR 28FF
ENCODING 10495
SWIDTH 462 0
DWIDTH 9 0
BBX 12 17 -1 -2
BITMAP
0230
0620
0000
0000
0000
0840
08C0
0000
0000
0000
2100
2100
0000
0000
0000
C600
C400
ENDCHAR
STARTCHAR 2B58
ENCODING 11096
SWIDTH 462 0
DWIDTH 9 0
BBX 10 9 0 2
BITMAP
3F00
7380
C180
C0C0
C0C0
C0C0
C180
7380
3F00
ENDCHAR
STARTCHAR 2E2C
ENCODING 11820
SWIDTH 462 0
DWIDTH 9 0
BBX 9 8 0 0
BITMAP
2080
2080
4100
0000
0000
0000
8200
8200
ENDCHAR
STARTCHAR E000
ENCODING 57344
SWIDTH 462 0
DWIDTH 9 0
BBX 10 9 0 2
BITMAP
1100
DFC0
2100
7F80
2100
2080
2080
2080
2080
ENDCHAR
STARTCHAR E001
ENCODING 57345
SWIDTH 462 0
DWIDTH 9 0
BBX 10 11 0 1
BITMAP
0800
6B00
1E80
7F80
FC80
FEC0
FFC0
FF80
7F80
3F00
0C00
ENDCHAR
STARTCHAR E002
ENCODING 57346
SWIDTH 462 0
DWIDTH 9 0
BBX 10 11 0 1
BITMAP
0800
6B00
1E80
7F80
8080
8040
8040
8080
4080
3300
0C00
ENDCHAR
STARTCHAR E003
ENCODING 57347
SWIDTH 462 0
DWIDTH 9 0
BBX 10 11 0 1
BITMAP
0800
6B00
1E80
7F80
FF80
E7C0
F7C0
F780
7780
3F00
0C00
ENDCHAR
STARTCHAR E004
ENCODING 57348
SWIDTH 462 0
DWIDTH 9 0
BBX 10 11 0 1
BITMAP
0800
6B00
1E80
7F80
8080
8040
8040
FF80
7F80
3F00
0C00
ENDCHAR
STARTCHAR E005
ENCODING 57349
SWIDTH 462 0
DWIDTH 9 0
BBX 10 9 0 2
BITMAP
1000
1800
1000
0000
FF80
FF40
FF80
FC00
7C00
ENDCHAR
STARTCHAR E006
ENCODING 57350
SWIDTH 462 0
DWIDTH 9 0
BBX 9 11 0 1
BITMAP
1000
7F80
1F00
3F80
4F80
0900
1900
1800
7E00
FF00
3C00
ENDCHAR
STARTCHAR E007
ENCODING 57351
SWIDTH 462 0
DWIDTH 9 0
BBX 10 11 0 1
BITMAP
6000
F000
E800
A800
BE00
FFC0
7F80
7F00
3F00
1C00
0C00
ENDCHAR
STARTCHAR E008
ENCODING 57352
SWIDTH 462 0
DWIDTH 9 0
BBX 10 11 0 1
BITMAP
0800
6B00
1A80
7B80
FBC0
E3C0
DFC0
F380
7B80
7B00
1800
ENDCHAR
STARTCHAR E009
ENCODING 57353
SWIDTH 462 0
DWIDTH 9 0
BBX 6 21 2 -4
BITMAP
FC
FC
FC
FC
FC
FC
FC
FC
F8
F8
F8
F8
78
70
00
00
70
78
F8
F8
78
ENDCHAR
STARTCHAR E00A
ENCODING 57354
SWIDTH 462 0
DWIDTH 9 0
BBX 9 17 0 -2
BITMAP
7E00
7C00
7C00
7C00
7800
FB80
FF80
FF00
FF00
CE00
0E00
0C00
1C00
1800
1800
1000
1000
ENDCHAR
STARTCHAR E0A0
ENCODING 57504
SWIDTH 462 0
DWIDTH 9 0
BBX 8 21 1 -4
BITMAP
C0
C0
C4
C4
CE
DF
C4
C4
C4
C4
CC
0C
38
70
E0
C0
C0
C0
C0
C0
C0
ENDCHAR
STARTCHAR E0A1
ENCODING 57505
SWIDTH 462 0
DWIDTH 9 0
BBX 8 21 1 -4
BITMAP
C0
C0
C0
C0
C0
C0
C0
C0
C0
FC
00
73
73
73
7B
7B
6F
6F
67
67
63
ENDCHAR
STARTCHAR E0A2
ENCODING 57506
SWIDTH 462 0
DWIDTH 9 0
BBX 10 19 0 -3
BITMAP
1E00
3F00
2300
6100
6100
6100
6100
7F80
FFC0
FFC0
E3C0
E3C0
F3C0
F3C0
F3C0
F3C0
FFC0
FFC0
FF80
ENDCHAR
STARTCHAR E0A3
ENCODING 57507
SWIDTH 462 0
DWIDTH 9 0
BBX 9 21 0 -4
BITMAP
FE00
FE00
C000
C000
C000
C000
C000
C000
C000
FE00
0000
3180
3980
3980
3D80
3D80
3780
3780
3380
3380
3180
ENDCHAR
STARTCHAR E0B0
ENCODING 57520
SWIDTH 462 0
DWIDTH 9 0
BBX 10 21 0 -4
BITMAP
8000
8000
C000
E000
F000
F800
FC00
FE00
FF00
FF80
FFC0
FF80
FF00
FE00
FC00
F800
F000
E000
C000
8000
8000
ENDCHAR
STARTCHAR E0B1
ENCODING 57521
SWIDTH 462 0
DWIDTH 9 0
BBX 10 21 0 -4
BITMAP
8000
4000
6000
3000
1800
0800
0400
0200
0300
0180
00C0
0180
0300
0200
0400
0C00
1800
3000
6000
4000
8000
ENDCHAR
STARTCHAR E0B2
ENCODING 57522
SWIDTH 462 0
DWIDTH 9 0
BBX 10 21 0 -4
BITMAP
0040
00C0
01C0
01C0
03C0
07C0
0FC0
1FC0
3FC0
7FC0
FFC0
7FC0
3FC0
1FC0
0FC0
07C0
03C0
03C0
01C0
00C0
0040
ENDCHAR
STARTCHAR E0B3
ENCODING 57523
SWIDTH 462 0
DWIDTH 9 0
BBX 9 21 0 -4
BITMAP
0080
0080
0100
0200
0600
0C00
1800
1000
2000
4000
C000
4000
2000
3000
1800
0C00
0600
0200
0100
0080
0080
ENDCHAR
STARTCHAR E0B4
ENCODING 57524
SWIDTH 462 0
DWIDTH 9 0
BBX 10 21 0 -4
BITMAP
E000
F800
FC00
FE00
FF00
FF80
FF80
FF80
FFC0
FFC0
FFC0
FFC0
FFC0
FF80
FF80
FF80
FF00
FE00
FC00
F800
E000
ENDCHAR
STARTCHAR E0B5
ENCODING 57525
SWIDTH 462 0
DWIDTH 9 0
BBX 9 21 1 -4
BITMAP
C000
3000
1800
0C00
0600
0600
0300
0300
0180
0180
0180
0180
0180
0300
0300
0600
0600
0C00
1800
3000
C000
ENDCHAR
STARTCHAR E0B6
ENCODING 57526
SWIDTH 462 0
DWIDTH 9 0
BBX 10 21 0 -4
BITMAP
01C0
07C0
1FC0
3FC0
3FC0
7FC0
7FC0
FFC0
FFC0
FFC0
FFC0
FFC0
FFC0
FFC0
7FC0
7FC0
3FC0
3FC0
1FC0
07C0
01C0
ENDCHAR
STARTCHAR E0B7
ENCODING 57527
SWIDTH 462 0
DWIDTH 9 0
BBX 9 21 0 -4
BITMAP
0180
0600
0C00
1800
3000
6000
6000
C000
C000
C000
C000
C000
C000
C000
6000
6000
3000
1800
0C00
0600
0380
ENDCHAR
STARTCHAR E0B8
ENCODING 57528
SWIDTH 462 0
DWIDTH 9 0
BBX 9 20 0 -3
BITMAP
8000
8000
C000
C000
C000
E000
E000
F000
F000
F800
F800
FC00
FC00
FE00
FE00
FF00
FF00
FF00
FF80
FF80
ENDCHAR
STARTCHAR E0B9
ENCODING 57529
SWIDTH 462 0
DWIDTH 9 0
BBX 9 20 0 -4
BITMAP
8000
8000
4000
4000
4000
2000
2000
1000
1000
0800
0800
0400
0400
0400
0200
0200
0100
0100
0080
0080
ENDCHAR
STARTCHAR E0BA
ENCODING 57530
SWIDTH 462 0
DWIDTH 9 0
BBX 10 20 0 -3
BITMAP
0040
0040
00C0
00C0
01C0
01C0
03C0
03C0
07C0
07C0
07C0
0FC0
0FC0
1FC0
1FC0
3FC0
3FC0
7FC0
7FC0
FFC0
ENDCHAR
STARTCHAR E0BB
ENCODING 57531
SWIDTH 462 0
DWIDTH 9 0
BBX 9 20 0 -3
BITMAP
0080
0080
0100
0100
0200
0200
0400
0400
0400
0800
0800
1000
1000
2000
2000
4000
4000
4000
8000
8000
ENDCHAR
STARTCHAR E0BC
ENCODING 57532
SWIDTH 462 0
DWIDTH 9 0
BBX 9 20 0 -4
BITMAP
FF80
FF80
FF00
FF00
FF00
FE00
FE00
FC00
FC00
F800
F800
F000
F000
E000
E000
C000
C000
C000
8000
8000
ENDCHAR
STARTCHAR E0BD
ENCODING 57533
SWIDTH 462 0
DWIDTH 9 0
BBX 9 20 0 -3
BITMAP
0080
0080
0100
0100
0200
0200
0400
0400
0400
0800
0800
1000
1000
2000
2000
4000
4000
4000
8000
8000
ENDCHAR
STARTCHAR E0BE
ENCODING 57534
SWIDTH 462 0
DWIDTH 9 0
BBX 10 20 0 -4
BITMAP
FFC0
7FC0
7FC0
3FC0
3FC0
1FC0
1FC0
0FC0
0FC0
0FC0
07C0
07C0
03C0
03C0
01C0
01C0
00C0
00C0
0040
0040
ENDCHAR
STARTCHAR E0BF
ENCODING 57535
SWIDTH 462 0
DWIDTH 9 0
BBX 9 20 0 -4
BITMAP
8000
8000
4000
4000
4000
2000
2000
1000
1000
0800
0800
0400
0400
0400
0200
0200
0100
0100
0080
0080
ENDCHAR
STARTCHAR E0C0
ENCODING 57536
SWIDTH 462 0
DWIDTH 9 0
BBX 9 21 0 -3
BITMAP
4000
C000
B000
A000
E700
F700
FE80
FC00
F800
FE00
F800
F800
F800
FE00
E400
F000
9800
8000
C000
8000
8000
ENDCHAR
STARTCHAR E0C1
ENCODING 57537
SWIDTH 462 0
DWIDTH 9 0
BBX 10 21 0 -4
BITMAP
A000
D000
5800
7000
5700
18C0
0380
0400
0400
0200
0C00
0800
0500
0A00
1400
2800
5800
6000
2000
C000
8000
ENDCHAR
STARTCHAR E0C2
ENCODING 57538
SWIDTH 462 0
DWIDTH 9 0
BBX 9 21 1 -3
BITMAP
0200
0580
0C80
0680
6780
F780
3F80
1F80
1F80
3F80
0F80
0F80
1F80
3780
0780
0780
0D80
0080
0380
0080
0080
ENDCHAR
STARTCHAR E0C3
ENCODING 57539
SWIDTH 462 0
DWIDTH 9 0
BBX 10 21 0 -4
BITMAP
0140
0080
0700
0580
3480
4C00
E000
1000
0800
1000
0800
0800
2800
1C00
1A00
0500
0700
0180
0100
0080
0040
ENDCHAR
STARTCHAR E0C4
ENCODING 57540
SWIDTH 462 0
DWIDTH 9 0
BBX 10 21 0 -4
BITMAP
9CC0
94C0
0800
DAC0
0400
DC00
0400
DC00
0800
D600
0800
DC00
0000
CD80
0000
DA00
0000
D000
9000
9800
9800
ENDCHAR
STARTCHAR E0C5
ENCODING 57541
SWIDTH 462 0
DWIDTH 9 0
BBX 9 21 0 -4
BITMAP
A700
AB00
0400
A780
0000
1F80
0000
1B80
0400
7780
0000
1780
0000
D980
0000
6F80
0400
0380
0300
0D00
0D00
ENDCHAR
STARTCHAR E0C6
ENCODING 57542
SWIDTH 462 0
DWIDTH 9 0
BBX 10 21 0 -4
BITMAP
FF00
F500
F500
0A00
FF00
FD00
02C0
FD40
F540
CC80
CC00
CC00
F300
F300
F300
FC00
F400
FC00
F0C0
F140
F0C0
ENDCHAR
STARTCHAR E0C7
ENCODING 57543
SWIDTH 462 0
DWIDTH 9 0
BBX 9 21 0 -4
BITMAP
3A80
5A80
5A80
2000
6A80
6A80
C000
DA80
DA80
0880
0880
0880
3280
5280
3280
1E80
1680
0E80
C280
C280
C280
ENDCHAR
STARTCHAR E0C8
ENCODING 57544
SWIDTH 462 0
DWIDTH 9 0
BBX 10 21 0 -4
BITMAP
E000
C000
F800
FE00
8000
E000
F800
C000
C000
F000
F000
E800
FC00
FFC0
E000
C000
F000
F000
E800
8000
E000
ENDCHAR
STARTCHAR E0CA
ENCODING 57546
SWIDTH 462 0
DWIDTH 9 0
BBX 10 21 0 -4
BITMAP
01C0
0340
07C0
3FC0
10C0
01C0
0FC0
00C0
00C0
03C0
0FC0
05C0
3FC0
FFC0
01C0
02C0
05C0
07C0
01C0
0040
03C0
ENDCHAR
STARTCHAR E0CC
ENCODING 57548
SWIDTH 462 0
DWIDTH 9 0
BBX 10 21 0 -4
BITMAP
E000
E000
E000
F000
F000
E000
E300
E780
E780
0780
0FC0
0F80
0780
E780
E780
E000
F000
F000
E000
E000
E000
ENDCHAR
STARTCHAR E0CD
ENCODING 57549
SWIDTH 462 0
DWIDTH 9 0
BBX 10 21 0 -4
BITMAP
E000
A000
9000
9000
9000
9000
A300
AC80
E880
0880
0840
0880
E880
A880
A480
9300
9000
9000
9000
A000
E000
ENDCHAR
STARTCHAR E0CE
ENCODING 57550
SWIDTH 462 0
DWIDTH 9 0
BBX 10 9 0 2
BITMAP
3C00
3A00
7B80
F700
0B40
F740
7B80
7B00
3E00
ENDCHAR
STARTCHAR E0CF
ENCODING 57551
SWIDTH 462 0
DWIDTH 9 0
BBX 10 11 0 1
BITMAP
0C00
1E00
7F00
5F80
B240
EDC0
F3C0
F7C0
7780
3600
0400
ENDCHAR
STARTCHAR E0D0
ENCODING 57552
SWIDTH 462 0
DWIDTH 9 0
BBX 10 11 0 1
BITMAP
6300
9480
9440
9440
6380
0000
6100
9680
9440
9440
6380
ENDCHAR
STARTCHAR E0D1
ENCODING 57553
SWIDTH 462 0
DWIDTH 9 0
BBX 10 13 0 0
BITMAP
FE00
FFC0
FE40
FFC0
FFC0
FE00
FE00
FFC0
FE40
FFC0
FFC0
FE00
FE00
ENDCHAR
STARTCHAR E0D2
ENCODING 57554
SWIDTH 462 0
DWIDTH 9 0
BBX 9 21 0 -4
BITMAP
FF80
FF00
FF00
FE00
FC00
FC00
F800
F000
F000
E000
0000
E000
F000
F000
F800
FC00
FC00
FE00
FF00
FF80
FF80
ENDCHAR
STARTCHAR E0D4
ENCODING 57556
SWIDTH 462 0
DWIDTH 9 0
BBX 10 21 0 -4
BITMAP
7FC0
7FC0
3FC0
1FC0
1FC0
0FC0
07C0
07C0
03C0
01C0
0000
01C0
03C0
07C0
07C0
0FC0
1FC0
1FC0
3FC0
7FC0
FFC0
ENDCHAR
STARTCHAR E200
ENCODING 57856
SWIDTH 462 0
DWIDTH 9 0
BBX 10 15 0 -2
BITMAP
0180
03C0
0780
0F00
1E00
3C00
7800
F000
F800
7C00
3E00
1F00
0F80
07C0
0380
ENDCHAR
STARTCHAR E201
ENCODING 57857
SWIDTH 462 0
DWIDTH 9 0
BBX 10 9 0 2
BITMAP
0C00
1E00
1F80
7FC0
FFC0
FF80
1100
0200
0400
ENDCHAR
STARTCHAR E202
ENCODING 57858
SWIDTH 462 0
DWIDTH 9 0
BBX 7 21 1 -4
BITMAP
38
38
18
38
3C
7C
7E
7E
7E
FE
FE
FE
7E
7E
7E
7E
7E
7E
7E
7E
7E
ENDCHAR
STARTCHAR E203
ENCODING 57859
SWIDTH 462 0
DWIDTH 9 0
BBX 10 5 0 4
BITMAP
7F00
7F80
BFC0
FFC0
FFC0
ENDCHAR
STARTCHAR E204
ENCODING 57860
SWIDTH 462 0
DWIDTH 9 0
BBX 10 9 0 2
BITMAP
1400
1800
0000
FFC0
FFC0
7F80
7F00
1E00
FF80
ENDCHAR
STARTCHAR E205
ENCODING 57861
SWIDTH 462 0
DWIDTH 9 0
BBX 10 11 0 1
BITMAP
C000
E000
6000
1000
1000
0C00
0400
0400
0300
0080
00C0
ENDCHAR
STARTCHAR E206
ENCODING 57862
SWIDTH 462 0
DWIDTH 9 0
BBX 10 9 0 2
BITMAP
3B00
4080
8080
8040
8040
8040
8080
8080
7700
ENDCHAR
STARTCHAR E207
ENCODING 57863
SWIDTH 462 0
DWIDTH 9 0
BBX 10 12 0 1
BITMAP
0F80
5F80
7FC0
3FC0
0FC0
0F80
0F80
1F00
FE00
8000
C000
4000
ENDCHAR
STARTCHAR E208
ENCODING 57864
SWIDTH 462 0
DWIDTH 9 0
BBX 10 10 0 1
BITMAP
0C00
1E00
1F80
7FC0
FFC0
FF80
0800
1C00
0800
1000
ENDCHAR
STARTCHAR E209
ENCODING 57865
SWIDTH 462 0
DWIDTH 9 0
BBX 10 9 0 2
BITMAP
E000
BC00
FF00
0F80
0DC0
0E00
0E00
1500
1500
ENDCHAR
STARTCHAR E20A
ENCODING 57866
SWIDTH 462 0
DWIDTH 9 0
BBX 7 21 1 -4
BITMAP
38
24
44
44
44
44
44
44
5C
5C
5C
5C
5C
5C
5C
5A
BE
BE
BE
5A
3C
ENDCHAR
STARTCHAR E20B
ENCODING 57867
SWIDTH 462 0
DWIDTH 9 0
BBX 7 21 1 -4
BITMAP
38
24
44
5C
5C
5C
5C
5C
5C
5C
5C
5C
5C
5C
5C
5A
BE
BE
BE
5A
3C
ENDCHAR
STARTCHAR E20C
ENCODING 57868
SWIDTH 462 0
DWIDTH 9 0
BBX 7 21 1 -4
BITMAP
38
24
44
44
44
44
44
44
44
44
44
44
54
5C
5C
5A
BE
BE
BE
5A
3C
ENDCHAR
STARTCHAR E20D
ENCODING 57869
SWIDTH 462 0
DWIDTH 9 0
BBX 10 9 0 2
BITMAP
C0C0
6180
3300
1E00
0C00
1E00
3300
6180
C0C0
ENDCHAR
STARTCHAR E20E
ENCODING 57870
SWIDTH 462 0
DWIDTH 9 0
BBX 10 13 0 0
BITMAP
0C00
3F00
3F00
3F00
3F00
0000
FFC0
7F80
3F00
1E00
1E00
3E00
3F00
ENDCHAR
STARTCHAR E20F
ENCODING 57871
SWIDTH 462 0
DWIDTH 9 0
BBX 10 9 0 2
BITMAP
3080
9980
FA00
7C00
1E00
2F00
7780
E3C0
C1C0
ENDCHAR
STARTCHAR E210
ENCODING 57872
SWIDTH 462 0
DWIDTH 9 0
BBX 10 11 0 1
BITMAP
7F80
FF80
FFC0
FFC0
FFC0
7F80
7F80
7380
6380
6180
2300
ENDCHAR
STARTCHAR E211
ENCODING 57873
SWIDTH 462 0
DWIDTH 9 0
BBX 10 7 0 3
BITMAP
FF80
94C0
7D80
0C00
1400
1400
0C00
ENDCHAR
STARTCHAR E212
ENCODING 57874
SWIDTH 462 0
DWIDTH 9 0
BBX 10 9 0 2
BITMAP
FFC0
FFC0
EAC0
8DC0
B1C0
FFC0
FFC0
FF80
1E00
ENDCHAR
STARTCHAR E213
ENCODING 57875
SWIDTH 462 0
DWIDTH 9 0
BBX 10 19 0 -3
BITMAP
0800
1C00
1C00
0000
1C00
3C00
7E00
FB00
F9C0
B800
B800
3C00
3E00
3600
7600
6600
6300
C300
C000
ENDCHAR
STARTCHAR E214
ENCODING 57876
SWIDTH 462 0
DWIDTH 9 0
BBX 10 9 0 1
BITMAP
0800
7F00
3F00
7F00
FFC0
7F00
3F00
3F00
0800
ENDCHAR
STARTCHAR E215
ENCODING 57877
SWIDTH 462 0
DWIDTH 9 0
BBX 10 9 0 2
BITMAP
3E00
7F80
FF80
F1C0
C9C0
F1C0
FB80
7F80
3E00
ENDCHAR
STARTCHAR E216
ENCODING 57878
SWIDTH 462 0
DWIDTH 9 0
BBX 10 15 0 -1
BITMAP
0080
01C0
0380
0300
0700
0600
0E00
0C00
1C00
3800
3000
7000
6000
E000
C000
ENDCHAR
STARTCHAR E217
ENCODING 57879
SWIDTH 462 0
DWIDTH 9 0
BBX 10 9 0 2
BITMAP
0040
03C0
0E80
7B80
F780
2F80
2F80
2B00
1100
ENDCHAR
STARTCHAR E218
ENCODING 57880
SWIDTH 462 0
DWIDTH 9 0
BBX 10 7 0 3
BITMAP
FF80
FFC0
FF80
3F00
3F00
3F00
3F00
ENDCHAR
STARTCHAR E219
ENCODING 57881
SWIDTH 462 0
DWIDTH 9 0
BBX 10 5 0 4
BITMAP
7800
D500
FF80
FFC0
FE40
ENDCHAR
STARTCHAR E21A
ENCODING 57882
SWIDTH 462 0
DWIDTH 9 0
BBX 10 9 0 2
BITMAP
A000
5000
3000
1800
1800
0800
0700
1FC0
1F80
ENDCHAR
STARTCHAR E21B
ENCODING 57883
SWIDTH 462 0
DWIDTH 9 0
BBX 9 9 0 2
BITMAP
8000
C000
6000
F000
7800
DC00
4E00
FF00
FF80
ENDCHAR
STARTCHAR E21C
ENCODING 57884
SWIDTH 462 0
DWIDTH 9 0
BBX 10 11 0 1
BITMAP
1C00
3F00
7F80
7FC0
FFC0
BF80
DF80
2400
0C00
0C00
0C00
ENDCHAR
STARTCHAR E21D
ENCODING 57885
SWIDTH 462 0
DWIDTH 9 0
BBX 10 8 0 2
BITMAP
1C00
6400
CF00
9E00
FF80
7FC0
FFC0
7F00
ENDCHAR
STARTCHAR E21E
ENCODING 57886
SWIDTH 462 0
DWIDTH 9 0
BBX 10 8 0 2
BITMAP
3F00
6D00
9280
FFC0
5280
3500
1E00
0C00
ENDCHAR
STARTCHAR E21F
ENCODING 57887
SWIDTH 462 0
DWIDTH 9 0
BBX 10 9 0 2
BITMAP
0100
0280
07C0
0B00
3E00
7C00
F800
F000
6000
ENDCHAR
STARTCHAR E220
ENCODING 57888
SWIDTH 462 0
DWIDTH 9 0
BBX 10 9 0 2
BITMAP
1C00
3F00
7F80
FF80
0A40
0800
0800
0800
3800
ENDCHAR
ENDFONT
